<svg width="1600" height="792" viewBox="0 0 1600 792" fill="none" xmlns="http://www.w3.org/2000/svg">
<g clip-path="url(#clip0_184_71143)">
<path d="M384.023 293.086L1183.82 293.086" stroke="#E5E5E5" stroke-width="3.05749"/>
<rect x="594.75" y="108" width="342" height="342" rx="32.4512" fill="white"/>
<rect x="594.75" y="108" width="342" height="342" rx="32.4512" stroke="#E5E5E5" stroke-width="2.70426"/>
<path fill-rule="evenodd" clip-rule="evenodd" d="M771.293 214.22V208.975H775.604V214.22C775.604 217.791 772.709 220.687 769.138 220.687H755.14C755.001 220.687 754.868 220.741 754.769 220.839C754.434 221.17 754.668 221.741 755.14 221.741H795.614C797.51 221.741 799.24 222.822 800.071 224.526C801.68 227.82 799.281 231.661 795.614 231.661H748.531C748.342 231.661 748.165 231.752 748.053 231.904C747.769 232.295 748.048 232.843 748.531 232.843H799.576C801.848 232.843 803.709 234.599 803.878 236.827C803.979 237.844 804.031 238.876 804.031 239.92C804.031 256.916 790.254 270.693 773.258 270.693C756.262 270.693 742.484 256.916 742.484 239.92C742.484 238.797 742.545 237.688 742.662 236.596H742.672L742.654 236.596C742.76 234.988 743.44 231.846 743.876 230.691C744.032 230.235 744.261 229.788 744.57 229.364C745.493 228.099 746.965 227.35 748.531 227.35H795.614C796.094 227.35 796.408 226.848 796.197 226.417C796.088 226.194 795.862 226.053 795.614 226.053H755.14C750.814 226.053 748.662 220.809 751.741 217.77C752.647 216.877 753.868 216.376 755.14 216.376H769.138C770.328 216.376 771.293 215.411 771.293 214.22Z" fill="#F7C325"/>
<path fill-rule="evenodd" clip-rule="evenodd" d="M773.374 208.975V214.22C773.374 215.411 772.409 216.376 771.219 216.376H769.06C770.245 216.369 771.203 215.406 771.203 214.22V208.975H773.374ZM769.069 220.687H757.221C757.219 220.687 757.217 220.687 757.215 220.687H769.048C769.055 220.687 769.062 220.687 769.069 220.687ZM795.542 231.661H750.612C750.61 231.661 750.608 231.661 750.606 231.661H795.524C795.53 231.661 795.536 231.661 795.542 231.661ZM745.74 232.843C745.593 231.683 745.859 230.45 746.651 229.364C747.571 228.104 749.034 227.356 750.594 227.35H748.441C746.875 227.35 745.403 228.099 744.48 229.364C743.714 230.414 743.232 232.538 743.268 232.843H745.74ZM795.531 227.35H797.695C798.175 227.35 798.489 226.848 798.278 226.417C798.169 226.194 797.943 226.052 797.695 226.052H757.221C752.895 226.052 750.743 220.809 753.822 217.77C754.723 216.881 755.937 216.38 757.203 216.376H755.05C753.778 216.376 752.556 216.877 751.651 217.77C748.572 220.809 750.724 226.053 755.05 226.053H795.524C795.772 226.053 795.998 226.194 796.107 226.417C796.317 226.846 796.007 227.346 795.531 227.35Z" fill="#D7A613"/>
<path fill-rule="evenodd" clip-rule="evenodd" d="M802.097 250.685C796.294 257.893 787.397 262.505 777.423 262.505C759.938 262.505 745.764 248.331 745.764 230.846C745.764 229.931 745.802 229.026 745.878 228.131C745.376 228.454 744.931 228.87 744.57 229.365C744.261 229.789 744.032 230.236 743.876 230.692C743.44 231.847 742.76 234.989 742.654 236.596L742.671 236.597H742.662C742.545 237.689 742.484 238.798 742.484 239.921C742.484 256.916 756.262 270.694 773.258 270.694C786.467 270.694 797.733 262.372 802.097 250.685Z" fill="#D7A613"/>
<mask id="mask0_184_71143" style="mask-type:alpha" maskUnits="userSpaceOnUse" x="768" y="210" width="11" height="7">
<path d="M768.293 210.686H778.552V216.328H768.293V210.686Z" fill="#D9D9D9"/>
</mask>
<g mask="url(#mask0_184_71143)">
<path fill-rule="evenodd" clip-rule="evenodd" d="M771.283 214.216V208.971H775.594V214.216C775.594 217.788 772.698 220.683 769.127 220.683H755.129C754.99 220.683 754.857 220.737 754.759 220.835C754.423 221.166 754.658 221.738 755.129 221.738H795.603C797.499 221.738 799.229 222.818 800.061 224.522C801.669 227.817 799.27 231.658 795.603 231.658H748.52C748.331 231.658 748.154 231.748 748.043 231.9C747.758 232.291 748.037 232.84 748.52 232.84H799.566C801.948 232.84 803.88 234.771 803.88 237.154L799.569 237.154L799.568 237.151L799.566 237.151H748.52C744.511 237.151 742.197 232.599 744.559 229.36C745.482 228.095 746.954 227.346 748.52 227.346H795.603C796.083 227.346 796.397 226.844 796.187 226.413C796.078 226.19 795.851 226.049 795.603 226.049H755.129C750.803 226.049 748.651 220.805 751.73 217.766C752.636 216.873 753.857 216.372 755.129 216.372H769.127C770.317 216.372 771.283 215.407 771.283 214.216Z" fill="#D7A613"/>
</g>
<path d="M830.933 181.885H856.34V324.748H830.933V181.885Z" fill="#5A2EA3"/>
<path d="M681.969 180.35H838.884V190.261H681.969V180.35Z" fill="#381D66"/>
<path d="M719.159 164.43V324.75H675.148V178.392C675.148 170.677 681.403 164.43 689.111 164.43H719.159ZM684.156 276.599C684.156 279.085 686.173 281.103 688.659 281.103C691.145 281.103 693.163 279.085 693.163 276.599V186.132C693.163 183.647 691.145 181.629 688.659 181.629C686.173 181.629 684.156 183.647 684.156 186.132V276.607V276.599Z" fill="#5A2EA3"/>
<path d="M856.338 178.392V324.75H702.176V178.392C702.176 170.677 708.431 164.43 716.138 164.43H842.376C850.083 164.43 856.338 170.677 856.338 178.392ZM726.615 281.103H831.9C835.758 281.103 838.881 277.979 838.881 274.122V188.868C838.881 185.011 835.758 181.887 831.9 181.887H726.615C722.757 181.887 719.633 185.011 719.633 188.868V274.122C719.633 277.979 722.757 281.103 726.615 281.103Z" fill="#9D62FF"/>
<path d="M756.914 181.885H789.601V194.742H756.914V181.885Z" fill="#808080"/>
<path d="M780.093 194.734H789.6L772.547 181.885H763.039L780.093 194.734Z" fill="#999999"/>
<path d="M756.914 181.885H763.04V194.742H756.914V181.885Z" fill="#4C4C4C"/>
<path d="M773.258 194.732H780.158V204.167H773.258V194.732Z" fill="#874DE5"/>
<path d="M766.355 194.732H773.256V204.167H766.355V194.732Z" fill="#5A2EA3"/>
<path d="M773.258 211.084V204.176H780.158L775.873 211.084H773.258Z" fill="#5A2EA3"/>
<path d="M773.256 211.084H770.641L766.355 204.176H773.256V211.084Z" fill="#381D66"/>
<path d="M756.583 181.885H759.859V190.254H756.583V181.885Z" fill="#381D66"/>
<path d="M719.635 270.693H838.883V274.697H719.635V270.693Z" fill="#381D66"/>
<path d="M790.539 274.697H806.898V281.098H790.539V274.697Z" fill="#381D66"/>
<path d="M740.554 274.697H756.914V281.098H740.554V274.697Z" fill="#381D66"/>
<path fill-rule="evenodd" clip-rule="evenodd" d="M761.636 146.499C771.244 146.499 779.04 154.288 779.04 163.904V164.428H782.535V163.904C782.535 152.357 773.173 143.004 761.636 143.004C750.089 143.004 740.736 152.366 740.736 163.904V164.428H744.231V163.904C744.231 154.295 752.02 146.499 761.636 146.499Z" fill="#F7C325"/>
<path fill-rule="evenodd" clip-rule="evenodd" d="M751.03 146.499C760.638 146.499 768.435 154.288 768.435 163.904V164.428H771.93V163.904C771.93 152.357 762.568 143.004 751.03 143.004C739.484 143.004 730.13 152.366 730.13 163.904V164.428H733.625V163.904C733.625 154.295 741.415 146.499 751.03 146.499Z" fill="#874DE5"/>
<path d="M732.613 299.579C730.99 299.579 729.675 298.263 729.675 296.641C729.675 295.018 730.99 293.703 732.613 293.703C734.235 293.703 735.551 295.018 735.551 296.641C735.551 298.263 734.235 299.579 732.613 299.579Z" fill="#FCE49D"/>
<path d="M742.652 299.579C741.03 299.579 739.714 298.263 739.714 296.641C739.714 295.018 741.03 293.703 742.652 293.703C744.275 293.703 745.59 295.018 745.59 296.641C745.59 298.263 744.275 299.579 742.652 299.579Z" fill="#F7C325"/>
<path d="M722.574 299.579C720.951 299.579 719.636 298.263 719.636 296.641C719.636 295.018 720.951 293.703 722.574 293.703C724.196 293.703 725.512 295.018 725.512 296.641C725.512 298.263 724.196 299.579 722.574 299.579Z" fill="#FDF3D3"/>
<path d="M844.297 178.632C842.96 178.632 841.876 177.548 841.876 176.21C841.876 174.873 842.96 173.789 844.297 173.789C845.635 173.789 846.719 174.873 846.719 176.21C846.719 177.548 845.635 178.632 844.297 178.632Z" fill="#B689FF"/>
<path d="M713.266 178.632C711.929 178.632 710.845 177.548 710.845 176.21C710.845 174.873 711.929 173.789 713.266 173.789C714.603 173.789 715.688 174.873 715.688 176.21C715.688 177.548 714.603 178.632 713.266 178.632Z" fill="#B689FF"/>
<path d="M795.197 293.703H839.555V310.83H795.197V293.703Z" fill="#381D66"/>
<path d="M797.447 295.756H837.301V308.782H797.447V295.756Z" fill="#5A2EA3"/>
<path d="M812.58 300.463H837.301V304.071H812.58V300.463Z" fill="#874DE5"/>
<path d="M797.441 300.463H812.582V304.071H797.441V300.463Z" fill="#B689FF"/>
<path d="M692.136 315.018H702.176V324.735H695.63C693.701 324.735 692.136 326.301 692.136 328.23V333.024H675.154V315.018H692.136Z" fill="#5A2EA3"/>
<path d="M719.158 315.018H737.27V324.735H722.653C720.724 324.735 719.158 326.301 719.158 328.23V333.024H702.177V315.018H719.158Z" fill="#9D62FF"/>
<path d="M839.359 315.018H829.318V324.735H835.864C837.793 324.735 839.359 326.301 839.359 328.23V333.024H856.34V324.743V315.026H839.359V315.018Z" fill="#9D62FF"/>
<path d="M635.422 394V379.58H641.222C644.502 379.58 646.062 381.04 646.062 384.04C646.062 386.9 644.482 388.58 641.202 388.58H637.362V394H635.422ZM637.362 386.82H641.122C643.222 386.82 644.122 385.84 644.122 384.06C644.122 382.2 643.202 381.34 641.122 381.34H637.362V386.82ZM648.541 394V383.88H650.241V385.32C650.941 384.2 652.181 383.88 653.161 383.88H654.081V385.6H653.301C651.941 385.6 650.341 386.14 650.341 387.36V394H648.541ZM660.183 394.22C657.283 394.22 655.343 392.3 655.343 388.94C655.343 385.56 657.283 383.68 660.183 383.68C663.083 383.68 665.023 385.56 665.023 388.94C665.023 392.3 663.083 394.22 660.183 394.22ZM657.163 388.94C657.163 391.24 658.243 392.64 660.183 392.64C662.123 392.64 663.203 391.24 663.203 388.94C663.203 386.64 662.123 385.26 660.183 385.26C658.243 385.26 657.163 386.64 657.163 388.94ZM671.785 398.32C669.585 398.32 667.745 397.28 667.285 395.1L669.025 394.84C669.445 396.24 670.645 396.78 671.785 396.78C673.645 396.78 674.905 395.96 674.905 393.86V392.48C674.285 393.46 673.145 393.98 671.625 393.98C668.865 393.98 666.945 392.28 666.945 388.96C666.945 385.62 668.785 383.68 671.705 383.68C673.005 383.68 674.165 384.16 674.845 385.06V383.88H676.605V393.88C676.605 397.12 674.565 398.32 671.785 398.32ZM668.765 388.92C668.765 391.12 669.905 392.44 671.785 392.44C673.765 392.44 674.845 391.08 674.845 389.42V388.1C674.845 386.2 673.465 385.22 671.825 385.22C669.965 385.22 668.765 386.7 668.765 388.92ZM679.693 394V383.88H681.393V385.32C682.093 384.2 683.333 383.88 684.313 383.88H685.233V385.6H684.453C683.093 385.6 681.493 386.14 681.493 387.36V394H679.693ZM690.155 394.22C687.975 394.22 686.575 393.1 686.575 391.22C686.575 388.64 688.715 388.12 691.235 388.12C691.995 388.12 692.555 388.14 693.215 388.18V387.32C693.215 385.88 692.375 385.16 691.135 385.16C689.695 385.16 688.915 386 688.635 387.04L686.935 386.7C687.375 384.82 688.815 383.68 691.135 383.68C693.395 383.68 694.935 384.76 694.935 387.26V394H693.255V392.82C692.615 393.66 691.575 394.22 690.155 394.22ZM688.375 391.12C688.375 392.08 689.115 392.74 690.255 392.74C691.935 392.74 693.215 391.82 693.215 390.5V389.54C692.595 389.52 692.195 389.52 691.355 389.52C689.915 389.52 688.375 389.66 688.375 391.12ZM697.935 394V383.88H699.695V385.18C700.355 384.2 701.595 383.68 702.815 383.68C704.515 383.68 705.655 384.42 706.155 385.52C706.795 384.3 708.215 383.68 709.615 383.68C711.895 383.68 713.335 384.92 713.335 387.3V394H711.535V387.58C711.535 386.24 710.875 385.28 709.235 385.28C707.735 385.28 706.535 386.32 706.535 387.94V394H704.735V387.6C704.735 386.24 704.055 385.28 702.415 385.28C700.915 385.28 699.735 386.32 699.735 387.94V394H697.935ZM716.314 394V383.88H718.074V385.18C718.734 384.2 719.974 383.68 721.194 383.68C722.894 383.68 724.034 384.42 724.534 385.52C725.174 384.3 726.594 383.68 727.994 383.68C730.274 383.68 731.714 384.92 731.714 387.3V394H729.914V387.58C729.914 386.24 729.254 385.28 727.614 385.28C726.114 385.28 724.914 386.32 724.914 387.94V394H723.114V387.6C723.114 386.24 722.434 385.28 720.794 385.28C719.294 385.28 718.114 386.32 718.114 387.94V394H716.314ZM734.693 394V383.88H736.493V394H734.693ZM734.573 381.98V379.9H736.613V381.98H734.573ZM739.615 394V383.88H741.375V385.26C742.055 384.24 743.375 383.68 744.655 383.68C746.995 383.68 748.495 384.92 748.495 387.3V394H746.695V387.6C746.695 386.22 745.975 385.28 744.255 385.28C742.695 385.28 741.415 386.3 741.415 387.94V394H739.615ZM755.71 398.32C753.51 398.32 751.67 397.28 751.21 395.1L752.95 394.84C753.37 396.24 754.57 396.78 755.71 396.78C757.57 396.78 758.83 395.96 758.83 393.86V392.48C758.21 393.46 757.07 393.98 755.55 393.98C752.79 393.98 750.87 392.28 750.87 388.96C750.87 385.62 752.71 383.68 755.63 383.68C756.93 383.68 758.09 384.16 758.77 385.06V383.88H760.53V393.88C760.53 397.12 758.49 398.32 755.71 398.32ZM752.69 388.92C752.69 391.12 753.83 392.44 755.71 392.44C757.69 392.44 758.77 391.08 758.77 389.42V388.1C758.77 386.2 757.39 385.22 755.75 385.22C753.89 385.22 752.69 386.7 752.69 388.92ZM770.23 394L766.89 383.88H768.75L771.25 391.82L773.77 383.88H775.99L778.45 391.86L781.01 383.88H782.77L779.37 394H777.45L774.85 385.56L772.15 394H770.23ZM784.635 394V383.88H786.435V394H784.635ZM784.515 381.98V379.9H786.555V381.98H784.515ZM793.636 394C790.936 394 790.156 392.92 790.156 390.46V385.5H788.416V383.88H790.156V381.2H791.956V383.88H795.116V385.5H791.956V390.44C791.956 391.84 792.556 392.38 793.716 392.38H795.216V394H793.636ZM797.525 394V379.58H799.325V385.2C800.005 384.22 801.305 383.68 802.565 383.68C804.905 383.68 806.405 384.92 806.405 387.3V394H804.605V387.6C804.605 386.22 803.885 385.28 802.165 385.28C800.605 385.28 799.325 386.3 799.325 387.94V394H797.525ZM818.217 394L812.437 379.58H814.537L819.317 391.7L823.937 379.58H825.957L820.297 394H818.217ZM830.019 394.22C827.839 394.22 826.439 393.1 826.439 391.22C826.439 388.64 828.579 388.12 831.099 388.12C831.859 388.12 832.419 388.14 833.079 388.18V387.32C833.079 385.88 832.239 385.16 830.999 385.16C829.559 385.16 828.779 386 828.499 387.04L826.799 386.7C827.239 384.82 828.679 383.68 830.999 383.68C833.259 383.68 834.799 384.76 834.799 387.26V394H833.119V392.82C832.479 393.66 831.439 394.22 830.019 394.22ZM828.239 391.12C828.239 392.08 828.979 392.74 830.119 392.74C831.799 392.74 833.079 391.82 833.079 390.5V389.54C832.459 389.52 832.059 389.52 831.219 389.52C829.779 389.52 828.239 389.66 828.239 391.12ZM837.799 394V383.88H839.499V385.32C840.199 384.2 841.439 383.88 842.419 383.88H843.339V385.6H842.559C841.199 385.6 839.599 386.14 839.599 387.36V394H837.799ZM845.299 394V383.88H847.099V394H845.299ZM845.179 381.98V379.9H847.219V381.98H845.179ZM853.28 394.22C851.1 394.22 849.7 393.1 849.7 391.22C849.7 388.64 851.84 388.12 854.36 388.12C855.12 388.12 855.68 388.14 856.34 388.18V387.32C856.34 385.88 855.5 385.16 854.26 385.16C852.82 385.16 852.04 386 851.76 387.04L850.06 386.7C850.5 384.82 851.94 383.68 854.26 383.68C856.52 383.68 858.06 384.76 858.06 387.26V394H856.38V392.82C855.74 393.66 854.7 394.22 853.28 394.22ZM851.5 391.12C851.5 392.08 852.24 392.74 853.38 392.74C855.06 392.74 856.34 391.82 856.34 390.5V389.54C855.72 389.52 855.32 389.52 854.48 389.52C853.04 389.52 851.5 389.66 851.5 391.12ZM866.1 394.22C864.7 394.22 863.48 393.64 862.84 392.68V394H861.06V379.58H862.86V385.24C863.52 384.28 864.82 383.68 866.3 383.68C868.78 383.68 870.8 385.44 870.8 388.8C870.8 392.16 868.96 394.22 866.1 394.22ZM862.86 389.76C862.86 391.6 864.32 392.62 865.94 392.62C867.82 392.62 868.98 391.08 868.98 388.84C868.98 386.64 867.84 385.26 865.94 385.26C864.38 385.26 862.86 386.28 862.86 388.3V389.76ZM873.326 394V379.58H875.126V394H873.326ZM882.308 394.22C879.608 394.22 877.648 392.46 877.648 388.94C877.648 385.42 879.768 383.68 882.448 383.68C885.108 383.68 886.908 385.44 886.908 388.42C886.908 388.8 886.908 389.14 886.888 389.34H879.368C879.468 391.54 880.588 392.66 882.308 392.66C883.868 392.66 884.728 391.8 885.048 390.84L886.648 391.18C886.228 392.88 884.728 394.22 882.308 394.22ZM879.428 387.96H885.188C885.148 386.38 884.168 385.2 882.448 385.2C880.828 385.2 879.708 386.14 879.428 387.96ZM892.943 394.22C890.563 394.22 888.983 393.18 888.623 391.22L890.303 390.86C890.623 392.1 891.503 392.74 892.983 392.74C894.523 392.74 895.303 392.16 895.303 391.28C895.303 390.42 894.763 390.04 893.323 389.78L891.983 389.54C890.103 389.2 889.003 388.44 889.003 386.66C889.003 384.82 890.543 383.68 892.923 383.68C895.383 383.68 896.723 385 897.003 386.56L895.363 386.92C895.103 385.94 894.403 385.16 892.883 385.16C891.523 385.16 890.703 385.76 890.703 386.62C890.703 387.54 891.383 387.8 892.583 388.02L893.883 388.26C896.083 388.66 897.003 389.58 897.003 391.22C897.003 392.98 895.643 394.22 892.943 394.22Z" fill="black"/>
<g filter="url(#filter0_d_184_71143)">
<path d="M186.988 141.26C186.988 123.436 201.438 108.986 219.262 108.986H494.848C512.673 108.986 527.122 123.436 527.122 141.26V416.946C527.122 434.77 512.673 449.22 494.848 449.22H219.262C201.438 449.22 186.988 434.77 186.988 416.946V141.26Z" fill="white"/>
</g>
<path d="M524.689 141.261C524.689 124.78 511.329 111.42 494.848 111.42H219.262C202.781 111.42 189.421 124.78 189.421 141.261V416.946C189.421 433.427 202.781 446.788 219.262 446.788H494.848C511.329 446.788 524.689 433.427 524.689 416.946V141.261ZM529.555 416.946C529.555 436.114 514.016 451.653 494.848 451.653H219.262C200.094 451.653 184.555 436.114 184.555 416.946V141.261C184.555 122.093 200.094 106.554 219.262 106.554H494.848C514.016 106.554 529.555 122.093 529.555 141.261V416.946Z" fill="#9D62FF"/>
<g clip-path="url(#clip1_184_71143)">
<path d="M415.404 178.08H427.019C430.967 178.08 434.175 181.338 434.175 185.347V211.619" stroke="#F7C325" stroke-width="5.27755" stroke-miterlimit="10"/>
<path d="M415.404 178.08H421.128" stroke="#D6A513" stroke-width="5.27755" stroke-miterlimit="10"/>
<path d="M356.551 275.226H408.416C412.363 275.226 415.571 271.968 415.571 267.96V265.646" stroke="#F7C325" stroke-width="5.27755" stroke-miterlimit="10"/>
<path d="M415.574 266.138V261.294" stroke="#D6A513" stroke-width="5.27755" stroke-miterlimit="10"/>
<path d="M345.049 244.646V262.547" stroke="#D6A513" stroke-width="5.27755" stroke-miterlimit="10"/>
<path d="M289.783 201.25H268.007C266.028 201.25 264.43 202.873 264.43 204.883V206.579H289.806V201.25H289.783Z" fill="#B588FF"/>
<path d="M289.807 206.593H264.43L264.573 240.664H289.926L289.807 206.593Z" fill="#9C62FF"/>
<path d="M264.574 240.046V241.984C264.574 243.994 266.184 245.617 268.152 245.617H289.927V240.046H264.562H264.574Z" fill="#7139CB"/>
<path d="M317.662 305.17C317.161 307.072 316.875 309.058 316.875 311.117C316.875 323.92 327.095 334.3 339.7 334.3H396.392C408.997 334.3 419.217 323.92 419.217 311.117C419.217 309.058 418.931 307.072 418.43 305.17H317.674H317.662Z" fill="#7139CB"/>
<path d="M396.382 287.948H339.69C329.112 287.948 320.252 295.264 317.652 305.172H418.408C415.821 295.264 406.948 287.948 396.371 287.948H396.382Z" fill="#170B29"/>
<path d="M408.738 287.948H352.057C345.749 287.948 340.049 290.54 335.922 294.743C331.796 298.934 329.232 304.724 329.232 311.131C329.232 323.933 339.452 334.314 352.057 334.314H408.738C410.574 334.314 412.363 334.083 414.08 333.672C418.242 332.654 421.963 330.486 424.884 327.519C429.011 323.328 431.574 317.538 431.574 311.131C431.574 298.328 421.355 287.948 408.75 287.948H408.738Z" fill="#B588FF"/>
<path d="M329.399 313.812C329.399 313.885 329.399 313.946 329.423 314.018C329.888 317.749 327.098 321.08 323.389 321.08C320.634 321.08 318.166 319.215 317.498 316.501C319.883 326.712 328.91 334.306 339.691 334.306H352.045C340.347 334.306 330.699 325.355 329.387 313.825L329.399 313.812Z" fill="#5A2E9F"/>
<path d="M424.525 298.324C427.292 301.836 428.95 306.281 428.95 311.125" stroke="#D2B7FF" stroke-width="5.172" stroke-miterlimit="10"/>
<path d="M414.078 291.339C418.252 292.489 421.889 294.972 424.525 298.314" stroke="#EADFFF" stroke-width="5.172" stroke-miterlimit="10"/>
<path d="M352.059 290.643H408.763C410.599 290.643 412.388 290.898 414.082 291.36" stroke="#D2B7FF" stroke-width="5.172" stroke-miterlimit="10"/>
<path d="M380.392 154.896H323.712C311.106 154.896 300.887 165.272 300.887 178.072C300.887 190.872 311.106 201.249 323.712 201.249H380.392C392.998 201.249 403.217 190.872 403.217 178.072C403.217 165.272 392.998 154.896 380.392 154.896Z" fill="#9C62FF"/>
<path d="M470.919 211.61H387.297L365.484 244.035H449.106L470.919 211.61Z" fill="#381D66"/>
<path d="M365.487 244.041L353.895 261.277H437.516L449.109 244.041H365.487Z" fill="#170B29"/>
<path d="M464.251 241.794L451.138 261.282H426.784L406.412 211.61H451.864L464.251 241.794Z" fill="#5A2E9F"/>
<path d="M432.31 261.282H388.253L380.393 242.133L400.924 211.61H411.938L432.31 261.282Z" fill="#7139CB"/>
<path d="M392.744 154.896H336.063C329.755 154.896 324.054 157.488 319.928 161.69C315.802 165.881 313.238 171.671 313.238 178.078C313.238 190.881 323.458 201.261 336.063 201.261H392.744C394.58 201.261 396.369 201.031 398.086 200.619C402.248 199.601 405.969 197.433 408.89 194.466C413.016 190.275 415.58 184.486 415.58 178.078C415.568 165.276 405.349 154.896 392.744 154.896Z" fill="#B588FF"/>
<path d="M313.407 180.76C313.407 180.832 313.407 180.893 313.431 180.966C313.896 184.696 311.106 188.027 307.397 188.027C304.642 188.027 302.174 186.162 301.506 183.449C303.891 193.659 312.918 201.254 323.699 201.254H336.053C324.355 201.254 314.707 192.303 313.395 180.772L313.407 180.76Z" fill="#7139CB"/>
<path d="M484.543 211.61L464.25 241.794L451.863 211.61H484.543Z" fill="#7139CB"/>
<path d="M316.929 245.621H296.115L278.82 252.621H299.634L316.929 245.621Z" fill="#381D66"/>
<path d="M318.21 245.802H317.256L317.733 245.621L318.21 245.802Z" fill="#9C62FF"/>
<path d="M386.415 233.2L397.951 261.3H367.518L386.415 233.2Z" fill="#5A2E9F"/>
<path d="M408.537 165.272C411.304 168.785 412.961 173.229 412.961 178.073" stroke="#D2B7FF" stroke-width="5.172" stroke-miterlimit="10"/>
<path d="M398.09 158.288C402.264 159.439 405.901 161.921 408.536 165.264" stroke="#EADFFF" stroke-width="5.172" stroke-miterlimit="10"/>
<path d="M336.066 157.592H392.771C394.607 157.592 396.396 157.847 398.089 158.309" stroke="#D2B7FF" stroke-width="5.172" stroke-miterlimit="10"/>
<path d="M379.46 204.884V241.983C379.46 243.994 377.862 245.617 375.883 245.617H281.435C279.455 245.617 277.857 243.994 277.857 241.983V204.884C277.857 202.873 279.455 201.25 281.435 201.25H375.883C376.204 201.25 376.515 201.298 376.813 201.371C378.339 201.795 379.46 203.2 379.46 204.884Z" fill="#D2B7FF"/>
<path d="M280.482 206.593V240.059" stroke="#EADFFF" stroke-width="5.172" stroke-miterlimit="10"/>
<path d="M326.59 203.929H283.123" stroke="#EADFFF" stroke-width="5.172" stroke-miterlimit="10"/>
<path d="M283.13 203.929H281.496C280.936 203.929 280.482 204.389 280.482 204.958V206.581" stroke="#F6F3FF" stroke-width="5.172" stroke-miterlimit="10"/>
<path d="M308.051 201.25C312.022 204.714 317.197 206.784 322.838 206.784H379.459V204.883C379.459 202.873 377.861 201.25 375.881 201.25H308.051Z" fill="#9C62FF"/>
<path d="M297.201 299.284V306.551C297.201 310.561 300.409 313.819 304.356 313.819H323.675" stroke="#F7C325" stroke-width="5.27755" stroke-miterlimit="10"/>
<path d="M297.201 304.14V298.17" stroke="#D6A513" stroke-width="5.27755" stroke-miterlimit="10"/>
<path d="M278.82 252.621L229.746 272.461H250.56L299.634 252.621H278.82Z" fill="#7139CB"/>
<path d="M316.929 299.288L250.56 272.46H229.746L296.115 299.288H316.929Z" fill="#381D66"/>
<path d="M383.31 272.45L364.244 264.734L317.372 245.791H316.487L315.06 246.372L275.944 262.191L250.561 272.45L288.979 287.99L316.93 299.278L337.079 291.139L363.769 280.335L383.31 272.45Z" fill="#9C62FF"/>
<path d="M316.928 245.621L299.633 252.621H334.234L316.928 245.621Z" fill="#864DE4"/>
<path d="M349.369 286.097L383.306 272.386L350.188 259.002L366.332 269.443C368.479 270.823 368.446 274.239 366.288 275.584L349.38 286.109L349.369 286.097Z" fill="#864DE4"/>
<path d="M284.497 258.75L250.561 272.461L283.679 285.845L267.535 275.405C265.388 274.024 265.421 270.608 267.579 269.264L284.486 258.738L284.497 258.75Z" fill="#B588FF"/>
</g>
<path d="M278.397 378.928C274.257 378.928 271.637 376.148 271.637 371.528C271.637 366.788 274.357 364.088 278.417 364.088C281.877 364.088 283.977 365.768 284.537 368.788L282.677 369.088C282.237 367.208 281.017 365.828 278.417 365.828C275.257 365.828 273.617 368.108 273.617 371.528C273.617 374.948 275.297 377.188 278.397 377.188C281.017 377.188 282.317 375.828 282.737 373.928L284.557 374.208C283.977 377.268 281.857 378.928 278.397 378.928ZM291.413 378.928C288.513 378.928 286.573 377.008 286.573 373.648C286.573 370.268 288.513 368.388 291.413 368.388C294.313 368.388 296.253 370.268 296.253 373.648C296.253 377.008 294.313 378.928 291.413 378.928ZM288.393 373.648C288.393 375.948 289.473 377.348 291.413 377.348C293.353 377.348 294.433 375.948 294.433 373.648C294.433 371.348 293.353 369.968 291.413 369.968C289.473 369.968 288.393 371.348 288.393 373.648ZM298.775 378.708V368.588H300.535V369.888C301.195 368.908 302.435 368.388 303.655 368.388C305.355 368.388 306.495 369.128 306.995 370.228C307.635 369.008 309.055 368.388 310.455 368.388C312.735 368.388 314.175 369.628 314.175 372.008V378.708H312.375V372.288C312.375 370.948 311.715 369.988 310.075 369.988C308.575 369.988 307.375 371.028 307.375 372.648V378.708H305.575V372.308C305.575 370.948 304.895 369.988 303.255 369.988C301.755 369.988 300.575 371.028 300.575 372.648V378.708H298.775ZM317.154 382.828V368.588H318.954V370.048C319.654 368.948 321.014 368.388 322.394 368.388C324.874 368.388 326.894 370.168 326.894 373.528C326.894 376.928 324.974 378.928 322.114 378.928C320.794 378.928 319.694 378.488 318.954 377.628V382.828H317.154ZM318.954 374.468C318.954 376.268 320.414 377.328 322.074 377.328C323.914 377.328 325.074 375.868 325.074 373.608C325.074 371.408 323.934 369.968 322.034 369.968C320.494 369.968 318.954 371.108 318.954 373.248V374.468ZM332.999 378.928C330.659 378.928 329.279 377.668 329.279 375.288V368.588H331.079V375.008C331.079 376.368 331.759 377.308 333.419 377.308C334.979 377.308 336.239 376.268 336.239 374.668V368.588H338.039V378.708H336.279V377.368C335.599 378.368 334.279 378.928 332.999 378.928ZM345.238 378.708C342.538 378.708 341.758 377.628 341.758 375.168V370.208H340.018V368.588H341.758V365.908H343.558V368.588H346.718V370.208H343.558V375.148C343.558 376.548 344.158 377.088 345.318 377.088H346.818V378.708H345.238ZM353.089 378.928C350.389 378.928 348.429 377.168 348.429 373.648C348.429 370.128 350.549 368.388 353.229 368.388C355.889 368.388 357.689 370.148 357.689 373.128C357.689 373.508 357.689 373.848 357.669 374.048H350.149C350.249 376.248 351.369 377.368 353.089 377.368C354.649 377.368 355.509 376.508 355.829 375.548L357.429 375.888C357.009 377.588 355.509 378.928 353.089 378.928ZM350.209 372.668H355.969C355.929 371.088 354.949 369.908 353.229 369.908C351.609 369.908 350.489 370.848 350.209 372.668ZM360.064 378.708V368.588H361.764V370.028C362.464 368.908 363.704 368.588 364.684 368.588H365.604V370.308H364.824C363.464 370.308 361.864 370.848 361.864 372.068V378.708H360.064ZM377.26 378.928C374.02 378.928 371.98 377.648 371.46 374.868L373.34 374.528C373.8 376.268 374.94 377.208 377.32 377.208C379.62 377.208 380.9 376.268 380.9 374.828C380.9 373.568 380.26 372.948 378.52 372.628L376.06 372.188C373.36 371.708 372.02 370.608 372.02 368.268C372.02 365.668 374.18 364.088 377.34 364.088C380.58 364.088 382.28 365.588 382.7 368.008L380.84 368.348C380.5 366.908 379.54 365.808 377.3 365.808C375.12 365.808 373.94 366.868 373.94 368.228C373.94 369.488 374.68 370.148 376.52 370.468L379 370.908C381.48 371.348 382.82 372.428 382.82 374.788C382.82 377.528 380.5 378.928 377.26 378.928ZM389.693 378.928C386.933 378.928 384.913 377.188 384.913 373.648C384.913 370.128 386.933 368.388 389.693 368.388C392.333 368.388 393.673 369.768 394.073 371.608L392.353 371.888C392.073 370.948 391.413 369.968 389.693 369.968C387.793 369.968 386.733 371.388 386.733 373.648C386.733 375.868 387.793 377.328 389.693 377.328C391.433 377.328 392.053 376.368 392.333 375.388L394.053 375.688C393.653 377.548 392.333 378.928 389.693 378.928ZM396.373 378.708V368.588H398.173V378.708H396.373ZM396.253 366.688V364.608H398.293V366.688H396.253ZM405.354 378.928C402.654 378.928 400.694 377.168 400.694 373.648C400.694 370.128 402.814 368.388 405.494 368.388C408.154 368.388 409.954 370.148 409.954 373.128C409.954 373.508 409.954 373.848 409.934 374.048H402.414C402.514 376.248 403.634 377.368 405.354 377.368C406.914 377.368 407.774 376.508 408.094 375.548L409.694 375.888C409.274 377.588 407.774 378.928 405.354 378.928ZM402.474 372.668H408.234C408.194 371.088 407.214 369.908 405.494 369.908C403.874 369.908 402.754 370.848 402.474 372.668ZM412.33 378.708V368.588H414.09V369.968C414.77 368.948 416.09 368.388 417.37 368.388C419.71 368.388 421.21 369.628 421.21 372.008V378.708H419.41V372.308C419.41 370.928 418.69 369.988 416.97 369.988C415.41 369.988 414.13 371.008 414.13 372.648V378.708H412.33ZM428.365 378.928C425.605 378.928 423.585 377.188 423.585 373.648C423.585 370.128 425.605 368.388 428.365 368.388C431.005 368.388 432.345 369.768 432.745 371.608L431.025 371.888C430.745 370.948 430.085 369.968 428.365 369.968C426.465 369.968 425.405 371.388 425.405 373.648C425.405 375.868 426.465 377.328 428.365 377.328C430.105 377.328 430.725 376.368 431.005 375.388L432.725 375.688C432.325 377.548 431.005 378.928 428.365 378.928ZM439.104 378.928C436.404 378.928 434.444 377.168 434.444 373.648C434.444 370.128 436.564 368.388 439.244 368.388C441.904 368.388 443.704 370.148 443.704 373.128C443.704 373.508 443.704 373.848 443.684 374.048H436.164C436.264 376.248 437.384 377.368 439.104 377.368C440.664 377.368 441.524 376.508 441.844 375.548L443.444 375.888C443.024 377.588 441.524 378.928 439.104 378.928ZM436.224 372.668H441.984C441.944 371.088 440.964 369.908 439.244 369.908C437.624 369.908 436.504 370.848 436.224 372.668ZM291.925 408.708V394.288H302.025V396.068H293.865V400.848H301.725V402.588H293.865V408.708H291.925ZM308.214 408.928C305.874 408.928 304.494 407.668 304.494 405.288V398.588H306.294V405.008C306.294 406.368 306.974 407.308 308.634 407.308C310.194 407.308 311.454 406.268 311.454 404.668V398.588H313.254V408.708H311.494V407.368C310.814 408.368 309.494 408.928 308.214 408.928ZM316.373 408.708V398.588H318.133V399.968C318.813 398.948 320.133 398.388 321.413 398.388C323.753 398.388 325.253 399.628 325.253 402.008V408.708H323.453V402.308C323.453 400.928 322.733 399.988 321.013 399.988C319.453 399.988 318.173 401.008 318.173 402.648V408.708H316.373ZM332.288 408.928C329.528 408.928 327.628 407.008 327.628 403.648C327.628 400.308 329.568 398.388 332.448 398.388C333.708 398.388 334.848 398.868 335.508 399.668V394.288H337.308V408.708H335.568V407.408C334.928 408.368 333.788 408.928 332.288 408.928ZM329.448 403.628C329.448 405.768 330.528 407.328 332.488 407.328C334.468 407.328 335.508 405.988 335.508 404.068V403.108C335.508 401.028 334.228 399.968 332.568 399.968C330.668 399.968 329.448 401.368 329.448 403.628ZM343.495 408.928C341.315 408.928 339.915 407.808 339.915 405.928C339.915 403.348 342.055 402.828 344.575 402.828C345.335 402.828 345.895 402.848 346.555 402.888V402.028C346.555 400.588 345.715 399.868 344.475 399.868C343.035 399.868 342.255 400.708 341.975 401.748L340.275 401.408C340.715 399.528 342.155 398.388 344.475 398.388C346.735 398.388 348.275 399.468 348.275 401.968V408.708H346.595V407.528C345.955 408.368 344.915 408.928 343.495 408.928ZM341.715 405.828C341.715 406.788 342.455 407.448 343.595 407.448C345.275 407.448 346.555 406.528 346.555 405.208V404.248C345.935 404.228 345.535 404.228 344.695 404.228C343.255 404.228 341.715 404.368 341.715 405.828ZM351.275 408.708V398.588H353.035V399.888C353.695 398.908 354.935 398.388 356.155 398.388C357.855 398.388 358.995 399.128 359.495 400.228C360.135 399.008 361.555 398.388 362.955 398.388C365.235 398.388 366.675 399.628 366.675 402.008V408.708H364.875V402.288C364.875 400.948 364.215 399.988 362.575 399.988C361.075 399.988 359.875 401.028 359.875 402.648V408.708H358.075V402.308C358.075 400.948 357.395 399.988 355.755 399.988C354.255 399.988 353.075 401.028 353.075 402.648V408.708H351.275ZM373.714 408.928C371.014 408.928 369.054 407.168 369.054 403.648C369.054 400.128 371.174 398.388 373.854 398.388C376.514 398.388 378.314 400.148 378.314 403.128C378.314 403.508 378.314 403.848 378.294 404.048H370.774C370.874 406.248 371.994 407.368 373.714 407.368C375.274 407.368 376.134 406.508 376.454 405.548L378.054 405.888C377.634 407.588 376.134 408.928 373.714 408.928ZM370.834 402.668H376.594C376.554 401.088 375.574 399.908 373.854 399.908C372.234 399.908 371.114 400.848 370.834 402.668ZM380.689 408.708V398.588H382.449V399.968C383.129 398.948 384.449 398.388 385.729 398.388C388.069 398.388 389.569 399.628 389.569 402.008V408.708H387.769V402.308C387.769 400.928 387.049 399.988 385.329 399.988C383.769 399.988 382.489 401.008 382.489 402.648V408.708H380.689ZM396.624 408.708C393.924 408.708 393.144 407.628 393.144 405.168V400.208H391.404V398.588H393.144V395.908H394.944V398.588H398.104V400.208H394.944V405.148C394.944 406.548 395.544 407.088 396.704 407.088H398.204V408.708H396.624ZM403.573 408.928C401.393 408.928 399.993 407.808 399.993 405.928C399.993 403.348 402.133 402.828 404.653 402.828C405.413 402.828 405.973 402.848 406.633 402.888V402.028C406.633 400.588 405.793 399.868 404.553 399.868C403.113 399.868 402.333 400.708 402.053 401.748L400.353 401.408C400.793 399.528 402.233 398.388 404.553 398.388C406.813 398.388 408.353 399.468 408.353 401.968V408.708H406.673V407.528C406.033 408.368 404.993 408.928 403.573 408.928ZM401.793 405.828C401.793 406.788 402.533 407.448 403.673 407.448C405.353 407.448 406.633 406.528 406.633 405.208V404.248C406.013 404.228 405.613 404.228 404.773 404.228C403.333 404.228 401.793 404.368 401.793 405.828ZM411.353 408.708V394.288H413.153V408.708H411.353ZM419.935 408.928C417.555 408.928 415.975 407.888 415.615 405.928L417.295 405.568C417.615 406.808 418.495 407.448 419.975 407.448C421.515 407.448 422.295 406.868 422.295 405.988C422.295 405.128 421.755 404.748 420.315 404.488L418.975 404.248C417.095 403.908 415.995 403.148 415.995 401.368C415.995 399.528 417.535 398.388 419.915 398.388C422.375 398.388 423.715 399.708 423.995 401.268L422.355 401.628C422.095 400.648 421.395 399.868 419.875 399.868C418.515 399.868 417.695 400.468 417.695 401.328C417.695 402.248 418.375 402.508 419.575 402.728L420.875 402.968C423.075 403.368 423.995 404.288 423.995 405.928C423.995 407.688 422.635 408.928 419.935 408.928Z" fill="black"/>
<rect x="1003" y="108" width="342" height="342" rx="32.4512" fill="white"/>
<rect x="1003" y="108" width="342" height="342" rx="32.4512" stroke="#E5E5E5" stroke-width="2.70426"/>
<g clip-path="url(#clip2_184_71143)">
<path d="M1224.12 238.246C1224.12 244.231 1223.3 250.038 1221.76 255.535C1219.87 262.319 1216.9 268.652 1213.02 274.336C1209.97 278.818 1206.37 282.896 1202.31 286.467C1200.32 288.215 1199.21 290.752 1199.21 293.401V333.307C1199.21 335.872 1197.14 337.948 1194.57 337.948H1139.02C1136.46 337.948 1134.38 335.872 1134.38 333.307V322.426C1134.38 319.861 1132.31 317.775 1129.75 317.775H1111.37C1106.26 317.775 1102.1 313.622 1102.1 308.482V280.594C1102.1 278.029 1100.03 275.943 1097.47 275.943H1089.38C1088.94 275.943 1088.51 275.887 1088.12 275.765C1085.45 275.022 1083.93 271.987 1085.19 269.309L1090.28 257.686L1095.2 246.458L1095.61 245.528C1095.78 245.171 1095.89 244.804 1095.96 244.419C1096.02 244.128 1096.05 243.836 1096.05 243.536V239.044C1096.05 237.635 1096.09 236.235 1096.19 234.844C1096.29 233.191 1096.46 231.546 1096.68 229.93C1096.73 229.582 1096.79 229.235 1096.84 228.887C1097.82 222.592 1099.69 216.578 1102.34 211.006C1107.08 200.981 1114.29 192.355 1123.18 185.965C1124.71 184.866 1126.29 183.832 1127.91 182.883C1137.22 177.349 1148.03 174.145 1159.59 174.06C1194.34 173.797 1222.74 201.281 1224.06 235.728C1224.1 236.564 1224.12 237.4 1224.12 238.246Z" fill="#9C62FF"/>
<path d="M1221.76 255.531C1219.87 262.324 1216.9 268.658 1213.02 274.334C1208.65 273.074 1205.45 269.034 1205.45 264.241C1205.45 258.444 1210.15 253.745 1215.93 253.745C1218.1 253.745 1220.09 254.403 1221.76 255.531Z" fill="#5A2E9F"/>
<path d="M1224.06 235.728C1219.7 239.693 1213.79 242.446 1207.09 242.446C1199.8 242.446 1193.2 239.486 1188.42 234.694C1183.64 239.486 1177.03 242.446 1169.74 242.446C1156.45 242.446 1145.47 232.617 1143.6 219.82C1143.01 219.876 1142.42 219.914 1141.82 219.914C1129.64 219.914 1119.76 210.01 1119.76 197.795C1119.76 193.445 1121.02 189.386 1123.2 185.965C1133.5 178.552 1146.03 174.154 1159.61 174.06C1194.35 173.797 1222.76 201.281 1224.08 235.728H1224.06Z" fill="#5A2E9F"/>
<path d="M1102.1 296.579V303.316C1102.1 303.551 1102.33 303.72 1102.56 303.636C1102.56 303.636 1109.24 301.944 1115.9 300.262V296.569H1102.1V296.579Z" fill="#7139CB"/>
<path d="M1102.1 292.007H1121.83V288.098L1102.1 284.79V292.007Z" fill="#5A2E9F"/>
<path d="M1143.19 247.33L1118.55 255.72L1103.35 234.852H1134.26L1143.19 247.33Z" fill="#7139CB"/>
<path d="M1157.54 317.769L1139.02 337.942C1136.46 337.942 1134.39 335.866 1134.39 333.3V322.42C1134.39 319.855 1132.31 317.778 1129.76 317.778H1157.55L1157.54 317.769Z" fill="#5A2E9F"/>
<path d="M1118.47 246.913V243.032C1118.47 242.177 1119.16 241.481 1120.02 241.481H1131.41C1133.15 241.481 1133.56 243.934 1131.9 244.498L1120.51 248.379C1119.51 248.717 1118.47 247.975 1118.47 246.913Z" fill="#9C62FF"/>
<path d="M1241.2 169.493C1240.69 169.493 1240.19 169.531 1239.7 169.568C1239.7 169.55 1239.7 169.54 1239.7 169.521C1239.7 154.901 1227.87 143.043 1213.28 143.043C1205.99 143.043 1199.38 146.003 1194.6 150.804C1189.82 146.012 1183.21 143.043 1175.91 143.043C1161.33 143.043 1149.5 154.901 1149.5 169.521C1149.5 169.54 1149.5 169.55 1149.5 169.568C1149 169.531 1148.5 169.493 1148 169.493C1135.81 169.493 1125.93 179.397 1125.93 191.612C1125.93 203.827 1135.81 213.73 1148 213.73C1148.6 213.73 1149.19 213.683 1149.78 213.636C1151.64 226.434 1162.63 236.262 1175.91 236.262C1183.21 236.262 1189.82 233.303 1194.6 228.501C1199.38 233.293 1205.99 236.262 1213.28 236.262C1226.56 236.262 1236.7 225.438 1237.93 215.863C1238.52 215.91 1239.11 215.92 1239.71 215.957C1251.86 216.671 1263.26 203.827 1263.26 191.612C1263.26 179.397 1253.38 169.493 1241.2 169.493Z" fill="#F7C325"/>
<path d="M1241.2 169.493C1240.69 169.493 1240.19 169.531 1239.7 169.568C1239.7 169.55 1239.7 169.54 1239.7 169.521C1239.7 154.901 1227.87 143.043 1213.28 143.043C1205.99 143.043 1199.38 146.003 1194.6 150.804C1189.82 146.012 1183.21 143.043 1175.91 143.043C1167.07 143.043 1159.25 147.403 1154.46 154.083C1158.8 150.955 1164.11 149.113 1169.86 149.113C1177.15 149.113 1183.76 152.073 1188.54 156.874C1193.32 152.082 1199.93 149.113 1207.22 149.113C1221.81 149.113 1233.64 160.971 1233.64 175.591C1233.64 175.61 1233.64 175.619 1233.64 175.638C1234.14 175.601 1234.63 175.563 1235.14 175.563C1247.33 175.563 1257.21 185.467 1257.21 197.682C1257.21 202.239 1255.6 207.538 1251.99 212.208C1257.9 208.243 1263.26 200.237 1263.26 191.612C1263.26 179.397 1253.38 169.493 1241.2 169.493Z" fill="#FCE49D"/>
<path d="M1221.06 224.35C1213.97 224.35 1207.56 221.475 1202.92 216.814C1198.28 221.465 1191.86 224.35 1184.78 224.35C1171.88 224.35 1161.21 214.804 1159.4 202.382C1158.83 202.429 1158.25 202.466 1157.66 202.466C1145.83 202.466 1136.23 192.854 1136.23 180.987C1136.23 180.968 1136.23 180.949 1136.23 180.93C1136.23 179.549 1134.4 179.107 1133.8 180.357C1132.51 183.026 1131.79 186.023 1131.79 189.18C1131.79 200.493 1140.94 209.654 1152.22 209.654C1152.77 209.654 1153.32 209.617 1153.87 209.57C1155.59 221.418 1165.77 230.514 1178.06 230.514C1184.82 230.514 1190.93 227.77 1195.36 223.335C1199.78 227.77 1205.9 230.514 1212.65 230.514C1217.73 230.514 1222.45 228.954 1226.35 226.286C1227.48 225.515 1226.79 223.72 1225.44 223.955C1224.01 224.209 1222.55 224.341 1221.05 224.341L1221.06 224.35Z" fill="#D6A513"/>
<path d="M1247.05 243.537C1252.84 243.537 1257.53 238.838 1257.53 233.041C1257.53 227.244 1252.84 222.545 1247.05 222.545C1241.27 222.545 1236.58 227.244 1236.58 233.041C1236.58 238.838 1241.27 243.537 1247.05 243.537Z" fill="#F7C325"/>
<path d="M1242.22 232.048C1242.69 235.036 1245.08 237.432 1248.06 237.902C1249.61 238.146 1251.08 237.883 1252.34 237.254C1252.95 236.944 1253.56 237.695 1253.12 238.222C1251.48 240.195 1248.9 241.36 1246.07 241.041C1242.44 240.627 1239.49 237.677 1239.08 234.031C1238.76 231.193 1239.92 228.609 1241.89 226.964C1242.41 226.523 1243.16 227.133 1242.85 227.744C1242.23 229.013 1241.96 230.488 1242.21 232.038L1242.22 232.048Z" fill="#D6A513"/>
<path d="M1247.05 268.549C1252.84 268.549 1257.53 263.85 1257.53 258.053C1257.53 252.256 1252.84 247.557 1247.05 247.557C1241.27 247.557 1236.58 252.256 1236.58 258.053C1236.58 263.85 1241.27 268.549 1247.05 268.549Z" fill="#F7C325"/>
<path d="M1242.22 257.06C1242.69 260.048 1245.08 262.444 1248.06 262.914C1249.61 263.158 1251.08 262.895 1252.34 262.265C1252.95 261.955 1253.56 262.707 1253.12 263.233C1251.48 265.207 1248.9 266.372 1246.07 266.052C1242.44 265.639 1239.49 262.688 1239.08 259.042C1238.76 256.204 1239.92 253.62 1241.89 251.976C1242.41 251.534 1243.16 252.145 1242.85 252.756C1242.23 254.024 1241.96 255.5 1242.21 257.05L1242.22 257.06Z" fill="#D6A513"/>
<path d="M1221.47 268.549C1227.25 268.549 1231.94 263.85 1231.94 258.053C1231.94 252.256 1227.25 247.557 1221.47 247.557C1215.69 247.557 1211 252.256 1211 258.053C1211 263.85 1215.69 268.549 1221.47 268.549Z" fill="#F7C325"/>
<path d="M1216.62 257.06C1217.09 260.048 1219.48 262.444 1222.46 262.914C1224.02 263.158 1225.49 262.895 1226.75 262.265C1227.36 261.955 1227.97 262.707 1227.53 263.233C1225.89 265.207 1223.31 266.372 1220.48 266.052C1216.85 265.639 1213.9 262.688 1213.48 259.042C1213.17 256.204 1214.33 253.62 1216.3 251.976C1216.82 251.534 1217.57 252.145 1217.26 252.756C1216.63 254.024 1216.37 255.5 1216.62 257.05L1216.62 257.06Z" fill="#D6A513"/>
<path d="M1167.41 189.844L1182.75 174.462L1178.82 170.516L1159.54 189.844L1178.82 209.171L1182.75 205.225L1167.41 189.844Z" fill="#4D4D4D"/>
<path d="M1224.67 189.844L1209.32 205.225L1213.26 209.171L1232.54 189.844L1213.26 170.516L1209.32 174.462L1224.67 189.844Z" fill="#4D4D4D"/>
<path d="M1199.41 167.334L1187.35 207.479L1192.68 209.088L1204.74 168.943L1199.41 167.334Z" fill="#4D4D4D"/>
<path d="M1178.81 170.505L1177.27 172.053L1181.21 176L1182.75 174.451L1178.81 170.505Z" fill="black"/>
<path d="M1167.4 189.839L1165.86 191.387L1181.21 206.769L1182.75 205.221L1167.4 189.839Z" fill="black"/>
<path d="M1213.25 170.518L1211.71 172.066L1230.99 191.394L1232.53 189.846L1213.25 170.518Z" fill="black"/>
<path d="M1204.74 168.945L1204.19 170.787L1198.85 169.18L1199.4 167.329L1204.74 168.945Z" fill="black"/>
<path d="M1102.41 244.569L1088.85 275.915C1085.67 275.539 1083.91 272.172 1085.12 269.46L1095.53 245.678C1095.7 245.321 1095.81 244.955 1095.89 244.569H1102.41Z" fill="#B588FF"/>
<path d="M1102.1 280.692V280.598C1102.1 278.033 1100.03 275.947 1097.47 275.947H1089.38C1086.62 275.947 1084.62 273.598 1084.75 271.061H1115.86L1102.1 280.692Z" fill="#5A2E9F"/>
<path d="M1177.54 250.653H1184.64V274.717C1184.64 278.174 1181.84 280.974 1178.4 280.974H1177.54V250.644L1177.54 250.653Z" fill="#7139CB"/>
<path d="M1166.55 274.688H1184.63C1184.63 278.165 1181.82 280.984 1178.35 280.984H1166.55V274.688Z" fill="#5A2E9F"/>
<path d="M1113.25 234.852H1103.35L1108.17 241.467H1117.98L1113.25 234.852Z" fill="#5A2E9F"/>
<path d="M1103.35 228.876V234.834H1096.19C1096.29 233.18 1096.46 231.535 1096.68 229.919C1096.73 229.571 1096.79 229.224 1096.84 228.876H1103.35Z" fill="#B588FF"/>
</g>
<path d="M1101.02 406.957V394.317H1095.7V392.537H1108.28V394.317H1102.96V406.957H1101.02ZM1110.26 406.957V392.537H1112.06V398.157C1112.74 397.177 1114.04 396.637 1115.3 396.637C1117.64 396.637 1119.14 397.877 1119.14 400.257V406.957H1117.34V400.557C1117.34 399.177 1116.62 398.237 1114.9 398.237C1113.34 398.237 1112.06 399.257 1112.06 400.897V406.957H1110.26ZM1122.11 406.957V396.837H1123.91V406.957H1122.11ZM1121.99 394.937V392.857H1124.03V394.937H1121.99ZM1127.03 406.957V396.837H1128.79V398.217C1129.47 397.197 1130.79 396.637 1132.07 396.637C1134.41 396.637 1135.91 397.877 1135.91 400.257V406.957H1134.11V400.557C1134.11 399.177 1133.39 398.237 1131.67 398.237C1130.11 398.237 1128.83 399.257 1128.83 400.897V406.957H1127.03ZM1138.89 406.957V392.537H1140.69V400.817H1142.13L1145.29 396.837H1147.41L1143.63 401.537L1147.55 406.957H1145.37L1142.15 402.397H1140.69V406.957H1138.89ZM1149.53 406.957V396.837H1151.33V406.957H1149.53ZM1149.41 394.937V392.857H1151.45V394.937H1149.41ZM1154.46 406.957V396.837H1156.22V398.217C1156.9 397.197 1158.22 396.637 1159.5 396.637C1161.84 396.637 1163.34 397.877 1163.34 400.257V406.957H1161.54V400.557C1161.54 399.177 1160.82 398.237 1159.1 398.237C1157.54 398.237 1156.26 399.257 1156.26 400.897V406.957H1154.46ZM1170.55 411.277C1168.35 411.277 1166.51 410.237 1166.05 408.057L1167.79 407.797C1168.21 409.197 1169.41 409.737 1170.55 409.737C1172.41 409.737 1173.67 408.917 1173.67 406.817V405.437C1173.05 406.417 1171.91 406.937 1170.39 406.937C1167.63 406.937 1165.71 405.237 1165.71 401.917C1165.71 398.577 1167.55 396.637 1170.47 396.637C1171.77 396.637 1172.93 397.117 1173.61 398.017V396.837H1175.37V406.837C1175.37 410.077 1173.33 411.277 1170.55 411.277ZM1167.53 401.877C1167.53 404.077 1168.67 405.397 1170.55 405.397C1172.53 405.397 1173.61 404.037 1173.61 402.377V401.057C1173.61 399.157 1172.23 398.177 1170.59 398.177C1168.73 398.177 1167.53 399.657 1167.53 401.877ZM1182.99 406.957V396.837H1184.79V406.957H1182.99ZM1182.87 394.937V392.857H1184.91V394.937H1182.87ZM1187.91 406.957V396.837H1189.67V398.217C1190.35 397.197 1191.67 396.637 1192.95 396.637C1195.29 396.637 1196.79 397.877 1196.79 400.257V406.957H1194.99V400.557C1194.99 399.177 1194.27 398.237 1192.55 398.237C1190.99 398.237 1189.71 399.257 1189.71 400.897V406.957H1187.91ZM1210.66 407.177C1206.52 407.177 1203.9 404.397 1203.9 399.777C1203.9 395.037 1206.62 392.337 1210.68 392.337C1214.14 392.337 1216.24 394.017 1216.8 397.037L1214.94 397.337C1214.5 395.457 1213.28 394.077 1210.68 394.077C1207.52 394.077 1205.88 396.357 1205.88 399.777C1205.88 403.197 1207.56 405.437 1210.66 405.437C1213.28 405.437 1214.58 404.077 1215 402.177L1216.82 402.457C1216.24 405.517 1214.12 407.177 1210.66 407.177ZM1223.68 407.177C1220.78 407.177 1218.84 405.257 1218.84 401.897C1218.84 398.517 1220.78 396.637 1223.68 396.637C1226.58 396.637 1228.52 398.517 1228.52 401.897C1228.52 405.257 1226.58 407.177 1223.68 407.177ZM1220.66 401.897C1220.66 404.197 1221.74 405.597 1223.68 405.597C1225.62 405.597 1226.7 404.197 1226.7 401.897C1226.7 399.597 1225.62 398.217 1223.68 398.217C1221.74 398.217 1220.66 399.597 1220.66 401.897ZM1235.1 407.177C1232.34 407.177 1230.44 405.257 1230.44 401.897C1230.44 398.557 1232.38 396.637 1235.26 396.637C1236.52 396.637 1237.66 397.117 1238.32 397.917V392.537H1240.12V406.957H1238.38V405.657C1237.74 406.617 1236.6 407.177 1235.1 407.177ZM1232.26 401.877C1232.26 404.017 1233.34 405.577 1235.3 405.577C1237.28 405.577 1238.32 404.237 1238.32 402.317V401.357C1238.32 399.277 1237.04 398.217 1235.38 398.217C1233.48 398.217 1232.26 399.617 1232.26 401.877ZM1247.31 407.177C1244.61 407.177 1242.65 405.417 1242.65 401.897C1242.65 398.377 1244.77 396.637 1247.45 396.637C1250.11 396.637 1251.91 398.397 1251.91 401.377C1251.91 401.757 1251.91 402.097 1251.89 402.297H1244.37C1244.47 404.497 1245.59 405.617 1247.31 405.617C1248.87 405.617 1249.73 404.757 1250.05 403.797L1251.65 404.137C1251.23 405.837 1249.73 407.177 1247.31 407.177ZM1244.43 400.917H1250.19C1250.15 399.337 1249.17 398.157 1247.45 398.157C1245.83 398.157 1244.71 399.097 1244.43 400.917Z" fill="black"/>
<rect x="593.219" y="644.769" width="365.563" height="370.011" rx="32.4512" fill="white"/>
<rect x="593.219" y="644.769" width="365.563" height="370.011" rx="32.4512" stroke="#E5E5E5" stroke-width="2.70426"/>
<rect width="200" height="200" transform="translate(676 678.77)" fill="white"/>
<path fill-rule="evenodd" clip-rule="evenodd" d="M691.608 693.183C686.667 693.183 682.662 697.188 682.662 702.129V729.434C682.662 729.467 682.662 729.5 682.663 729.533L682.663 797.058C682.663 801.999 686.668 806.004 691.609 806.004H694.41C699.351 806.004 703.356 801.999 703.356 797.058L703.356 738.38H860.393C865.334 738.38 869.339 734.375 869.339 729.434V702.129C869.339 697.188 865.334 693.183 860.393 693.183H691.608Z" fill="#D7A613"/>
<path fill-rule="evenodd" clip-rule="evenodd" d="M682.886 729.531L682.886 729.533L682.886 797.058C682.886 801.876 686.792 805.781 691.609 805.781H694.41C699.227 805.781 703.132 801.876 703.132 797.058L703.132 738.156H860.393C865.21 738.156 869.116 734.251 869.116 729.434V702.129C869.116 697.311 865.21 693.406 860.393 693.406H691.608C686.791 693.406 682.886 697.311 682.886 702.129V729.434L682.886 729.531ZM703.356 738.38H860.393C865.334 738.38 869.339 734.375 869.339 729.434V702.129C869.339 697.188 865.334 693.183 860.393 693.183H691.608C686.667 693.183 682.662 697.188 682.662 702.129V729.434L682.663 729.533L682.663 797.058C682.663 801.999 686.668 806.004 691.609 806.004H694.41C699.351 806.004 703.356 801.999 703.356 797.058L703.356 738.38Z" fill="#F7C325"/>
<path fill-rule="evenodd" clip-rule="evenodd" d="M694.52 679.763C694.483 679.763 694.447 679.763 694.41 679.763L691.609 679.763C688.796 679.763 686.286 681.061 684.646 683.091C683.405 684.627 682.662 686.582 682.662 688.71V716.015C682.662 716.048 682.662 716.081 682.663 716.114L682.663 783.639C682.663 788.579 686.668 792.585 691.609 792.585H694.41C699.351 792.585 703.356 788.579 703.356 783.639L703.356 724.961H860.393C865.334 724.961 869.339 720.955 869.339 716.015V688.71C869.339 683.769 865.334 679.763 860.393 679.763H694.52Z" fill="#FDF3D3"/>
<path fill-rule="evenodd" clip-rule="evenodd" d="M694.502 682.682L694.485 682.682L694.41 682.682H691.609C689.715 682.682 688.026 683.552 686.916 684.926C686.08 685.961 685.581 687.273 685.581 688.71V716.015L685.581 716.082L685.581 716.098L685.581 783.639C685.581 786.967 688.28 789.666 691.609 789.666H694.41C697.739 789.666 700.437 786.967 700.437 783.639L700.437 722.042H860.393C863.722 722.042 866.42 719.343 866.42 716.015V688.71C866.42 685.381 863.722 682.682 860.393 682.682H694.502ZM703.356 724.961H860.393C865.334 724.961 869.339 720.955 869.339 716.015V688.71C869.339 683.769 865.334 679.763 860.393 679.763H694.52C694.483 679.763 694.447 679.763 694.41 679.763H691.609C688.796 679.763 686.286 681.061 684.646 683.091C683.405 684.627 682.662 686.582 682.662 688.71V716.015L682.663 716.114L682.663 783.639C682.663 788.579 686.668 792.585 691.609 792.585H694.41C699.351 792.585 703.356 788.579 703.356 783.639L703.356 724.961Z" fill="#F7C325"/>
<path d="M770.535 697.949H714.973V706.627H770.535V697.949Z" fill="#F7C325"/>
<path d="M858.687 697.949H803.125V706.627H858.687V697.949Z" fill="#F7C325"/>
<path fill-rule="evenodd" clip-rule="evenodd" d="M796.416 696.366L794.664 694.974L786.834 704.828L779.004 694.974L777.252 696.366L786.834 708.425L796.416 696.366Z" fill="#D7A613"/>
<path fill-rule="evenodd" clip-rule="evenodd" d="M704.586 696.736H693.738V694.499H706.822V702.362H704.586V696.736Z" fill="#D7A613"/>
<path fill-rule="evenodd" clip-rule="evenodd" d="M695.748 707.839V702.204H693.512V710.076H706.596V707.839H695.748Z" fill="#D7A613"/>
<path fill-rule="evenodd" clip-rule="evenodd" d="M709.534 700.148L705.706 703.966L701.887 700.147L703.468 698.566L705.708 700.805L707.955 698.564L709.534 700.148Z" fill="#D7A613"/>
<path fill-rule="evenodd" clip-rule="evenodd" d="M694.629 700.621L698.459 704.451L696.877 706.033L694.631 703.786L692.392 706.031L690.809 704.452L694.629 700.621Z" fill="#D7A613"/>
<path fill-rule="evenodd" clip-rule="evenodd" d="M685.581 716.097L685.581 783.639C685.581 786.967 688.28 789.666 691.609 789.666H694.41C697.739 789.666 700.437 786.967 700.437 783.639L700.437 722.041H860.393C863.722 722.041 866.42 719.343 866.42 716.014V688.709C866.42 685.38 863.722 682.682 860.393 682.682H691.609C688.28 682.682 685.581 685.38 685.581 688.709V716.014L685.581 716.082L685.581 716.097ZM703.356 724.96H860.393C865.334 724.96 869.339 720.955 869.339 716.014V688.709C869.339 683.768 865.334 679.763 860.393 679.763H691.609C686.668 679.763 682.662 683.768 682.662 688.709V716.014L682.663 716.113L682.663 783.639C682.663 788.579 686.668 792.585 691.609 792.585H694.41C699.351 792.585 703.356 788.579 703.356 783.639L703.356 724.96Z" fill="#F7C325"/>
<path d="M699.132 764.222C698.444 759.33 701.853 754.806 706.746 754.118L810.654 739.515C815.547 738.827 820.071 742.236 820.759 747.129L825.039 777.584C825.726 782.477 822.317 787.001 817.425 787.688L713.516 802.292C708.623 802.979 704.1 799.57 703.412 794.678L699.132 764.222Z" fill="#874DE5"/>
<mask id="mask1_184_71143" style="mask-type:alpha" maskUnits="userSpaceOnUse" x="699" y="739" width="127" height="64">
<path d="M699.132 764.222C698.444 759.33 701.853 754.806 706.746 754.118L810.654 739.515C815.547 738.827 820.071 742.236 820.759 747.129L825.039 777.584C825.726 782.477 822.317 787.001 817.425 787.688L713.516 802.292C708.623 802.979 704.1 799.57 703.412 794.678L699.132 764.222Z" fill="#874DE5"/>
</mask>
<g mask="url(#mask1_184_71143)">
<path d="M811.564 771.296C811.056 769.899 809.51 765.653 808.25 762.189C807.265 759.482 808.721 756.498 811.462 755.61C814.068 754.765 816.875 756.135 817.813 758.709C818.144 759.62 818.47 760.515 818.731 761.232C817.823 758.739 819.228 755.938 821.768 755.014C824.308 754.089 827.185 755.331 828.092 757.825L833.702 773.237C833.744 773.353 833.781 773.469 833.814 773.586L833.827 773.581C835.638 778.558 835.399 784.05 833.16 788.85C830.922 793.649 826.869 797.363 821.893 799.174C816.916 800.986 811.424 800.746 806.625 798.508C801.825 796.27 798.111 792.217 796.3 787.24L796.314 787.235C794.725 782.871 795.413 777.559 801 775.526L802.089 775.129L798.636 765.644C797.716 763.115 799.02 760.319 801.549 759.398C803.963 758.52 806.644 759.665 807.666 762.022C809.131 765.4 811.029 769.824 811.564 771.296Z" fill="#5A2EA3"/>
</g>
<path d="M697.265 750.933C696.577 746.041 699.986 741.517 704.879 740.829L808.787 726.226C813.68 725.538 818.204 728.947 818.891 733.84L823.172 764.295C823.859 769.188 820.45 773.712 815.558 774.399L711.649 789.003C706.756 789.69 702.232 786.281 701.545 781.389L697.265 750.933Z" fill="#B689FF"/>
<path d="M715.392 759.392L803.424 747.02L804.913 757.613L716.881 769.985L715.392 759.392Z" fill="#874DE5"/>
<path d="M814.495 773.466C814.495 771.979 814.495 767.461 814.495 763.775C814.495 760.894 816.885 758.589 819.764 758.691C822.502 758.788 824.671 761.036 824.671 763.776C824.671 764.745 824.671 765.697 824.671 766.46C824.671 763.807 826.95 761.656 829.652 761.656C832.355 761.656 834.633 763.807 834.633 766.46L834.633 782.862C834.633 782.985 834.629 783.107 834.62 783.228L834.633 783.228C834.633 788.524 832.53 793.603 828.785 797.347C825.04 801.092 819.961 803.196 814.665 803.196C809.37 803.196 804.291 801.092 800.546 797.347C796.801 793.603 795.496 789.367 795.496 784.071C795.496 779.428 799.732 773.841 804.28 773.466L804.28 763.734C804.28 761.042 806.461 758.861 809.153 758.861C811.721 758.861 813.849 760.854 814.003 763.418C814.225 767.093 814.495 771.9 814.495 773.466Z" fill="#5A2EA3"/>
<path d="M813.654 760.175L813.717 760.348C812.441 759.394 810.723 759.081 809.114 759.667C806.577 760.591 805.269 763.396 806.192 765.933L809.347 774.601C805.286 776.49 803.277 781.206 804.837 785.493L805.189 786.461L805.175 786.466C807.055 791.631 810.909 795.837 815.89 798.16C820.871 800.483 826.571 800.732 831.736 798.852C836.9 796.972 841.106 793.118 843.429 788.137C845.752 783.155 846.001 777.456 844.121 772.291L844.113 772.294C844.086 772.204 844.057 772.115 844.024 772.026L838.136 755.847C837.212 753.31 834.407 752.002 831.87 752.925C831.288 753.137 830.77 753.448 830.33 753.833C829.046 752.3 826.895 751.654 824.908 752.378C823.482 752.896 822.445 754.009 821.973 755.335C820.687 753.823 818.55 753.19 816.576 753.909C814.039 754.833 812.731 757.638 813.654 760.175Z" fill="white"/>
<path fill-rule="evenodd" clip-rule="evenodd" d="M814.501 759.411C815.163 760.358 816.142 761.823 817.076 763.359C818.052 764.963 819.039 766.74 819.534 768.102C819.799 768.83 819.424 769.635 818.696 769.9C817.967 770.165 817.162 769.79 816.897 769.062C816.504 767.983 815.647 766.411 814.678 764.817C813.783 763.346 812.843 761.938 812.211 761.035C811.977 760.882 811.62 760.774 811.095 760.773C810.486 760.773 809.775 760.921 809.077 761.175C807.268 761.833 806.336 763.833 806.994 765.642L812.526 780.841C812.791 781.569 812.415 782.374 811.687 782.639C810.959 782.905 810.153 782.529 809.888 781.801L808.065 776.792C806.898 777.524 806.055 778.388 805.577 779.454C804.936 780.884 804.819 782.973 805.984 786.173C807.737 790.989 811.324 794.912 815.966 797.077C820.61 799.242 825.924 799.475 830.739 797.722C835.553 795.97 839.475 792.376 841.64 787.732C843.799 783.102 843.979 777.84 842.99 772.455C842.516 769.874 840.905 765.984 839.34 762.626C838.569 760.973 837.828 759.49 837.281 758.419C837.007 757.885 836.782 757.454 836.626 757.158C836.548 757.009 836.487 756.895 836.445 756.818L836.399 756.731L836.385 756.705L836.335 756.613L836.3 756.516C835.642 754.708 833.642 753.775 831.833 754.433C831.778 754.453 831.724 754.475 831.67 754.497C832.931 756.92 834.605 760.666 835.232 762.388C835.497 763.116 835.122 763.922 834.393 764.187C833.665 764.452 832.86 764.076 832.595 763.348C831.913 761.476 829.836 756.89 828.663 754.838C827.74 753.805 826.248 753.384 824.871 753.885C824.073 754.176 823.445 754.727 823.049 755.409C823.828 756.631 824.857 758.287 825.811 759.902C826.919 761.777 828.008 763.736 828.42 764.867C828.685 765.596 828.31 766.401 827.581 766.666C826.853 766.931 826.048 766.556 825.783 765.827C825.476 764.986 824.534 763.26 823.395 761.329C822.308 759.489 821.116 757.588 820.331 756.369C819.408 755.336 817.916 754.916 816.539 755.417C814.765 756.063 813.956 757.684 814.501 759.411ZM821.055 753.35C821.761 752.421 822.733 751.677 823.911 751.248C826.034 750.475 828.301 750.917 829.954 752.216C830.245 752.054 830.551 751.913 830.873 751.796C834.105 750.619 837.675 752.257 838.9 755.456L838.921 755.495C838.964 755.576 839.028 755.695 839.108 755.848C839.269 756.153 839.5 756.594 839.779 757.141C840.338 758.233 841.094 759.748 841.884 761.44C843.439 764.775 845.203 768.968 845.751 771.948C846.804 777.684 846.67 783.587 844.184 788.919C841.704 794.237 837.213 798.353 831.698 800.36C826.184 802.367 820.098 802.101 814.78 799.621C809.46 797.14 805.353 792.646 803.346 787.133C802.036 783.533 801.971 780.636 803.016 778.306C803.869 776.405 805.372 775.081 807.088 774.108L804.356 766.602C803.168 763.336 804.851 759.726 808.117 758.537C809.028 758.206 810.073 757.965 811.098 757.966C811.242 757.967 811.389 757.972 811.536 757.982C811.682 755.666 813.187 753.65 815.579 752.779C817.469 752.092 819.472 752.366 821.055 753.35Z" fill="#5A2EA3"/>
<rect x="179.061" y="644.768" width="365.563" height="370.011" rx="32.4512" fill="white"/>
<rect x="179.061" y="644.768" width="365.563" height="370.011" rx="32.4512" stroke="#E5E5E5" stroke-width="2.70426"/>
<path d="M382.855 791.411C378.295 791.483 374.569 791.518 370.01 791.554L369.176 817.016C373.877 816.998 378.579 816.944 383.263 816.873L382.873 791.411H382.855Z" fill="#5A2EA3"/>
<path d="M412.822 730.6H412.698C408.298 730.421 403.88 730.296 399.462 730.171V755.632C403.543 755.74 407.624 755.883 411.704 756.026C420.167 756.455 427.069 763.464 427.069 772.887C427.069 782.31 420.167 790.213 411.687 790.642C406.648 790.838 401.574 790.999 396.57 791.125L397.227 816.568C402.354 816.443 407.553 816.264 412.698 816.067H412.822C434.929 815.03 452.299 794.647 452.334 772.869C452.299 751.144 434.947 731.619 412.822 730.582V730.6Z" fill="#874DE5"/>
<path d="M452.336 772.886C452.3 794.647 434.931 815.03 412.824 816.067H412.7C407.555 816.264 402.356 816.425 397.229 816.568L397.016 810.614C402.001 810.488 407.785 810.328 412.718 810.131H412.842C436.9 808.986 452.123 789.408 452.123 768.631C452.283 770.043 452.354 771.456 452.354 772.886H452.336Z" fill="#5A2EA3"/>
<path d="M419.883 797.796C421.25 795.042 421.445 791.824 423.379 789.75C425.046 787.979 428.417 787.354 429.979 784.993C431.93 782.544 429.092 778.163 426.803 775.964C425.472 783.885 419.209 790.25 411.704 790.626C406.665 790.822 401.591 790.983 396.588 791.108L396.89 797.921C405.69 797.831 415.324 806.986 419.901 797.778L419.883 797.796Z" fill="#B689FF"/>
<path d="M311.018 734.786C310.912 734.786 310.823 734.786 310.735 734.786L310.291 760.265C315.986 760.265 320.83 763.501 320.83 773.8C320.83 785.565 320.652 791.555 320.741 797.044L346.006 796.651C345.935 792.342 346.006 781.274 346.13 769.527C346.308 750.019 330.375 734.195 311.018 734.786Z" fill="#874DE5"/>
<path d="M346.131 769.526C346.131 770.51 346.131 783.956 346.113 784.939C341.979 787.335 342.884 786.459 339.371 784.939C335.166 782.4 351.666 772.441 328.655 764.055C320.848 761.212 316.59 758.494 317.459 751.199C317.512 750.699 317.601 750.18 317.708 749.626C317.796 749.143 317.974 748.571 318.204 747.927C319.34 744.584 321.629 739.452 320.262 735.769C324.964 736.949 329.293 739.112 333.001 742.045C339.814 747.426 344.569 755.365 345.811 764.448C346.042 766.111 346.148 767.792 346.148 769.526H346.131Z" fill="#B689FF"/>
<path d="M345.796 764.448C342.141 764.287 339.018 763.697 335.488 762.23C331.992 760.782 329.083 758.1 327.539 754.631C327.45 754.435 327.362 754.22 327.273 754.006C326.404 751.663 326.688 749.071 328.746 746.371C330.059 744.797 330.857 743.259 332.968 742.062C339.781 747.443 344.536 755.382 345.778 764.465L345.796 764.448Z" fill="#874DE5"/>
<path d="M318.188 747.927C317.975 748.571 317.797 749.143 317.691 749.626C317.584 750.18 317.496 750.698 317.442 751.199C315.455 750.788 313.486 750.359 311.552 749.912C311.197 749.84 311.038 749.339 311.357 749.304C312.741 749.125 314.142 749.179 315.526 749C314.089 748.32 312.528 747.498 311.179 746.729C310.842 746.532 310.825 746.067 311.179 746.157C313.557 746.818 315.899 747.408 318.17 747.909L318.188 747.927Z" fill="#5A2EA3"/>
<path d="M333.977 753.773C329.169 753.433 323.314 752.414 317.459 751.198C317.512 750.697 317.601 750.179 317.707 749.624C317.796 749.142 317.974 748.569 318.204 747.926C324.059 749.213 329.453 749.857 333.959 749.535V753.773H333.977Z" fill="#874DE5"/>
<path d="M310.965 742.992C319.499 745.388 327.466 746.8 333.729 746.353V750.591C327.306 750.126 318.985 748.463 311.338 746.729C310.983 746.657 310.823 746.157 311.143 746.121C312.527 745.96 313.928 745.996 315.312 745.835C313.875 745.155 312.296 744.315 310.965 743.564C310.611 743.367 310.611 742.902 310.965 742.992Z" fill="#F7C325"/>
<path d="M402.923 753.863L377.658 754.257C377.729 758.727 377.765 759.835 377.8 764.323L403.065 763.483C403.047 758.852 402.994 758.476 402.923 753.863Z" fill="#381D66"/>
<path d="M312.439 790.661C312.297 790.661 312.137 790.661 311.995 790.661C303.532 790.231 296.63 783.419 296.63 775.498C296.63 767.524 301.403 760.711 309.884 760.282C310.026 760.282 310.185 760.282 310.327 760.282L310.771 734.803C310.292 734.803 309.795 734.838 309.316 734.856H309.192C287.067 735.876 271.383 753.702 271.348 775.48C271.383 797.205 288.735 815.031 310.86 816.068H310.984C327.892 816.712 344.96 817.034 361.975 817.034C364.388 817.034 366.783 817.034 371.29 816.998L372.124 791.537C351.117 791.644 331.245 791.34 312.439 790.643V790.661Z" fill="#874DE5"/>
<path d="M371.556 811.062L371.272 816.998C366.765 816.998 364.37 817.034 361.957 817.034C344.96 817.034 327.874 816.712 310.966 816.068H310.842C288.753 815.031 271.383 797.205 271.348 775.48C271.348 773.996 271.419 772.53 271.561 771.1C271.561 793.629 290.154 809.167 310.842 810.132H310.966C327.874 810.776 344.942 811.098 361.957 811.098C364.175 811.098 367.12 811.098 371.556 811.08V811.062Z" fill="#5A2EA3"/>
<path d="M301.242 763.805C301.242 763.805 304.329 760.265 310.308 760.265C316.288 760.265 319.126 763.877 320.155 767.882C320.155 767.882 320.83 754.525 310.362 754.525C301.189 754.525 301.242 763.805 301.242 763.805Z" fill="#5A2EA3"/>
<path d="M286.837 768.31C289.978 775.319 283.466 780.183 284.318 786.137C285.666 793.647 295.176 791.268 302.362 786.977C298.866 784.152 296.631 780.022 296.613 775.498C296.613 770.867 298.228 766.647 301.244 763.822C301.847 763.268 300.108 754.936 294.75 753.076C287.689 750.645 282.668 759.013 286.837 768.31Z" fill="#B689FF"/>
<path d="M326.172 799.779C331.228 797.24 338.804 794.683 341.323 799.779C343.843 803.176 348.899 804.017 351.437 802.318C355.641 799.779 358.179 797.222 364.069 794.683C365.453 794.218 366.322 792.985 366.429 791.554C350.425 791.536 334.386 791.232 318.489 790.642C318.347 790.642 318.188 790.642 318.046 790.642C317.088 790.589 316.147 790.446 315.225 790.249C315.225 790.321 315.225 790.392 315.225 790.464C315.225 797.258 319.43 803.194 326.172 799.797V799.779Z" fill="#B689FF"/>
<path d="M372.123 796.721L299.824 796.721C297.18 796.721 295.033 794.557 295.033 791.893C295.033 789.229 297.18 787.065 299.824 787.065L372.123 787.065V796.721Z" fill="#5A2EA3"/>
<path d="M366.429 791.571C366.322 793.002 365.453 794.236 364.069 794.701C362.525 795.362 361.195 796.042 360.024 796.703L316.609 796.703C315.704 794.933 315.225 792.734 315.225 790.445C315.225 790.374 315.225 790.302 315.225 790.23C316.129 790.427 317.07 790.57 318.046 790.624C318.205 790.624 318.347 790.624 318.489 790.624C334.386 791.214 350.443 791.5 366.429 791.536V791.571Z" fill="#874DE5"/>
<path d="M402.64 739.792L377.393 740.454C377.322 738.773 377.287 736.985 377.251 735.197C377.056 727.562 376.648 719.337 372.283 713.973C366.464 706.821 354.559 707.429 348.722 711.13C343.239 714.599 339.46 719.158 336.089 725.56C334.386 728.796 331.813 731.263 329.347 731.228H328.957C325.852 731.174 323.563 727.884 323.811 723.736C325.249 699.955 341.802 685.562 362.081 685.562C392.314 685.562 402.179 710.54 402.179 724.201C402.356 729.368 402.534 734.625 402.676 739.792H402.64Z" fill="#874DE5"/>
<path d="M377.394 735.375L377.252 735.214C377.057 727.579 376.649 719.354 372.284 713.99C366.465 706.838 354.56 707.446 348.722 711.147C343.24 714.616 339.461 719.175 336.09 725.577C339.461 719.175 342.761 710.664 349.148 706.481C356.068 701.939 366.89 702.171 372.71 709.323C378.121 715.957 377.039 726.524 377.412 735.375H377.394Z" fill="#5A2EA3"/>
<path d="M347.072 692.553C349.627 694.484 354.116 696.021 356.972 694.716C360.645 693.035 364.992 689.227 369.303 690.55C373.615 691.873 372.124 694.323 376.489 698.417C380.853 702.512 387.471 699.866 390.7 696.647C384.402 690.246 375.14 685.562 362.064 685.562C354.613 685.562 347.675 687.51 341.803 691.14C342.761 691.176 344.517 690.622 347.072 692.553Z" fill="#B689FF"/>
<path d="M387.349 791.769L303.747 791.769C301.121 791.769 298.992 789.623 298.992 786.977V782.811L392.104 782.811V786.977C392.104 789.623 389.974 791.769 387.349 791.769Z" fill="#666666"/>
<path d="M392.102 787.049C392.102 789.659 390.008 791.769 387.418 791.769L303.674 791.769C301.084 791.769 298.99 789.659 298.99 787.049L392.084 787.049H392.102Z" fill="#141414"/>
<path d="M313.906 679.472L299 782.824L294.909 782.225C292.31 781.844 290.51 779.412 290.887 776.793L304.426 682.925C304.804 680.306 307.217 678.492 309.815 678.872L313.906 679.472Z" fill="#333333"/>
<path d="M294.838 782.204C292.283 781.829 290.509 779.433 290.881 776.858L304.437 682.844C304.809 680.269 307.187 678.481 309.741 678.856L294.838 782.204Z" fill="#666666"/>
<path d="M333.748 782.811H324.025V781.344C324.025 780.879 324.398 780.504 324.859 780.504H332.896C333.358 780.504 333.73 780.879 333.73 781.344V782.811H333.748Z" fill="#141414"/>
<path d="M344.232 782.811H334.51V781.344C334.51 780.879 334.882 780.504 335.344 780.504H343.381C343.842 780.504 344.215 780.879 344.215 781.344V782.811H344.232Z" fill="#141414"/>
<path d="M354.699 782.811H344.976V781.344C344.976 780.879 345.349 780.504 345.81 780.504H353.848C354.309 780.504 354.681 780.879 354.681 781.344V782.811H354.699Z" fill="#141414"/>
<path d="M365.166 782.811H355.443V781.344C355.443 780.879 355.816 780.504 356.277 780.504H364.314C364.776 780.504 365.148 780.879 365.148 781.344V782.811H365.166Z" fill="#141414"/>
<path d="M323.277 782.811H313.555V781.344C313.555 780.879 313.927 780.504 314.388 780.504H322.426C322.887 780.504 323.26 780.879 323.26 781.344V782.811H323.277Z" fill="#141414"/>
<path d="M312.795 782.811H303.072V781.344C303.072 780.879 303.445 780.504 303.906 780.504H311.943C312.405 780.504 312.777 780.879 312.777 781.344V782.811H312.795Z" fill="#141414"/>
<path d="M303.089 787.049H316.857V782.811H303.089V787.049Z" fill="#808080"/>
<path d="M307.752 787.049H311.957V782.811H307.752V787.049Z" fill="#999999"/>
<path d="M304.231 684.203L302.307 697.545L306.837 698.208L308.761 684.867L304.231 684.203Z" fill="#808080"/>
<path d="M303.615 688.476L302.977 692.899L307.506 693.563L308.144 689.139L303.615 688.476Z" fill="#999999"/>
<path d="M403.066 763.5L377.801 764.34C377.907 783.276 377.624 805.715 376.932 824.579H402.197C402.871 805.715 403.155 782.417 403.048 763.5H403.066Z" fill="#874DE5"/>
<path d="M367.688 727.758C346.823 727.507 347.55 732.675 341.766 735.232C337.366 737.181 332.469 736.805 330.18 742.098C327.892 747.39 328.087 749.178 332.984 752.826C338.998 757.296 350.247 758.083 358.692 758.208C370.544 758.387 385.483 756.026 403.083 756.026L411.316 730.547C385.554 730.547 383.052 727.937 367.67 727.758H367.688Z" fill="#874DE5"/>
<path d="M393.289 737.413C387.54 738.986 382.857 735.285 376.789 735.696C373.169 735.947 372.105 732.085 371.342 727.829C380.479 728.222 403.189 730.297 403.189 730.297C401.042 733.336 396.287 736.126 393.289 737.431V737.413Z" fill="#B689FF"/>
<path d="M349.749 743.492C351.992 743.492 353.811 741.659 353.811 739.397C353.811 737.136 351.992 735.303 349.749 735.303C347.505 735.303 345.686 737.136 345.686 739.397C345.686 741.659 347.505 743.492 349.749 743.492Z" fill="#EBE0FF"/>
<path d="M346.217 737.359C346.625 736.626 347.246 736.072 347.938 735.732C348.329 735.625 348.737 735.607 349.145 735.679C350.884 736 351.966 737.967 351.576 740.077C351.238 741.865 349.926 743.17 348.471 743.314C348.222 743.224 347.956 743.117 347.725 742.974C345.774 741.847 345.1 739.344 346.217 737.377V737.359Z" fill="#381D66"/>
<path d="M427.071 767.793C427.071 768.651 427.018 769.491 426.894 770.332C425.776 762.214 419.389 756.403 411.689 756.027C408.868 755.92 403.084 756.027 403.084 756.027C385.483 756.027 370.544 758.388 358.693 758.209C350.229 758.084 338.981 757.297 332.984 752.827C328.797 749.698 328.052 747.946 329.365 744.173C329.365 746.068 330.323 747.23 332.132 748.589C338.147 753.059 354.08 753.471 362.543 753.471C375.193 753.471 392.083 750.52 407.466 750.52C419.566 750.52 427.053 758.388 427.053 767.81L427.071 767.793Z" fill="#5A2EA3"/>
<rect x="1003" y="644.77" width="365.563" height="370.011" rx="32.4512" fill="white"/>
<rect x="1003" y="644.77" width="365.563" height="370.011" rx="32.4512" stroke="#E5E5E5" stroke-width="2.70426"/>
<g clip-path="url(#clip3_184_71143)">
<path d="M1205.97 742.036C1191.73 742.036 1180.19 730.496 1180.19 716.261C1180.19 702.026 1191.73 690.486 1205.97 690.486C1220.2 690.486 1231.74 702.026 1231.74 716.261C1231.74 730.496 1220.2 742.036 1205.97 742.036Z" fill="#B588FF"/>
<path d="M1199.15 721.157L1217.59 702.733L1258.32 710.768L1266.35 751.506L1258.22 759.642L1242.07 727.023L1199.15 721.157Z" fill="#F7C325"/>
<path d="M1197.15 690.486H1205.96V742.036H1197.15V690.486Z" fill="#B588FF"/>
<path d="M1199.15 721.156L1205.13 715.189L1248.04 721.047L1264.19 753.666L1258.22 759.641L1242.07 727.022L1199.15 721.156Z" fill="#926D00"/>
<path d="M1201.5 742.036C1187.27 742.036 1175.73 730.496 1175.73 716.261C1175.73 702.026 1187.27 690.486 1201.5 690.486C1215.74 690.486 1227.28 702.026 1227.28 716.261C1227.28 730.496 1215.74 742.036 1201.5 742.036Z" fill="#B588FF"/>
<path d="M1108.05 767.27L1160.61 831.183C1167.66 839.75 1180.44 840.67 1188.65 833.192C1196.84 825.715 1197.11 812.895 1189.23 805.088L1130.43 746.863C1124.69 741.183 1115.52 740.998 1109.55 746.433C1103.58 751.868 1102.92 761.025 1108.06 767.262L1108.05 767.27Z" fill="#9C62FF"/>
<path d="M1185.99 830.998C1192.82 824.769 1193.04 814.076 1186.47 807.569L1144.93 766.435" stroke="#B588FF" stroke-width="7.39842" stroke-miterlimit="10"/>
<path d="M1105.36 762.164C1106.32 758.948 1108.38 756.054 1111.4 754.104L1126.8 744.188C1128.13 744.88 1129.38 745.766 1130.49 746.871L1150.05 766.392L1125.63 778.478C1123.59 779.49 1119.98 779.972 1118.18 779.533L1108.12 767.27C1106.84 765.717 1105.92 763.978 1105.36 762.164Z" fill="#381D66"/>
<path d="M1125.81 770.645L1188.02 739.865C1197.61 735.122 1201.24 723.29 1195.96 713.989C1190.69 704.681 1178.67 701.727 1169.67 707.516L1111.32 745.098C1104.83 749.276 1102.73 757.8 1106.54 764.518L1106.69 764.779C1110.5 771.497 1118.88 774.071 1125.81 770.645H1125.81Z" fill="#9C62FF"/>
<path d="M1195.97 713.99C1201.25 723.299 1197.62 735.123 1188.03 739.874L1178.59 744.55C1169.39 738.507 1163.32 728.101 1163.32 716.268C1163.32 714.614 1163.45 712.985 1163.68 711.399L1169.69 707.525C1178.69 701.735 1190.7 704.689 1195.98 713.998L1195.97 713.99Z" fill="#381D66"/>
<path d="M1258.35 786.504C1258.35 784.158 1236.09 784.158 1236.09 786.504C1236.09 788.85 1235.71 790.749 1233.55 792.226H1260.88C1258.73 790.741 1258.35 788.842 1258.35 786.504Z" fill="#381D66"/>
<path d="M1247.21 789.545C1234.99 789.545 1225.08 779.637 1225.08 767.416C1225.08 755.194 1234.99 745.287 1247.21 745.287C1259.43 745.287 1269.34 755.194 1269.34 767.416C1269.34 779.637 1259.43 789.545 1247.21 789.545Z" fill="#864DE4"/>
<path d="M1257.08 766.916H1264.68C1264.68 757.447 1256.97 749.741 1247.51 749.741V757.337C1252.79 757.337 1257.08 761.633 1257.08 766.916Z" fill="#9C62FF"/>
<path d="M1257.78 752.979L1262.65 758.518L1256.94 763.534L1252.07 757.995L1257.78 752.979Z" fill="#B588FF"/>
<path d="M1252.7 783.178C1240.97 783.178 1231.45 773.667 1231.45 761.936C1231.45 756.703 1233.35 751.918 1236.48 748.213C1229.7 751.977 1225.09 759.201 1225.09 767.514C1225.09 779.701 1234.97 789.584 1247.16 789.584C1255.53 789.584 1262.8 784.917 1266.54 778.047C1262.82 781.246 1257.99 783.187 1252.7 783.187V783.178Z" fill="#381D66"/>
<path d="M1184.2 736.111L1202.62 717.688L1208.49 760.603L1241.11 776.748L1232.97 784.884L1192.24 776.849L1184.2 736.111Z" fill="#F7C325"/>
<path d="M1184.2 736.109L1190.17 730.143L1198.21 770.881L1238.94 778.915L1232.97 784.882L1192.24 776.848L1184.2 736.109Z" fill="#926D00"/>
<path d="M1117.71 765.988C1114.34 765.988 1111.6 763.252 1111.6 759.878C1111.6 756.503 1114.34 753.768 1117.71 753.768C1121.09 753.768 1123.82 756.503 1123.82 759.878C1123.82 763.252 1121.09 765.988 1117.71 765.988Z" fill="#381D66"/>
<path d="M1117.78 751.185L1126.41 759.82L1122.01 764.224L1113.37 755.589L1117.78 751.185Z" fill="#381D66"/>
<path d="M1121.59 762.104C1118.22 762.104 1115.48 759.369 1115.48 755.994C1115.48 752.619 1118.22 749.884 1121.59 749.884C1124.97 749.884 1127.7 752.619 1127.7 755.994C1127.7 759.369 1124.97 762.104 1121.59 762.104Z" fill="#F7C325"/>
<path d="M1206.67 747.294C1203.66 748.222 1200.46 748.72 1197.15 748.72C1193.35 748.72 1189.71 748.062 1186.33 746.863L1184.21 736.111L1202.63 717.688L1206.67 747.294Z" fill="#5C4400"/>
<path d="M1197.14 742.036C1182.9 742.036 1171.36 730.496 1171.36 716.261C1171.36 702.026 1182.9 690.486 1197.14 690.486C1211.37 690.486 1222.91 702.026 1222.91 716.261C1222.91 730.496 1211.37 742.036 1197.14 742.036Z" fill="#9C62FF"/>
<path d="M1192.07 731.502C1186.45 731.502 1181.9 726.945 1181.9 721.324C1181.9 715.702 1186.45 711.146 1192.07 711.146C1197.7 711.146 1202.25 715.702 1202.25 721.324C1202.25 726.945 1197.7 731.502 1192.07 731.502Z" fill="#381D66"/>
<path d="M1184.85 714.156L1190.78 708.224L1205.18 722.618L1199.25 728.55L1184.85 714.156Z" fill="#381D66"/>
<path d="M1197.14 726.441C1191.51 726.441 1186.96 721.884 1186.96 716.263C1186.96 710.642 1191.51 706.085 1197.14 706.085C1202.76 706.085 1207.31 710.642 1207.31 716.263C1207.31 721.884 1202.76 726.441 1197.14 726.441Z" fill="#F7C325"/>
<path d="M1225.82 724.801L1230.08 725.383C1230.08 725.383 1227.43 732.886 1221.6 736.751C1221.6 736.751 1223.59 731.637 1224.52 729.004C1225.45 726.371 1225.82 724.801 1225.82 724.801Z" fill="#381D66"/>
</g>
<rect width="146.572" height="53.1826" rx="9.97835" transform="matrix(0.995831 -0.0912187 0.0890566 0.996027 156.984 93.0488)" fill="#9D62FF"/>
<path d="M181.502 107.454L185.244 113.965L192.244 116.522L185.812 120.309L183.285 127.394L179.543 120.884L172.544 118.326L178.976 114.539L181.502 107.454Z" fill="white"/>
<path d="M199.677 122.34L198.401 107.977L208.818 107.029L209.066 109.818L201.836 110.476L202.133 113.823L208.984 113.199L209.225 115.908L202.373 116.532L202.864 122.05L199.677 122.34ZM219.419 120.765C215.216 121.147 211.998 119.05 211.552 114.03C211.104 108.99 213.903 106.365 218.106 105.983C222.328 105.599 225.525 107.677 225.972 112.718C226.418 117.738 223.641 120.38 219.419 120.765ZM214.799 113.734C215.052 116.583 216.638 118.166 219.167 117.936C221.697 117.706 222.979 115.862 222.726 113.013C222.471 110.144 220.887 108.581 218.357 108.812C215.828 109.042 214.544 110.866 214.799 113.734ZM229.203 119.653L227.927 105.29L234.401 104.701C237.568 104.413 239.743 105.621 240.042 108.987C240.24 111.219 239.386 112.682 237.772 113.492L241.472 118.537L237.907 118.861L234.604 114.222L231.955 114.463L232.39 119.363L229.203 119.653ZM231.716 111.773L234.604 111.511C236.297 111.356 236.914 110.617 236.795 109.283C236.67 107.868 235.939 107.332 234.246 107.486L231.358 107.749L231.716 111.773ZM252.235 117.558L251.768 112.298L245.283 103.711L249.027 103.37L253.149 109.08L256.198 102.718L259.843 102.386L254.955 112.008L255.422 117.268L252.235 117.558ZM268.474 116.301C264.271 116.683 261.053 114.586 260.607 109.566C260.159 104.526 262.958 101.902 267.161 101.519C271.383 101.135 274.58 103.214 275.028 108.254C275.473 113.274 272.696 115.917 268.474 116.301ZM263.854 109.271C264.107 112.119 265.693 113.702 268.223 113.472C270.752 113.242 272.034 111.398 271.781 108.549C271.526 105.681 269.942 104.118 267.412 104.348C264.883 104.578 263.599 106.402 263.854 109.271ZM284.472 114.845C280.25 115.229 277.967 113.489 277.602 109.385L276.843 100.839L280.01 100.551L280.776 109.177C280.957 111.209 281.929 112.205 284.219 111.996C286.43 111.795 287.131 110.647 286.951 108.615L286.184 99.9889L289.351 99.7008L290.11 108.247C290.475 112.351 288.734 114.457 284.472 114.845Z" fill="white"/>
</g>
<defs>
<filter id="filter0_d_184_71143" x="125.839" y="47.8366" width="462.434" height="462.533" filterUnits="userSpaceOnUse" color-interpolation-filters="sRGB">
<feFlood flood-opacity="0" result="BackgroundImageFix"/>
<feColorMatrix in="SourceAlpha" type="matrix" values="0 0 0 0 0 0 0 0 0 0 0 0 0 0 0 0 0 0 127 0" result="hardAlpha"/>
<feOffset/>
<feGaussianBlur stdDeviation="30.5749"/>
<feComposite in2="hardAlpha" operator="out"/>
<feColorMatrix type="matrix" values="0 0 0 0 0.615686 0 0 0 0 0.384314 0 0 0 0 1 0 0 0 0.5 0"/>
<feBlend mode="normal" in2="BackgroundImageFix" result="effect1_dropShadow_184_71143"/>
<feBlend mode="normal" in="SourceGraphic" in2="effect1_dropShadow_184_71143" result="shape"/>
</filter>
<clipPath id="clip0_184_71143">
<rect width="1600" height="792" fill="white"/>
</clipPath>
<clipPath id="clip1_184_71143">
<rect width="255" height="200" fill="white" transform="translate(229.998 140.604)"/>
</clipPath>
<clipPath id="clip2_184_71143">
<rect width="178.52" height="194.914" fill="white" transform="translate(1084.74 143.043)"/>
</clipPath>
<clipPath id="clip3_184_71143">
<rect width="205.108" height="205.125" fill="white" transform="matrix(-1 0 0 1 1288.34 690.486)"/>
</clipPath>
</defs>
</svg>
