<svg width="1600" height="792" viewBox="0 0 1600 792" fill="none" xmlns="http://www.w3.org/2000/svg">
<g clip-path="url(#clip0_186_72890)">
<path d="M553.075 192.534C513.821 215.574 450.177 215.574 410.923 192.534C371.669 169.493 371.669 132.137 410.923 109.097C450.177 86.0563 513.821 86.0563 553.075 109.097C592.329 132.137 592.329 169.493 553.075 192.534Z" fill="#666666"/>
<path d="M490.346 92.0189C484.792 91.7489 479.207 91.7489 473.653 92.0189L402.481 186.915C405.058 188.866 407.872 190.744 410.923 192.535C450.177 215.575 513.821 215.575 553.075 192.535C556.127 190.744 558.941 188.866 561.518 186.915L490.346 92.0189Z" fill="white" fill-opacity="0.2"/>
<path d="M424.83 171.698C456.404 190.472 507.595 190.472 539.169 171.698C570.743 152.924 570.743 122.486 539.169 103.712C507.595 84.9384 456.404 84.9384 424.83 103.712C393.256 122.486 393.256 152.924 424.83 171.698Z" fill="#B3B3B3"/>
<g filter="url(#filter0_f_186_72890)">
<path d="M435.645 111.437C461.245 96.93 502.752 96.93 528.352 111.437C553.953 125.944 553.953 149.464 528.352 163.971C502.752 178.478 461.245 178.478 435.645 163.971C410.044 149.464 410.044 125.944 435.645 111.437Z" fill="white"/>
</g>
<path d="M435.645 111.437C461.245 96.93 502.752 96.93 528.352 111.437C553.953 125.944 553.953 149.464 528.352 163.971C502.752 178.478 461.245 178.478 435.645 163.971C410.044 149.464 410.044 125.944 435.645 111.437Z" fill="white"/>
<mask id="mask0_186_72890" style="mask-type:alpha" maskUnits="userSpaceOnUse" x="401" y="89" width="162" height="97">
<path d="M424.83 171.697C456.404 190.471 507.595 190.471 539.169 171.697C570.743 152.923 570.743 122.485 539.169 103.711C507.595 84.9374 456.404 84.9374 424.83 103.711C393.256 122.485 393.256 152.923 424.83 171.697Z" fill="#E5E5E5"/>
</mask>
<g mask="url(#mask0_186_72890)">
<path d="M477.629 100.639C462.337 101.214 447.333 104.811 435.645 111.435C410.045 125.941 410.045 149.462 435.645 163.969C447.333 170.592 462.337 174.189 477.629 174.765V165.999C466.26 165.441 455.162 162.706 446.461 157.788C426.834 146.695 426.834 128.709 446.461 117.615C455.162 112.697 466.26 109.962 477.629 109.404V100.639Z" fill="#999999"/>
</g>
<mask id="mask1_186_72890" style="mask-type:alpha" maskUnits="userSpaceOnUse" x="401" y="89" width="162" height="97">
<path d="M424.83 171.697C456.404 190.471 507.595 190.471 539.169 171.697C570.743 152.923 570.743 122.485 539.169 103.711C507.595 84.9374 456.404 84.9374 424.83 103.711C393.256 122.485 393.256 152.923 424.83 171.697Z" fill="#E5E5E5"/>
</mask>
<g mask="url(#mask1_186_72890)">
<mask id="path-9-outside-1_186_72890" maskUnits="userSpaceOnUse" x="477.369" y="90.6377" width="79" height="94" fill="black">
<rect fill="white" x="477.369" y="90.6377" width="79" height="94"/>
<path d="M486.369 100.638C501.66 101.213 516.664 104.811 528.352 111.434C553.952 125.941 553.952 149.461 528.352 163.968C516.664 170.591 501.661 174.188 486.369 174.764V165.998C497.738 165.44 508.835 162.705 517.536 157.787C537.163 146.694 537.163 128.708 517.536 117.614C508.835 112.697 497.738 109.961 486.369 109.403V100.638Z"/>
</mask>
<path d="M486.369 100.638C501.66 101.213 516.664 104.811 528.352 111.434C553.952 125.941 553.952 149.461 528.352 163.968C516.664 170.591 501.661 174.188 486.369 174.764V165.998C497.738 165.44 508.835 162.705 517.536 157.787C537.163 146.694 537.163 128.708 517.536 117.614C508.835 112.697 497.738 109.961 486.369 109.403V100.638Z" fill="#999999"/>
<path d="M486.369 100.638L486.698 91.9033L477.629 91.5619V100.638H486.369ZM528.352 111.434L532.661 103.829L532.661 103.829L528.352 111.434ZM528.352 163.968L532.661 171.572L532.661 171.572L528.352 163.968ZM486.369 174.764H477.629V183.839L486.698 183.498L486.369 174.764ZM486.369 165.998L485.941 157.268L477.629 157.676V165.998H486.369ZM517.536 157.787L521.837 165.396L521.837 165.396L517.536 157.787ZM517.536 117.614L521.837 110.005L521.837 110.005L517.536 117.614ZM486.369 109.403H477.629V117.726L485.941 118.133L486.369 109.403ZM486.369 100.638L486.04 109.372C500.304 109.909 513.858 113.267 524.042 119.038L528.352 111.434L532.661 103.829C519.469 96.3541 503.017 92.5176 486.698 91.9033L486.369 100.638ZM528.352 111.434L524.042 119.038C535.288 125.41 538.811 132.5 538.811 137.701C538.811 142.901 535.288 149.991 524.042 156.363L528.352 163.968L532.661 171.572C547.016 163.438 556.293 151.514 556.293 137.701C556.293 123.888 547.016 111.964 532.661 103.829L528.352 111.434ZM528.352 163.968L524.042 156.363C513.858 162.134 500.304 165.492 486.04 166.029L486.369 174.764L486.698 183.498C503.017 182.884 519.469 179.047 532.661 171.572L528.352 163.968ZM486.369 174.764H495.11V165.998H486.369H477.629V174.764H486.369ZM486.369 165.998L486.797 174.728C499.168 174.121 511.673 171.141 521.837 165.396L517.536 157.787L513.235 150.178C505.998 154.269 496.308 156.759 485.941 157.268L486.369 165.998ZM517.536 157.787L521.837 165.396C533.2 158.974 540.997 149.288 540.997 137.701C540.997 126.113 533.2 116.428 521.837 110.005L517.536 117.614L513.235 125.223C521.499 129.894 523.516 134.748 523.516 137.701C523.516 140.653 521.499 145.507 513.235 150.178L517.536 157.787ZM517.536 117.614L521.837 110.005C511.673 104.26 499.168 101.28 486.797 100.673L486.369 109.403L485.941 118.133C496.308 118.642 505.998 121.133 513.235 125.224L517.536 117.614ZM486.369 109.403H495.11V100.638H486.369H477.629V109.403H486.369Z" fill="#B3B3B3" mask="url(#path-9-outside-1_186_72890)"/>
<path d="M517.538 157.789C497.911 168.883 466.09 168.883 446.462 157.789C426.835 146.696 426.835 128.71 446.462 117.616C466.09 106.523 497.911 106.523 517.538 117.616C537.166 128.71 537.166 146.696 517.538 157.789Z" fill="#B3B3B3"/>
<path d="M501.228 130.201L496.639 126.777L477.366 141.244L469.106 135.217L464.518 138.303L477.366 147.755L501.228 130.201Z" fill="white"/>
</g>
<path d="M539.169 103.711C507.595 84.9374 456.404 84.9374 424.83 103.711C393.256 122.485 393.256 152.923 424.83 171.697C456.404 190.47 507.595 190.47 539.169 171.697C570.743 152.923 570.743 122.485 539.169 103.711ZM435.645 111.437C461.246 96.9298 502.752 96.9298 528.353 111.437C553.954 125.944 553.954 149.464 528.353 163.971C502.752 178.478 461.246 178.478 435.645 163.971C410.045 149.464 410.045 125.944 435.645 111.437Z" fill="#B3B3B3"/>
<path d="M486.369 100.555C501.661 101.13 516.664 104.728 528.352 111.351C553.952 125.858 553.952 149.378 528.352 163.885C516.664 170.508 501.66 174.105 486.369 174.681V165.916C497.738 165.358 508.835 162.623 517.536 157.705C537.163 146.612 537.163 128.625 517.536 117.531C508.835 112.613 497.738 109.877 486.369 109.319V100.555Z" fill="white" fill-opacity="0.6"/>
<path d="M477.629 100.555C462.337 101.13 447.333 104.727 435.645 111.351C410.045 125.857 410.045 149.378 435.645 163.885C447.333 170.508 462.337 174.105 477.629 174.681V165.916C466.26 165.358 455.162 162.623 446.461 157.705C426.834 146.612 426.834 128.625 446.461 117.531C455.162 112.613 466.26 109.877 477.629 109.319V100.555Z" fill="white" fill-opacity="0.6"/>
<g style="mix-blend-mode:color">
<path d="M529.565 98.823C501.304 86.5678 462.697 86.5684 434.435 98.823C425.988 101.488 418.053 104.912 410.923 109.096C371.669 132.137 371.669 169.493 410.923 192.534C450.177 215.574 513.821 215.574 553.075 192.534C592.329 169.493 592.329 132.137 553.075 109.096C545.946 104.912 538.012 101.488 529.565 98.823Z" fill="#FF8D23"/>
</g>
<path d="M362.737 343.295C312.706 312.575 231.59 312.575 181.559 343.295C131.529 374.016 131.529 423.824 181.559 454.544C231.59 485.265 312.706 485.265 362.737 454.544C412.767 423.824 412.767 374.016 362.737 343.295ZM192.687 350.672C236.574 324.779 307.728 324.779 351.615 350.672C395.501 376.565 395.501 418.546 351.615 444.439C307.728 470.332 236.574 470.332 192.687 444.439C148.8 418.546 148.8 376.565 192.687 350.672Z" fill="url(#paint0_linear_186_72890)"/>
<g style="mix-blend-mode:color">
<path d="M362.737 343.295C312.706 312.575 231.59 312.575 181.559 343.295C131.529 374.016 131.529 423.824 181.559 454.544C231.59 485.265 312.706 485.265 362.737 454.544C412.767 423.824 412.767 374.016 362.737 343.295ZM192.687 350.672C236.574 324.779 307.728 324.779 351.615 350.672C395.501 376.565 395.501 418.546 351.615 444.439C307.728 470.332 236.574 470.332 192.687 444.439C148.8 418.546 148.8 376.565 192.687 350.672Z" fill="#FF8D23"/>
</g>
<path d="M342.741 438.237C303.487 461.277 239.843 461.277 200.589 438.237C161.335 415.196 161.335 377.84 200.589 354.8C239.843 331.759 303.487 331.759 342.741 354.8C381.995 377.84 381.995 415.196 342.741 438.237Z" fill="#666666"/>
<path d="M279.667 337.705C274.342 337.457 268.991 337.457 263.666 337.705L192.363 432.777C194.882 434.669 197.623 436.494 200.59 438.236C239.844 461.276 303.488 461.276 342.742 438.236C345.71 436.494 348.452 434.67 350.971 432.777L279.667 337.705Z" fill="white" fill-opacity="0.2"/>
<path d="M214.496 417.4C246.07 436.174 297.261 436.174 328.835 417.4C360.409 398.626 360.409 368.188 328.835 349.414C297.261 330.641 246.07 330.641 214.496 349.414C182.922 368.188 182.922 398.626 214.496 417.4Z" fill="#B3B3B3"/>
<g filter="url(#filter1_f_186_72890)">
<path d="M225.311 357.14C250.911 342.633 292.418 342.633 318.018 357.14C343.619 371.647 343.619 395.167 318.018 409.674C292.418 424.181 250.911 424.181 225.311 409.674C199.71 395.167 199.71 371.647 225.311 357.14Z" fill="white"/>
</g>
<path d="M225.311 357.14C250.911 342.633 292.418 342.633 318.018 357.14C343.619 371.647 343.619 395.167 318.018 409.674C292.418 424.181 250.911 424.181 225.311 409.674C199.71 395.167 199.71 371.647 225.311 357.14Z" fill="white"/>
<g style="mix-blend-mode:color">
<path d="M319.236 344.527C290.972 332.269 252.358 332.27 224.094 344.528C215.649 347.192 207.717 350.616 200.589 354.8C161.335 377.84 161.335 415.196 200.589 438.236C239.843 461.277 303.487 461.277 342.741 438.236C381.995 415.196 381.995 377.84 342.741 354.8C335.613 350.616 327.681 347.192 319.236 344.527Z" fill="#FF8D23"/>
</g>
<path fill-rule="evenodd" clip-rule="evenodd" d="M335.227 285.293V285.288C335.222 272.523 327.137 265.658 322.355 262.745C311.216 255.96 299.829 244.029 293.888 233.839C291.66 230.016 284.729 221.924 271.857 221.924C258.986 221.924 252.055 230.021 249.827 233.839C243.886 244.029 232.499 255.96 221.36 262.745C216.578 265.653 208.493 272.518 208.488 285.283V285.288C208.488 285.288 208.488 285.288 208.488 285.298C208.493 298.063 216.578 304.928 221.36 307.841C232.499 314.626 243.886 326.557 249.827 336.747C252.055 340.569 258.986 348.662 271.857 348.662C284.729 348.662 291.66 340.565 293.888 336.747C299.829 326.557 311.216 314.626 322.355 307.841C327.137 304.928 335.222 298.063 335.227 285.298V285.293Z" fill="#29CC57"/>
<path fill-rule="evenodd" clip-rule="evenodd" d="M335.227 285.293V285.288C335.222 272.523 327.137 265.658 322.355 262.745C311.216 255.96 299.829 244.029 293.888 233.839C291.66 230.016 284.729 221.924 271.857 221.924C258.986 221.924 252.055 230.021 249.827 233.839C243.886 244.029 232.499 255.96 221.36 262.745C216.578 265.653 208.493 272.518 208.488 285.283V285.288C208.488 285.288 208.488 285.288 208.488 285.298C208.493 298.063 216.578 304.928 221.36 307.841C232.499 314.626 243.886 326.557 249.827 336.747C252.055 340.569 258.986 348.662 271.857 348.662C284.729 348.662 291.66 340.565 293.888 336.747C299.829 326.557 311.216 314.626 322.355 307.841C327.137 304.928 335.222 298.063 335.227 285.298V285.293Z" fill="url(#paint1_linear_186_72890)" fill-opacity="0.6"/>
<path d="M298.4 275.287C298.4 265.024 290.08 256.703 279.816 256.703H263.985C253.721 256.703 245.4 265.024 245.4 275.287V291.703H298.4V275.287Z" fill="white"/>
<path d="M260.4 291.746H283.444V268.703H260.4V291.746Z" fill="black"/>
<path d="M552.593 683.902C513.338 706.942 449.695 706.942 410.441 683.902C371.186 660.861 371.186 623.505 410.441 600.465C449.695 577.424 513.338 577.424 552.593 600.465C591.847 623.505 591.847 660.861 552.593 683.902Z" fill="#999999"/>
<path d="M424.347 663.065C455.921 681.839 507.113 681.839 538.687 663.065C570.261 644.291 570.261 613.853 538.687 595.079C507.113 576.306 455.921 576.306 424.347 595.079C392.773 613.853 392.773 644.291 424.347 663.065Z" fill="#E5E5E5"/>
<path d="M489.519 583.371C484.194 583.123 478.842 583.123 473.518 583.371L402.215 678.442C404.733 680.335 407.474 682.16 410.441 683.902C449.696 706.942 513.34 706.942 552.594 683.902C555.561 682.16 558.303 680.335 560.822 678.442L489.519 583.371Z" fill="white" fill-opacity="0.2"/>
<path d="M435.162 602.805C460.763 588.298 502.269 588.298 527.87 602.805C553.47 617.312 553.47 640.833 527.87 655.339C502.269 669.846 460.763 669.846 435.162 655.339C409.562 640.833 409.562 617.312 435.162 602.805Z" fill="white"/>
<path d="M477.629 581.057C458.252 581.608 439.145 586.283 424.347 595.082C409.794 603.735 401.949 614.866 400.812 626.19C399.482 639.435 407.327 652.945 424.347 663.065C427.71 665.065 431.297 666.85 435.058 668.424C435.271 668.513 435.485 668.601 435.7 668.689C436.027 668.823 436.354 668.956 436.684 669.087C436.898 669.172 437.113 669.256 437.328 669.34C437.673 669.474 438.02 669.606 438.367 669.736C438.536 669.8 438.705 669.863 438.874 669.926C439.194 670.044 439.515 670.162 439.838 670.277C440.604 670.552 441.376 670.818 442.153 671.076C442.425 671.166 442.698 671.256 442.971 671.344C443.753 671.596 444.54 671.839 445.333 672.075C445.684 672.18 446.036 672.283 446.39 672.384C446.651 672.459 446.914 672.533 447.177 672.606C447.45 672.683 447.723 672.758 447.997 672.832C448.248 672.9 448.5 672.967 448.752 673.033C449.173 673.144 449.595 673.253 450.019 673.359C450.111 673.383 450.204 673.406 450.297 673.429C452.376 673.945 454.483 674.409 456.614 674.818C461.598 675.775 466.707 676.436 471.864 676.803C473.781 676.939 475.703 677.034 477.629 677.089V657.395C466.091 656.892 454.803 654.149 445.979 649.161C426.352 638.068 426.352 620.081 445.979 608.987C454.803 604 466.091 601.256 477.629 600.753V581.057Z" fill="#CCCCCC"/>
<path d="M517.053 608.985C497.426 597.892 465.604 597.892 445.977 608.985C426.35 620.079 426.35 638.065 445.977 649.158C465.604 660.252 497.426 660.252 517.053 649.158C536.68 638.065 536.68 620.079 517.053 608.985Z" fill="#E5E5E5"/>
<path d="M538.685 595.08C521.908 585.105 499.594 580.429 477.627 581.054V609.077L485.892 609.527C496.099 610.083 505.619 612.565 512.753 616.597C521.016 621.268 523.033 626.122 523.033 629.075C523.033 632.028 521.016 636.882 512.753 641.552C505.619 645.584 496.1 648.065 485.892 648.622L477.627 649.072V677.089C480.539 677.172 483.457 677.159 486.367 677.055V657.349C497.568 656.739 508.476 654.01 517.054 649.162C536.68 638.068 536.68 620.081 517.054 608.988C508.476 604.139 497.568 601.41 486.367 600.799V581.091C505.413 581.768 524.133 586.43 538.686 595.083C551.175 602.509 558.724 611.761 561.332 621.394C558.724 611.76 551.176 602.507 538.685 595.08ZM486.681 677.045C487.087 677.029 487.493 677.012 487.898 676.993C487.493 677.012 487.087 677.029 486.681 677.045ZM488.521 676.963C488.919 676.942 489.316 676.92 489.714 676.896C489.316 676.92 488.919 676.942 488.521 676.963ZM490.378 676.853C490.778 676.827 491.178 676.801 491.577 676.771C491.178 676.801 490.778 676.827 490.378 676.853ZM495.206 676.454C494.153 676.561 493.098 676.653 492.04 676.735C493.098 676.653 494.153 676.561 495.206 676.454ZM499.919 675.886C498.519 676.08 497.112 676.251 495.699 676.4C497.112 676.251 498.519 676.08 499.919 675.886ZM500.616 675.79C500.919 675.746 501.221 675.7 501.522 675.654C501.221 675.7 500.919 675.746 500.616 675.79ZM502.427 675.516C502.733 675.468 503.038 675.417 503.344 675.366C503.038 675.417 502.733 675.468 502.427 675.516ZM504.245 675.213C504.574 675.156 504.902 675.096 505.23 675.037C504.902 675.096 504.574 675.156 504.245 675.213ZM506.002 674.895C506.306 674.838 506.61 674.779 506.913 674.719C506.61 674.779 506.306 674.838 506.002 674.895ZM507.89 674.525C508.148 674.472 508.406 674.417 508.664 674.363C508.406 674.417 508.148 674.472 507.89 674.525ZM509.733 674.131C509.955 674.083 510.176 674.034 510.396 673.984C510.176 674.034 509.955 674.083 509.733 674.131ZM511.49 673.73C511.787 673.66 512.083 673.59 512.379 673.517C512.083 673.59 511.787 673.66 511.49 673.73ZM512.659 673.448C513.127 673.332 513.593 673.214 514.058 673.092C513.593 673.214 513.127 673.332 512.659 673.448ZM514.383 673.006C514.81 672.893 515.236 672.778 515.661 672.661C515.236 672.778 514.81 672.894 514.383 673.006ZM516.159 672.521C516.564 672.407 516.968 672.292 517.37 672.173C516.968 672.292 516.564 672.407 516.159 672.521ZM517.814 672.041C518.152 671.94 518.489 671.838 518.824 671.734C518.489 671.838 518.152 671.94 517.814 672.041ZM519.463 671.534C519.805 671.426 520.146 671.317 520.485 671.206C520.146 671.317 519.805 671.426 519.463 671.534ZM520.882 671.076C521.282 670.943 521.679 670.807 522.076 670.671C521.679 670.807 521.282 670.943 520.882 671.076ZM522.518 670.518C522.883 670.39 523.247 670.259 523.609 670.128C523.247 670.259 522.883 670.39 522.518 670.518ZM524.212 669.907C524.561 669.777 524.909 669.647 525.256 669.514C524.909 669.647 524.561 669.778 524.212 669.907ZM525.85 669.284C526.181 669.154 526.511 669.025 526.84 668.892C526.511 669.025 526.181 669.154 525.85 669.284ZM527.503 668.62C527.689 668.543 527.874 668.466 528.06 668.388C527.874 668.466 527.689 668.543 527.503 668.62ZM529.106 667.942C529.245 667.882 529.383 667.821 529.521 667.76C529.383 667.821 529.245 667.882 529.106 667.942ZM530.612 667.272C530.792 667.19 530.971 667.109 531.149 667.026C530.971 667.109 530.792 667.19 530.612 667.272ZM561.436 621.784C561.81 623.242 562.07 624.709 562.219 626.178C562.071 624.709 561.81 623.242 561.436 621.784Z" fill="#E5E5E5"/>
<path d="M486.367 600.799C497.568 601.409 508.476 604.139 517.054 608.987C536.68 620.081 536.68 638.068 517.054 649.161C508.476 654.01 497.568 656.738 486.367 657.349V677.055C486.468 677.051 486.57 677.048 486.671 677.044C498.381 676.602 509.96 674.654 520.515 671.196C520.671 671.145 520.827 671.093 520.983 671.041C523.489 670.207 525.936 669.288 528.312 668.283C528.498 668.204 528.683 668.125 528.868 668.045C529.192 667.905 529.515 667.765 529.836 667.622C530.004 667.547 530.172 667.473 530.339 667.397C530.644 667.26 530.947 667.12 531.249 666.979C533.828 665.78 536.313 664.477 538.687 663.065C545.839 658.813 551.371 653.961 555.283 648.782C555.59 648.376 555.886 647.967 556.173 647.557C556.463 647.142 556.743 646.726 557.013 646.308C557.239 645.957 557.457 645.604 557.669 645.251C557.834 644.976 557.996 644.7 558.152 644.424C567.62 627.669 561.131 608.428 538.686 595.082C524.133 586.429 505.413 581.768 486.367 581.091V600.799Z" fill="#CCCCCC"/>
<path d="M538.687 595.079C507.113 576.306 455.921 576.306 424.347 595.079C392.773 613.853 392.773 644.292 424.347 663.066C455.921 681.839 507.113 681.839 538.687 663.066C570.261 644.292 570.261 613.853 538.687 595.079ZM435.163 602.805C460.764 588.298 502.271 588.298 527.871 602.805C553.472 617.312 553.472 640.833 527.871 655.34C502.271 669.847 460.764 669.847 435.163 655.34C409.563 640.833 409.563 617.312 435.163 602.805Z" fill="#E5E5E5"/>
<g filter="url(#filter2_d_186_72890)">
<path d="M423.4 391.961C421.656 390.548 421.656 387.887 423.4 386.474L442.002 371.402L442.002 353.252C442.002 337.65 454.649 325.003 470.251 325.003L706.075 325.003C721.676 325.003 734.324 337.65 734.324 353.252L734.324 424.344C734.324 439.945 721.677 452.593 706.075 452.593L470.251 452.593C454.649 452.593 442.002 439.945 442.002 424.344L442.002 407.031L423.4 391.961Z" fill="white"/>
</g>
<g clip-path="url(#clip1_186_72890)">
<path d="M492.248 377.592V363.172H502.708V365.932H495.448V368.992H502.408V371.692H495.448V374.832H502.648V377.592H492.248ZM511.711 377.592L509.611 374.372L507.551 377.592H504.131L507.851 372.352L504.371 367.212H507.891L509.771 370.112L511.611 367.212H515.031L511.511 372.152L515.211 377.592H511.711ZM516.733 381.712V367.212H519.713V368.452C520.313 367.552 521.473 367.012 522.853 367.012C525.313 367.012 527.213 368.832 527.213 372.292C527.213 375.932 525.173 377.812 522.473 377.812C521.353 377.812 520.433 377.472 519.773 376.852V381.712H516.733ZM519.773 373.212C519.773 374.412 520.633 375.272 521.953 375.272C523.313 375.272 524.153 374.212 524.153 372.372C524.153 370.552 523.333 369.512 521.953 369.512C520.653 369.512 519.773 370.392 519.773 371.692V373.212ZM533.993 377.812C530.733 377.812 528.693 375.772 528.693 372.392C528.693 369.012 530.733 367.012 533.993 367.012C537.253 367.012 539.333 369.012 539.333 372.392C539.333 375.772 537.253 377.812 533.993 377.812ZM531.753 372.392C531.753 374.312 532.613 375.312 533.993 375.312C535.373 375.312 536.273 374.312 536.273 372.392C536.273 370.472 535.373 369.512 533.993 369.512C532.613 369.512 531.753 370.472 531.753 372.392ZM541.362 377.592V367.212H544.322V368.532C544.982 367.652 546.082 367.012 547.602 367.012C549.762 367.012 551.302 368.252 551.302 370.632V377.592H548.262V371.312C548.262 370.112 547.562 369.572 546.402 369.572C545.362 369.572 544.402 370.172 544.402 371.272V377.592H541.362ZM558.244 377.812C555.204 377.812 553.244 375.932 553.244 372.432C553.244 368.932 555.444 367.012 558.424 367.012C561.284 367.012 563.184 368.812 563.184 372.092C563.184 372.512 563.164 372.892 563.124 373.112H556.104C556.224 374.672 557.124 375.452 558.324 375.452C559.444 375.452 560.024 374.872 560.284 374.172L562.924 374.652C562.444 376.292 561.044 377.812 558.244 377.812ZM556.164 371.232H560.384C560.264 370.152 559.604 369.312 558.384 369.312C557.244 369.312 556.424 369.992 556.164 371.232ZM565.093 377.592V367.212H568.053V368.532C568.713 367.652 569.813 367.012 571.333 367.012C573.493 367.012 575.033 368.252 575.033 370.632V377.592H571.993V371.312C571.993 370.112 571.293 369.572 570.133 369.572C569.092 369.572 568.133 370.172 568.133 371.272V377.592H565.093ZM582.114 377.592C579.274 377.592 578.134 376.532 578.134 373.572V369.832H576.574V367.212H578.134V364.652H581.174V367.212H583.994V369.832H581.174V373.512C581.174 374.612 581.654 374.952 582.594 374.952H584.014V377.592H582.114ZM586.01 377.592V367.212H589.05V377.592H586.01ZM585.97 365.792V363.272H589.11V365.792H585.97ZM594.675 377.812C592.695 377.812 591.155 376.692 591.155 374.712C591.155 371.612 594.275 371.432 596.195 371.432C596.695 371.432 596.935 371.432 597.555 371.472V370.832C597.555 369.832 597.055 369.292 596.055 369.292C595.015 369.292 594.495 369.892 594.275 370.752L591.515 370.252C591.875 368.232 593.495 367.012 596.055 367.012C598.735 367.012 600.495 368.092 600.495 370.812V377.592H597.655V376.452C596.995 377.352 595.935 377.812 594.675 377.812ZM594.135 374.452C594.135 375.192 594.695 375.592 595.555 375.592C596.755 375.592 597.555 374.952 597.555 373.992V373.352C597.235 373.332 596.875 373.332 596.595 373.332C595.275 373.332 594.135 373.472 594.135 374.452ZM602.983 377.592V363.172H606.023V377.592H602.983ZM619.425 377.812C615.465 377.812 612.645 375.272 612.645 370.392C612.645 365.352 615.725 362.972 619.925 362.972C623.465 362.972 625.725 364.552 626.385 367.512L623.185 368.032C622.785 366.732 621.705 365.812 619.925 365.812C617.505 365.812 615.905 367.432 615.905 370.392C615.905 373.292 617.405 374.932 619.905 374.932C621.945 374.932 623.345 373.872 623.465 372.672H620.165V370.152H626.385V377.592H623.765V376.212C622.805 377.272 621.285 377.812 619.425 377.812ZM628.999 377.592V367.212H631.939V368.472C632.699 367.452 633.779 367.212 634.699 367.212H635.479V369.872H634.519C632.719 369.872 632.039 370.392 632.039 371.692V377.592H628.999ZM641.767 377.812C638.507 377.812 636.467 375.772 636.467 372.392C636.467 369.012 638.507 367.012 641.767 367.012C645.027 367.012 647.107 369.012 647.107 372.392C647.107 375.772 645.027 377.812 641.767 377.812ZM639.527 372.392C639.527 374.312 640.387 375.312 641.767 375.312C643.147 375.312 644.047 374.312 644.047 372.392C644.047 370.472 643.147 369.512 641.767 369.512C640.387 369.512 639.527 370.472 639.527 372.392ZM650.86 377.592L647.9 367.212H651.02L652.74 374.312L654.6 367.212H658.04L659.92 374.252L661.62 367.212H664.54L661.58 377.592H658.12L656.26 370.452L654.3 377.592H650.86ZM670.669 377.592C667.829 377.592 666.689 376.532 666.689 373.572V369.832H665.129V367.212H666.689V364.652H669.729V367.212H672.549V369.832H669.729V373.512C669.729 374.612 670.209 374.952 671.149 374.952H672.569V377.592H670.669ZM674.565 377.592V363.172H677.605V368.432C678.265 367.612 679.325 367.012 680.845 367.012C682.985 367.012 684.505 368.252 684.505 370.632V377.592H681.465V371.312C681.465 370.112 680.805 369.572 679.605 369.572C678.565 369.572 677.605 370.172 677.605 371.272V377.592H674.565Z" fill="black"/>
<g opacity="0.5">
<g clip-path="url(#clip2_186_72890)">
<path fill-rule="evenodd" clip-rule="evenodd" d="M529.362 396.73H537.899L543.632 402.464V411L541.649 412.983L543.266 414.599L541.498 416.367L539.881 414.751L537.899 416.733H529.362L527.379 414.751L525.763 416.367L523.995 414.599L525.611 412.983L523.629 411V402.464L529.362 396.73ZM530.398 399.231L526.129 403.499V409.965L530.398 414.233H536.863L541.132 409.965V403.499L536.863 399.231H530.398ZM529.621 404.49L532.38 407.25V411.108H534.881V406.214L531.389 402.722L529.621 404.49Z" fill="#666666"/>
</g>
<path d="M567.081 413.732V410.332H559.001V408.232L566.181 399.312H568.901V408.632H571.041V410.332H568.901V413.732H567.081ZM560.801 408.632H567.081V400.832L560.801 408.632ZM577.98 413.732V403.612H579.74V404.912C580.4 403.932 581.64 403.412 582.86 403.412C584.56 403.412 585.7 404.152 586.2 405.252C586.84 404.032 588.26 403.412 589.66 403.412C591.94 403.412 593.38 404.652 593.38 407.032V413.732H591.58V407.312C591.58 405.972 590.92 405.012 589.28 405.012C587.78 405.012 586.58 406.052 586.58 407.672V413.732H584.78V407.332C584.78 405.972 584.1 405.012 582.46 405.012C580.96 405.012 579.78 406.052 579.78 407.672V413.732H577.98ZM596.359 413.732V403.612H598.159V413.732H596.359ZM596.239 401.712V399.632H598.279V401.712H596.239ZM601.281 413.732V403.612H603.041V404.992C603.721 403.972 605.041 403.412 606.321 403.412C608.661 403.412 610.161 404.652 610.161 407.032V413.732H608.361V407.332C608.361 405.952 607.641 405.012 605.921 405.012C604.361 405.012 603.081 406.032 603.081 407.672V413.732H601.281ZM616.716 413.952C614.376 413.952 612.996 412.692 612.996 410.312V403.612H614.796V410.032C614.796 411.392 615.476 412.332 617.136 412.332C618.696 412.332 619.956 411.292 619.956 409.692V403.612H621.756V413.732H619.996V412.392C619.316 413.392 617.996 413.952 616.716 413.952ZM628.954 413.732C626.254 413.732 625.474 412.652 625.474 410.192V405.232H623.734V403.612H625.474V400.932H627.274V403.612H630.434V405.232H627.274V410.172C627.274 411.572 627.874 412.112 629.034 412.112H630.534V413.732H628.954ZM636.806 413.952C634.106 413.952 632.146 412.192 632.146 408.672C632.146 405.152 634.266 403.412 636.946 403.412C639.606 403.412 641.406 405.172 641.406 408.152C641.406 408.532 641.406 408.872 641.386 409.072H633.866C633.966 411.272 635.086 412.392 636.806 412.392C638.366 412.392 639.226 411.532 639.546 410.572L641.146 410.912C640.726 412.612 639.226 413.952 636.806 413.952ZM633.926 407.692H639.686C639.646 406.112 638.666 404.932 636.946 404.932C635.326 404.932 634.206 405.872 633.926 407.692ZM647.441 413.952C645.061 413.952 643.481 412.912 643.121 410.952L644.801 410.592C645.121 411.832 646.001 412.472 647.481 412.472C649.021 412.472 649.801 411.892 649.801 411.012C649.801 410.152 649.261 409.772 647.821 409.512L646.481 409.272C644.601 408.932 643.501 408.172 643.501 406.392C643.501 404.552 645.041 403.412 647.421 403.412C649.881 403.412 651.221 404.732 651.501 406.292L649.861 406.652C649.601 405.672 648.901 404.892 647.381 404.892C646.021 404.892 645.201 405.492 645.201 406.352C645.201 407.272 645.881 407.532 647.081 407.752L648.381 407.992C650.581 408.392 651.501 409.312 651.501 410.952C651.501 412.712 650.141 413.952 647.441 413.952Z" fill="#666666"/>
</g>
</g>
</g>
<defs>
<filter id="filter0_f_186_72890" x="407.703" y="91.8161" width="148.591" height="91.7761" filterUnits="userSpaceOnUse" color-interpolation-filters="sRGB">
<feFlood flood-opacity="0" result="BackgroundImageFix"/>
<feBlend mode="normal" in="SourceGraphic" in2="BackgroundImageFix" result="shape"/>
<feGaussianBlur stdDeviation="4.37029" result="effect1_foregroundBlur_186_72890"/>
</filter>
<filter id="filter1_f_186_72890" x="197.369" y="337.519" width="148.591" height="91.7761" filterUnits="userSpaceOnUse" color-interpolation-filters="sRGB">
<feFlood flood-opacity="0" result="BackgroundImageFix"/>
<feBlend mode="normal" in="SourceGraphic" in2="BackgroundImageFix" result="shape"/>
<feGaussianBlur stdDeviation="4.37029" result="effect1_foregroundBlur_186_72890"/>
</filter>
<filter id="filter2_d_186_72890" x="387.185" y="292.889" width="382.046" height="197.403" filterUnits="userSpaceOnUse" color-interpolation-filters="sRGB">
<feFlood flood-opacity="0" result="BackgroundImageFix"/>
<feColorMatrix in="SourceAlpha" type="matrix" values="0 0 0 0 0 0 0 0 0 0 0 0 0 0 0 0 0 0 127 0" result="hardAlpha"/>
<feOffset dy="2.79254"/>
<feGaussianBlur stdDeviation="17.4534"/>
<feComposite in2="hardAlpha" operator="out"/>
<feColorMatrix type="matrix" values="0 0 0 0 0 0 0 0 0 0 0 0 0 0 0 0 0 0 0.05 0"/>
<feBlend mode="normal" in2="BackgroundImageFix" result="effect1_dropShadow_186_72890"/>
<feBlend mode="normal" in="SourceGraphic" in2="effect1_dropShadow_186_72890" result="shape"/>
</filter>
<linearGradient id="paint0_linear_186_72890" x1="272.148" y1="477.585" x2="272.148" y2="320.255" gradientUnits="userSpaceOnUse">
<stop stop-color="#999999"/>
<stop offset="1" stop-color="#999999" stop-opacity="0"/>
</linearGradient>
<linearGradient id="paint1_linear_186_72890" x1="271.857" y1="285.293" x2="271.857" y2="348.662" gradientUnits="userSpaceOnUse">
<stop stop-color="white" stop-opacity="0"/>
<stop offset="1" stop-color="white"/>
</linearGradient>
<clipPath id="clip0_186_72890">
<rect width="1600" height="792" fill="white"/>
</clipPath>
<clipPath id="clip1_186_72890">
<rect width="292.322" height="72.2819" fill="white" transform="translate(442.018 355.592)"/>
</clipPath>
<clipPath id="clip2_186_72890">
<rect width="20.003" height="20.003" fill="white" transform="translate(523.631 396.731)"/>
</clipPath>
</defs>
</svg>
