<svg width="1600" height="792" viewBox="0 0 1600 792" fill="none" xmlns="http://www.w3.org/2000/svg">
<circle cx="909" cy="122" r="3" fill="#E5E5E5"/>
<circle cx="990.5" cy="122" r="3" fill="#E5E5E5"/>
<circle cx="1072" cy="122" r="3" fill="#E5E5E5"/>
<circle cx="1153.5" cy="122" r="3" fill="#E5E5E5"/>
<circle cx="1235" cy="122" r="3" fill="#E5E5E5"/>
<circle cx="1316.5" cy="122" r="3" fill="#E5E5E5"/>
<circle cx="1398" cy="122" r="3" fill="#E5E5E5"/>
<circle cx="1479.5" cy="122" r="3" fill="#E5E5E5"/>
<circle cx="909" cy="203.5" r="3" fill="#E5E5E5"/>
<circle cx="990.5" cy="203.5" r="3" fill="#E5E5E5"/>
<circle cx="1072" cy="203.5" r="3" fill="#E5E5E5"/>
<circle cx="1153.5" cy="203.5" r="3" fill="#E5E5E5"/>
<circle cx="1235" cy="203.5" r="3" fill="#E5E5E5"/>
<circle cx="1316.5" cy="203.5" r="3" fill="#E5E5E5"/>
<circle cx="1398" cy="203.5" r="3" fill="#E5E5E5"/>
<circle cx="1479.5" cy="203.5" r="3" fill="#E5E5E5"/>
<circle cx="909" cy="285" r="3" fill="#E5E5E5"/>
<circle cx="990.5" cy="285" r="3" fill="#E5E5E5"/>
<circle cx="1072" cy="285" r="3" fill="#E5E5E5"/>
<circle cx="1153.5" cy="285" r="3" fill="#E5E5E5"/>
<circle cx="1235" cy="285" r="3" fill="#E5E5E5"/>
<circle cx="1316.5" cy="285" r="3" fill="#E5E5E5"/>
<circle cx="1398" cy="285" r="3" fill="#E5E5E5"/>
<circle cx="1479.5" cy="285" r="3" fill="#E5E5E5"/>
<circle cx="909" cy="366.5" r="3" fill="#E5E5E5"/>
<circle cx="990.5" cy="366.5" r="3" fill="#E5E5E5"/>
<circle cx="1072" cy="366.5" r="3" fill="#E5E5E5"/>
<circle cx="1153.5" cy="366.5" r="3" fill="#E5E5E5"/>
<circle cx="1235" cy="366.5" r="3" fill="#E5E5E5"/>
<circle cx="1316.5" cy="366.5" r="3" fill="#E5E5E5"/>
<circle cx="1398" cy="366.5" r="3" fill="#E5E5E5"/>
<circle cx="1479.5" cy="366.5" r="3" fill="#E5E5E5"/>
<circle cx="909" cy="448" r="3" fill="#E5E5E5"/>
<circle cx="990.5" cy="448" r="3" fill="#E5E5E5"/>
<circle cx="1072" cy="448" r="3" fill="#E5E5E5"/>
<circle cx="1153.5" cy="448" r="3" fill="#E5E5E5"/>
<circle cx="1235" cy="448" r="3" fill="#E5E5E5"/>
<circle cx="1316.5" cy="448" r="3" fill="#E5E5E5"/>
<circle cx="1398" cy="448" r="3" fill="#E5E5E5"/>
<circle cx="1479.5" cy="448" r="3" fill="#E5E5E5"/>
<circle cx="909" cy="529.5" r="3" fill="#E5E5E5"/>
<circle cx="990.5" cy="529.5" r="3" fill="#E5E5E5"/>
<circle cx="1072" cy="529.5" r="3" fill="#E5E5E5"/>
<circle cx="1153.5" cy="529.5" r="3" fill="#E5E5E5"/>
<circle cx="1235" cy="529.5" r="3" fill="#E5E5E5"/>
<circle cx="1316.5" cy="529.5" r="3" fill="#E5E5E5"/>
<circle cx="1398" cy="529.5" r="3" fill="#E5E5E5"/>
<circle cx="1479.5" cy="529.5" r="3" fill="#E5E5E5"/>
<circle cx="909" cy="611" r="3" fill="#E5E5E5"/>
<circle cx="990.5" cy="611" r="3" fill="#E5E5E5"/>
<circle cx="1072" cy="611" r="3" fill="#E5E5E5"/>
<circle cx="1153.5" cy="611" r="3" fill="#E5E5E5"/>
<circle cx="1235" cy="611" r="3" fill="#E5E5E5"/>
<circle cx="1316.5" cy="611" r="3" fill="#E5E5E5"/>
<circle cx="1398" cy="611" r="3" fill="#E5E5E5"/>
<circle cx="1479.5" cy="611" r="3" fill="#E5E5E5"/>
<circle cx="909" cy="692.5" r="3" fill="#E5E5E5"/>
<circle cx="990.5" cy="692.5" r="3" fill="#E5E5E5"/>
<circle cx="1072" cy="692.5" r="3" fill="#E5E5E5"/>
<circle cx="1153.5" cy="692.5" r="3" fill="#E5E5E5"/>
<circle cx="1235" cy="692.5" r="3" fill="#E5E5E5"/>
<circle cx="1316.5" cy="692.5" r="3" fill="#E5E5E5"/>
<circle cx="1398" cy="692.5" r="3" fill="#E5E5E5"/>
<circle cx="1479.5" cy="692.5" r="3" fill="#E5E5E5"/>
<circle cx="1329" cy="448" r="83.5488" transform="rotate(10.1841 1329 448)" stroke="#D8E82E" stroke-width="7" stroke-dasharray="7 36"/>
<g clip-path="url(#clip0_185_72468)">
<path d="M1047.64 313.431L1071.71 282.978L1075.27 283.932L1080.88 322.338L1077.5 324.294L1065.85 311.95L1049.6 316.818L1047.64 313.431Z" fill="black"/>
<path d="M1068.93 301.64L962.919 697.285" stroke="black" stroke-width="7.62"/>
</g>
<g clip-path="url(#clip1_185_72468)">
<path d="M1285.99 463.586L1312.38 450.393L1313.2 452.042L1288.19 481.726L1284.48 480.489L1285.99 463.586ZM1272.8 450.944L1311.55 448.743L1312.38 450.392L1285.99 463.586L1271.57 454.654L1272.8 450.944Z" fill="black"/>
<path d="M1295.75 459.051L929.398 642.244" stroke="black" stroke-width="7.62"/>
</g>
<g clip-path="url(#clip2_185_72468)">
<path d="M1288.98 426.679L1313.71 442.76L1312.71 444.305L1274.45 437.755L1273.64 433.929L1288.98 426.679ZM1293.21 408.902L1314.72 441.214L1313.71 442.759L1288.98 426.678L1289.38 409.713L1293.21 408.902Z" fill="#5ED981"/>
<path d="M1297.83 432.799L954.442 209.509" stroke="#5ED981" stroke-width="7.62"/>
</g>
<path d="M1207 327.109C1207.03 327.012 1207.06 326.882 1207.1 326.719C1207.13 326.557 1207.21 326.2 1207.34 325.648C1207.47 325.096 1207.63 324.593 1207.83 324.139C1208.02 323.684 1208.27 323.149 1208.56 322.532C1208.85 321.915 1209.17 321.428 1209.53 321.071C1209.89 320.714 1210.31 320.357 1210.8 320C1211.28 319.643 1211.82 319.497 1212.4 319.562C1213.35 319.562 1214.17 319.756 1214.89 320.146C1215.6 320.536 1216.11 320.893 1216.4 321.217C1216.69 321.542 1216.87 321.866 1216.93 322.191C1217 322.386 1217.05 322.483 1217.08 322.483C1217.11 322.483 1217.24 322.37 1217.47 322.142C1219.03 320.454 1220.83 319.61 1222.87 319.61H1223.02C1224.58 319.61 1225.75 320.276 1226.53 321.607C1226.79 322.224 1226.92 322.824 1226.92 323.408C1226.92 324.382 1226.7 325.161 1226.28 325.746C1225.86 326.33 1225.44 326.703 1225.02 326.865C1224.59 327.028 1224.19 327.093 1223.8 327.06C1223.15 327.06 1222.63 326.882 1222.24 326.525C1221.85 326.168 1221.66 325.697 1221.66 325.113C1221.66 323.554 1222.57 322.516 1224.38 321.996C1223.67 321.574 1223.08 321.363 1222.63 321.363C1220.81 321.363 1219.14 322.564 1217.61 324.966C1217.29 325.486 1217.05 326.021 1216.88 326.573C1216.72 327.125 1216.17 329.284 1215.23 333.049C1214.13 337.594 1213.49 340.012 1213.33 340.304C1212.91 341.181 1212.21 341.619 1211.24 341.619C1210.81 341.619 1210.47 341.522 1210.21 341.327C1209.95 341.132 1209.78 340.937 1209.68 340.743C1209.58 340.548 1209.55 340.386 1209.58 340.256C1209.58 339.834 1210.23 337.042 1211.53 331.881C1212.83 326.719 1213.48 323.847 1213.48 323.262C1213.48 321.996 1213.05 321.363 1212.21 321.363C1211.53 321.363 1210.94 321.818 1210.46 322.727C1209.97 323.636 1209.58 324.626 1209.29 325.697C1209 326.768 1208.82 327.352 1208.75 327.45C1208.69 327.515 1208.43 327.547 1207.97 327.547H1207.29C1207.1 327.352 1207 327.206 1207 327.109Z" fill="black"/>
<path d="M1225.85 307.972C1225.85 307.713 1225.93 307.486 1226.09 307.291C1226.25 307.096 1226.5 306.999 1226.82 306.999C1227.05 306.999 1227.24 307.08 1227.41 307.242C1227.57 307.372 1227.73 307.68 1227.89 308.167C1228.22 309.368 1228.88 310.293 1229.89 310.943C1230.25 311.17 1230.43 311.462 1230.43 311.819C1230.43 312.111 1230.38 312.306 1230.28 312.403C1230.18 312.501 1229.96 312.647 1229.6 312.842C1228.2 313.556 1226.99 314.578 1225.95 315.909C1225.88 315.974 1225.8 316.072 1225.7 316.201C1225.61 316.331 1225.52 316.429 1225.46 316.494C1225.39 316.558 1225.31 316.591 1225.22 316.591C1225.12 316.591 1225.01 316.607 1224.88 316.64C1224.65 316.64 1224.44 316.558 1224.24 316.396C1224.05 316.234 1223.93 315.99 1223.9 315.666C1223.9 315.049 1224.66 314.091 1226.19 312.793H1217.86L1209.54 312.744C1209.12 312.452 1208.9 312.144 1208.9 311.819C1208.9 311.592 1209.12 311.267 1209.54 310.845H1227.02C1226.24 309.612 1225.85 308.654 1225.85 307.972Z" fill="black"/>
<path d="M1246.75 329.544C1246.75 329.544 1246.75 329.333 1246.75 328.911C1246.75 328.489 1246.97 328.164 1247.43 327.937H1275.72C1276.2 328.197 1276.45 328.521 1276.45 328.911C1276.45 329.3 1276.2 329.625 1275.72 329.885H1247.43C1246.97 329.658 1246.75 329.333 1246.75 328.911V329.544Z" fill="black"/>
<path d="M1298.49 327.011C1298.49 325.973 1298.75 324.918 1299.27 323.846C1299.79 322.775 1300.7 321.785 1302 320.876C1303.3 319.967 1304.87 319.529 1306.72 319.562C1308.73 319.562 1310.2 320 1311.1 320.876C1312.01 321.753 1312.48 322.727 1312.52 323.798C1312.52 324.837 1312.24 325.599 1311.69 326.086C1311.14 326.573 1310.52 326.833 1309.84 326.865C1309.42 326.865 1309.03 326.735 1308.67 326.476C1308.31 326.216 1308.12 325.794 1308.09 325.21C1308.09 324.69 1308.23 324.236 1308.52 323.846C1308.82 323.457 1309.09 323.165 1309.35 322.97C1309.61 322.775 1309.82 322.678 1309.98 322.678C1310.02 322.678 1310.03 322.662 1310.03 322.629C1310.03 322.532 1309.92 322.386 1309.69 322.191C1309.47 321.996 1309.06 321.818 1308.48 321.655C1307.89 321.493 1307.26 321.396 1306.58 321.363C1305.02 321.363 1303.88 321.785 1303.17 322.629C1302.45 323.473 1302.08 324.333 1302.05 325.21C1302.05 326.021 1302.36 326.589 1302.97 326.914C1303.59 327.239 1304.48 327.515 1305.65 327.742C1306.82 327.969 1307.66 328.212 1308.18 328.472C1310.33 329.414 1311.4 330.972 1311.4 333.147C1311.4 334.056 1311.22 334.964 1310.86 335.873C1310.5 336.782 1309.97 337.691 1309.25 338.6C1308.54 339.509 1307.52 340.223 1306.19 340.743C1304.86 341.262 1303.33 341.538 1301.61 341.57C1299.11 341.57 1297.34 341.1 1296.3 340.158C1295.26 339.217 1294.73 338.113 1294.7 336.847C1294.7 335.581 1295.04 334.672 1295.72 334.12C1296.4 333.569 1297.11 333.293 1297.86 333.293C1298.35 333.293 1298.8 333.439 1299.22 333.731C1299.65 334.023 1299.87 334.526 1299.91 335.24C1299.91 336.084 1299.61 336.799 1299.03 337.383C1298.44 337.967 1297.94 338.259 1297.52 338.259C1297.45 338.292 1297.41 338.308 1297.37 338.308C1297.34 338.308 1297.32 338.34 1297.32 338.405C1297.36 338.503 1297.49 338.633 1297.71 338.795C1297.94 338.957 1298.44 339.168 1299.22 339.428C1300 339.688 1300.9 339.801 1301.9 339.769C1303.07 339.769 1304.08 339.59 1304.92 339.233C1305.76 338.876 1306.38 338.422 1306.77 337.87C1307.16 337.318 1307.44 336.815 1307.6 336.36C1307.76 335.906 1307.84 335.5 1307.84 335.143C1307.84 334.234 1307.5 333.552 1306.82 333.098C1306.14 332.643 1305.36 332.368 1304.48 332.27C1303.61 332.173 1302.65 331.929 1301.61 331.54C1300.57 331.15 1299.81 330.582 1299.32 329.836C1298.77 329.024 1298.49 328.083 1298.49 327.011Z" fill="black"/>
<path d="M1312.43 307.973C1312.43 307.714 1312.51 307.487 1312.67 307.292C1312.83 307.097 1313.07 307 1313.4 307C1313.63 307 1313.82 307.081 1313.98 307.243C1314.15 307.373 1314.31 307.681 1314.47 308.168C1314.79 309.369 1315.46 310.294 1316.47 310.944C1316.82 311.171 1317 311.463 1317 311.82C1317 312.112 1316.95 312.307 1316.86 312.404C1316.76 312.502 1316.53 312.648 1316.17 312.843C1314.78 313.557 1313.56 314.579 1312.52 315.91C1312.46 315.975 1312.38 316.073 1312.28 316.202C1312.18 316.332 1312.1 316.43 1312.04 316.495C1311.97 316.559 1311.89 316.592 1311.79 316.592C1311.69 316.592 1311.58 316.608 1311.45 316.641C1311.22 316.641 1311.01 316.559 1310.82 316.397C1310.62 316.235 1310.51 315.991 1310.48 315.667C1310.48 315.05 1311.24 314.092 1312.77 312.794H1304.44L1296.11 312.745C1295.69 312.453 1295.48 312.145 1295.48 311.82C1295.48 311.593 1295.69 311.268 1296.11 310.846H1313.59C1312.81 309.613 1312.43 308.655 1312.43 307.973Z" fill="black"/>
<path d="M1163 573.109C1163.03 573.012 1163.06 572.882 1163.1 572.719C1163.13 572.557 1163.21 572.2 1163.34 571.648C1163.47 571.096 1163.63 570.593 1163.83 570.139C1164.02 569.684 1164.27 569.149 1164.56 568.532C1164.85 567.915 1165.17 567.428 1165.53 567.071C1165.89 566.714 1166.31 566.357 1166.8 566C1167.28 565.643 1167.82 565.497 1168.4 565.562C1169.35 565.562 1170.17 565.756 1170.89 566.146C1171.6 566.536 1172.11 566.893 1172.4 567.217C1172.69 567.542 1172.87 567.866 1172.93 568.191C1173 568.386 1173.05 568.483 1173.08 568.483C1173.11 568.483 1173.24 568.37 1173.47 568.142C1175.03 566.454 1176.83 565.61 1178.87 565.61H1179.02C1180.58 565.61 1181.75 566.276 1182.53 567.607C1182.79 568.224 1182.92 568.824 1182.92 569.408C1182.92 570.382 1182.7 571.161 1182.28 571.746C1181.86 572.33 1181.44 572.703 1181.02 572.865C1180.59 573.028 1180.19 573.093 1179.8 573.06C1179.15 573.06 1178.63 572.882 1178.24 572.525C1177.85 572.168 1177.66 571.697 1177.66 571.113C1177.66 569.554 1178.57 568.516 1180.38 567.996C1179.67 567.574 1179.08 567.363 1178.63 567.363C1176.81 567.363 1175.14 568.564 1173.61 570.966C1173.29 571.486 1173.05 572.021 1172.88 572.573C1172.72 573.125 1172.17 575.284 1171.23 579.049C1170.13 583.594 1169.49 586.012 1169.33 586.304C1168.91 587.181 1168.21 587.619 1167.24 587.619C1166.81 587.619 1166.47 587.522 1166.21 587.327C1165.95 587.132 1165.78 586.937 1165.68 586.743C1165.58 586.548 1165.55 586.386 1165.58 586.256C1165.58 585.834 1166.23 583.042 1167.53 577.881C1168.83 572.719 1169.48 569.847 1169.48 569.262C1169.48 567.996 1169.05 567.363 1168.21 567.363C1167.53 567.363 1166.94 567.818 1166.46 568.727C1165.97 569.636 1165.58 570.626 1165.29 571.697C1165 572.768 1164.82 573.352 1164.75 573.45C1164.69 573.515 1164.43 573.547 1163.97 573.547H1163.29C1163.1 573.352 1163 573.206 1163 573.109Z" fill="black"/>
<path d="M1181.85 553.972C1181.85 553.713 1181.93 553.486 1182.09 553.291C1182.25 553.096 1182.5 552.999 1182.82 552.999C1183.05 552.999 1183.24 553.08 1183.41 553.242C1183.57 553.372 1183.73 553.68 1183.89 554.167C1184.22 555.368 1184.88 556.293 1185.89 556.943C1186.25 557.17 1186.43 557.462 1186.43 557.819C1186.43 558.111 1186.38 558.306 1186.28 558.403C1186.18 558.501 1185.96 558.647 1185.6 558.842C1184.2 559.556 1182.99 560.578 1181.95 561.909C1181.88 561.974 1181.8 562.072 1181.7 562.201C1181.61 562.331 1181.52 562.429 1181.46 562.494C1181.39 562.558 1181.31 562.591 1181.22 562.591C1181.12 562.591 1181.01 562.607 1180.88 562.64C1180.65 562.64 1180.44 562.558 1180.24 562.396C1180.05 562.234 1179.93 561.99 1179.9 561.666C1179.9 561.049 1180.66 560.091 1182.19 558.793H1173.86L1165.54 558.744C1165.12 558.452 1164.9 558.144 1164.9 557.819C1164.9 557.592 1165.12 557.267 1165.54 556.845H1183.02C1182.24 555.612 1181.85 554.654 1181.85 553.972Z" fill="black"/>
<path d="M987.798 425.011C987.798 423.973 988.058 422.918 988.577 421.846C989.096 420.775 990.005 419.785 991.304 418.876C992.602 417.967 994.177 417.529 996.027 417.562C998.04 417.562 999.5 418 1000.41 418.876C1001.32 419.753 1001.79 420.727 1001.82 421.798C1001.82 422.837 1001.55 423.599 1000.99 424.086C1000.44 424.573 999.825 424.833 999.143 424.865C998.721 424.865 998.332 424.735 997.975 424.476C997.618 424.216 997.423 423.794 997.39 423.21C997.39 422.69 997.536 422.236 997.829 421.846C998.121 421.457 998.397 421.165 998.656 420.97C998.916 420.775 999.127 420.678 999.289 420.678C999.322 420.678 999.338 420.662 999.338 420.629C999.338 420.532 999.224 420.386 998.997 420.191C998.77 419.996 998.364 419.818 997.78 419.655C997.196 419.493 996.563 419.396 995.881 419.363C994.323 419.363 993.187 419.785 992.472 420.629C991.758 421.473 991.385 422.333 991.352 423.21C991.352 424.021 991.661 424.589 992.278 424.914C992.894 425.239 993.787 425.515 994.956 425.742C996.124 425.969 996.968 426.212 997.488 426.472C999.63 427.414 1000.7 428.972 1000.7 431.147C1000.7 432.056 1000.52 432.964 1000.17 433.873C999.809 434.782 999.273 435.691 998.559 436.6C997.845 437.509 996.822 438.223 995.491 438.743C994.16 439.262 992.635 439.538 990.914 439.57C988.415 439.57 986.646 439.1 985.607 438.158C984.568 437.217 984.032 436.113 984 434.847C984 433.581 984.341 432.672 985.023 432.12C985.704 431.569 986.418 431.293 987.165 431.293C987.652 431.293 988.106 431.439 988.528 431.731C988.95 432.023 989.178 432.526 989.21 433.24C989.21 434.084 988.918 434.799 988.334 435.383C987.749 435.967 987.246 436.259 986.824 436.259C986.759 436.292 986.711 436.308 986.678 436.308C986.646 436.308 986.629 436.34 986.629 436.405C986.662 436.503 986.792 436.633 987.019 436.795C987.246 436.957 987.749 437.168 988.528 437.428C989.307 437.688 990.2 437.801 991.206 437.769C992.375 437.769 993.381 437.59 994.225 437.233C995.069 436.876 995.686 436.422 996.076 435.87C996.465 435.318 996.741 434.815 996.903 434.36C997.066 433.906 997.147 433.5 997.147 433.143C997.147 432.234 996.806 431.552 996.124 431.098C995.443 430.643 994.664 430.368 993.787 430.27C992.911 430.173 991.953 429.929 990.914 429.54C989.875 429.15 989.113 428.582 988.626 427.836C988.074 427.024 987.798 426.083 987.798 425.011Z" fill="black"/>
<path d="M1001.73 405.973C1001.73 405.714 1001.81 405.487 1001.97 405.292C1002.14 405.097 1002.38 405 1002.7 405C1002.93 405 1003.13 405.081 1003.29 405.243C1003.45 405.373 1003.61 405.681 1003.78 406.168C1004.1 407.369 1004.77 408.294 1005.77 408.944C1006.13 409.171 1006.31 409.463 1006.31 409.82C1006.31 410.112 1006.26 410.307 1006.16 410.404C1006.06 410.502 1005.84 410.648 1005.48 410.843C1004.08 411.557 1002.87 412.579 1001.83 413.91C1001.76 413.975 1001.68 414.073 1001.58 414.202C1001.49 414.332 1001.41 414.43 1001.34 414.495C1001.28 414.559 1001.19 414.592 1001.1 414.592C1001 414.592 1000.89 414.608 1000.76 414.641C1000.53 414.641 1000.32 414.559 1000.12 414.397C999.928 414.235 999.815 413.991 999.782 413.667C999.782 413.05 1000.55 412.092 1002.07 410.794H993.744L985.418 410.745C984.996 410.453 984.785 410.145 984.785 409.82C984.785 409.593 984.996 409.268 985.418 408.846H1002.9C1002.12 407.613 1001.73 406.655 1001.73 405.973Z" fill="black"/>
<path d="M1304.5 452L1314 435L1323.5 436L1330.5 430L1342 431.5L1346 448L1336.5 471L1316.5 469.5L1315 460L1304.5 452Z" fill="#CCCCCC"/>
<mask id="mask0_185_72468" style="mask-type:alpha" maskUnits="userSpaceOnUse" x="1304" y="430" width="42" height="41">
<path d="M1304.5 452L1314 435L1323.5 436L1330.5 430L1342 431.5L1346 448L1336.5 471L1316.5 469.5L1315 460L1304.5 452Z" fill="#CCCCCC"/>
</mask>
<g mask="url(#mask0_185_72468)">
<path d="M1312.5 449.999C1307.3 446.399 1301.33 437.832 1299 433.999L1297.5 452.999L1308.5 473.999L1343 474.999L1348 454.999L1334 457.499L1329.5 452.999L1320 454.499C1319.67 454.499 1317.7 453.599 1312.5 449.999Z" fill="#B3B3B3"/>
<path d="M1330.18 436.065C1333.04 436.066 1334.84 437.191 1336.1 438.502C1337.89 440.355 1338.64 442.278 1338.7 443.503" stroke="white" stroke-width="4.55147"/>
</g>
<path d="M1363 424.499L1347 419.499L1348 411.999L1366 408.999L1379.5 419.499V434.499H1368L1363 424.499Z" fill="#CCCCCC"/>
<mask id="mask1_185_72468" style="mask-type:alpha" maskUnits="userSpaceOnUse" x="1347" y="408" width="33" height="27">
<path d="M1363 424.499L1347 419.499L1348 411.999L1366 408.999L1379.5 419.499V434.499H1368L1363 424.499Z" fill="#CCCCCC"/>
</mask>
<g mask="url(#mask1_185_72468)">
<path d="M1357 416.499L1340.5 419.499L1354.5 434.499L1386.5 444.999L1383 418.499L1364 422.999L1357 416.499Z" fill="#B3B3B3"/>
</g>
<path d="M1289.5 474.499C1288.7 471.699 1289.83 466.666 1290.5 463.999L1284.5 465.499L1280 469.499C1280.83 474.166 1282.5 482.299 1284.5 483.499C1286.5 484.699 1290.83 484.499 1292.5 483.499C1291.83 482.332 1290.3 477.299 1289.5 474.499Z" fill="#D9D9D9"/>
<mask id="mask2_185_72468" style="mask-type:alpha" maskUnits="userSpaceOnUse" x="1280" y="463" width="13" height="22">
<path d="M1289.5 474.499C1288.7 471.699 1289.83 466.666 1290.5 463.999L1284.5 464.999L1280 469.499C1280.83 474.166 1282.5 482.299 1284.5 483.499C1286.5 484.699 1290.83 484.499 1292.5 483.499C1291.83 482.332 1290.3 477.299 1289.5 474.499Z" fill="#D9D9D9"/>
</mask>
<g mask="url(#mask2_185_72468)">
<path d="M1285 476.999C1279.4 474.599 1279.5 465.999 1278.5 463.999L1270 469.999L1278 489.499H1299C1301.4 489.499 1300 483.499 1299 480.499C1296.67 480.332 1290.6 479.399 1285 476.999Z" fill="#B3B3B3"/>
</g>
<path d="M1358.5 485.999C1356.5 487.599 1350.33 489.999 1347.5 490.999L1353.5 497.999C1354.33 498.166 1357.19 499.27 1361 497.999C1365.5 496.499 1368.33 492.166 1370 489.999L1368 485.999L1365.5 479.499C1364 480.999 1360.5 484.399 1358.5 485.999Z" fill="#CCCCCC"/>
<mask id="mask3_185_72468" style="mask-type:alpha" maskUnits="userSpaceOnUse" x="1347" y="479" width="23" height="20">
<path d="M1358.5 485.999C1356.5 487.599 1350.33 489.999 1347.5 490.999L1353.5 497.999C1354.33 498.166 1357.19 499.27 1361 497.999C1365.5 496.499 1368.33 492.166 1370 489.999L1368 485.999L1365.5 479.499C1364 480.999 1360.5 484.399 1358.5 485.999Z" fill="#CCCCCC"/>
</mask>
<g mask="url(#mask3_185_72468)">
<path d="M1355 490.499L1344.5 491.999C1344.5 494.332 1346 499.699 1352 502.499C1358 505.299 1365.17 499.999 1368 496.999L1359 490.499H1355Z" fill="#B3B3B3"/>
</g>
<path d="M1306 412.5C1303.6 415.3 1304.33 421.333 1305 424H1296.5L1294 421L1295.5 412.5L1300 404.5L1306 402L1312.5 406.5C1311.33 407.333 1308.4 409.7 1306 412.5Z" fill="#CCCCCC"/>
<mask id="mask4_185_72468" style="mask-type:alpha" maskUnits="userSpaceOnUse" x="1294" y="402" width="19" height="22">
<path d="M1306 412.5C1303.6 415.3 1304.33 421.333 1305 424H1296.5L1294 421L1295.5 412L1300 404.5L1306 402L1312.5 406.5C1311.33 407.333 1308.4 409.7 1306 412.5Z" fill="#CCCCCC"/>
</mask>
<g mask="url(#mask4_185_72468)">
<path d="M1298 419.999L1292 415.499V425.999L1309 426.999L1306.5 418.499L1298 419.999Z" fill="#B3B3B3"/>
</g>
<path d="M1013.74 303.948L1137.52 267.447L1135.42 260.329L1011.64 296.83L1013.74 303.948Z" fill="#AFAFAF"/>
<path d="M1105.64 276.842L1137.52 267.44L1135.42 260.323L1103.54 269.724L1105.64 276.842Z" fill="#C8C8C8"/>
<path d="M1119.48 272.766L1126.6 270.667L1124.5 263.549L1117.38 265.648L1119.48 272.766Z" fill="#E1E1E1"/>
<path d="M1037.4 279.067C1037.53 263.476 1047.75 249.138 1063.49 244.496C1079.22 239.853 1095.58 246.353 1104.15 259.373L1037.4 279.059V279.067Z" fill="#333333"/>
<path d="M1064.74 270.998C1050.88 275.086 1042.25 256.142 1054.52 248.505C1057.24 246.806 1060.25 245.453 1063.47 244.496C1079.21 239.853 1095.57 246.353 1104.14 259.373L1064.74 270.991V270.998Z" fill="#080F28"/>
<path d="M1058.26 246.547C1072.48 243.028 1088.06 248.836 1096.71 261.576L1104.15 259.381C1095.58 246.353 1079.21 239.861 1063.48 244.503C1061.54 245.079 1059.69 245.813 1057.92 246.663C1058.04 246.627 1058.15 246.576 1058.26 246.547Z" fill="#666666"/>
<path d="M1070.76 269.225L1104.13 259.379L1135.42 260.372L1073.54 278.626L1070.76 269.225Z" fill="#E1E1E1"/>
<path d="M1071.01 269.148L1104.09 259.388C1104.09 259.388 1104.15 259.374 1104.18 259.381C1109.88 259.561 1110.91 267.601 1105.44 269.213L1073.78 278.549C1073.65 278.592 1073.5 278.513 1073.46 278.369L1070.84 269.472C1070.8 269.335 1070.88 269.184 1071.02 269.148H1071.01Z" fill="#C8C8C8"/>
<path d="M1070.76 269.229L1037.39 279.069L1011.65 296.883L1073.54 278.63L1070.76 269.229Z" fill="#AFAFAF"/>
<path d="M1070.27 269.373L1038.15 278.845C1037.65 278.989 1037.18 279.22 1036.75 279.515C1032.17 282.682 1035.58 289.822 1040.92 288.246L1073.05 278.773C1073.32 278.694 1073.48 278.406 1073.4 278.133L1070.92 269.726C1070.84 269.452 1070.55 269.294 1070.27 269.373Z" fill="#C8C8C8"/>
<path d="M1075.64 285.746L1013.75 303.999L1046.63 299.501C1057.16 298.061 1067.56 295.823 1077.74 292.821C1087.91 289.82 1097.85 286.055 1107.48 281.549L1137.53 267.492L1075.65 285.746H1075.64Z" fill="#333333"/>
<path d="M1013.75 303.957L1048.56 293.694L1046.46 286.576L1011.66 296.839L1013.75 303.957Z" fill="#666666"/>
<path d="M989.5 653C1012.97 653 1032 633.972 1032 610.5C1032 587.028 1012.97 568 989.5 568C966.028 568 947 587.028 947 610.5C947 633.972 966.028 653 989.5 653Z" fill="#D6A513"/>
<path d="M1026.76 590.051C1019.86 595.611 1012.73 600.309 1004.12 598.318C985.02 594.166 969.615 590.051 947.825 602.214C947.291 604.897 947.012 607.665 947.012 610.506C947.012 611.489 947.06 612.46 947.121 613.431C949.585 608.163 956.31 608.952 961.555 608.952C984.874 608.952 1008.19 608.952 1029.81 597.019C1029 594.591 1027.98 592.26 1026.77 590.051H1026.76Z" fill="#B78900"/>
<path d="M948.123 620.13C949.604 626.503 952.505 632.33 956.487 637.246C967.364 627.34 979.273 619.158 994.653 617.228C1007.64 615.274 1020.28 613.319 1031.98 609.411C1031.91 606.728 1031.57 604.13 1031.04 601.593C1025.68 603.984 1019.95 605.429 1014.77 606.582C992.772 612.87 968.918 610.807 948.135 620.13H948.123Z" fill="#B78900"/>
<path d="M985.203 623.144C974.557 626.689 968.645 633.79 962.733 642.057C962.49 642.337 962.235 642.604 961.98 642.859C964.056 644.631 966.326 646.197 968.718 647.557C973.986 641.22 978.842 634.349 987.558 632.601C1001.92 629.724 1014.98 629.469 1028.04 628.388C1029.57 625.099 1030.69 621.59 1031.33 617.912C1016.9 621.445 1000.55 619.308 985.179 623.144H985.203Z" fill="#B78900"/>
<path d="M1001.75 637.33C1002.34 635.558 1000.57 634.381 998.204 633.786C994.829 632.936 991.236 633.616 988.286 635.473C982.375 639.188 977.276 643.643 973.926 649.288L974.642 650.295C986.065 648.426 998.301 648.523 1001.75 637.33Z" fill="#B78900"/>
<path d="M1000.57 647.964C994.936 650.429 989.206 651.837 983.428 652.553C985.419 652.844 987.446 653.002 989.509 653.002C1003.3 653.002 1015.54 646.423 1023.29 636.25C1015.56 639.746 1008.31 644.869 1000.57 647.976V647.964Z" fill="#B78900"/>
<path d="M1008.23 572.374C1002.58 569.582 996.236 568.016 989.511 568.016C978.075 568.016 967.696 572.544 960.061 579.9C972.503 576.635 985.529 575.299 998.203 574.668C1001.54 574.668 1004.89 573.49 1008.23 572.374Z" fill="#B78900"/>
<path d="M1014.76 590.037C1017.83 590.037 1021.89 589.527 1025.67 588.204C1023.36 584.477 1020.49 581.139 1017.17 578.286C1012.78 580.095 1008.16 581.758 1004.12 581.758C987.867 582.341 971.333 582.353 955.637 584.878C954.119 586.881 952.772 589.042 951.631 591.3C971.576 585.303 993.864 591.858 1014.77 590.037H1014.76Z" fill="#B78900"/>
<path d="M1008.26 572.372C1007.35 572.675 1006.44 572.979 1005.53 573.27C1007.58 575.491 1009.36 577.943 1010.83 580.602C1012.94 579.971 1015.09 579.145 1017.2 578.271C1019.66 580.383 1021.88 582.763 1023.79 585.373C1023.66 585.191 1023.53 585.008 1023.39 584.826C1023.08 584.414 1022.76 584.001 1022.42 583.6C1022.26 583.406 1022.1 583.212 1021.93 583.018C1021.68 582.726 1021.43 582.435 1021.18 582.156C1021.01 581.974 1020.84 581.779 1020.67 581.597C1020.41 581.306 1020.13 581.015 1019.85 580.735C1019.69 580.578 1019.53 580.408 1019.38 580.25C1019.04 579.91 1018.7 579.582 1018.34 579.267C1018.23 579.17 1018.14 579.072 1018.03 578.975C1017.07 578.101 1016.06 577.276 1015.03 576.499C1014.96 576.438 1014.87 576.39 1014.8 576.329C1014.35 575.989 1013.89 575.661 1013.42 575.346C1013.33 575.285 1013.26 575.236 1013.17 575.176C1012.66 574.836 1012.14 574.496 1011.61 574.168C1011.59 574.168 1011.57 574.144 1011.56 574.132C1008.58 572.323 1005.37 570.879 1001.98 569.847C1001.98 569.847 1001.99 569.859 1002 569.871C1004.17 570.539 1006.27 571.364 1008.27 572.359L1008.26 572.372Z" fill="#B78900"/>
<path d="M983.449 652.551C989.227 651.835 994.957 650.427 1000.59 647.963C1008.32 644.867 1015.56 639.757 1023.28 636.26C1025.14 633.833 1026.74 631.186 1028.04 628.382C1018.03 629.207 1008.02 629.572 997.433 630.98C992.068 634.257 985.816 636.236 979.115 636.467C975.121 639.465 972.001 643.617 968.724 647.55C966.32 646.203 964.062 644.637 961.986 642.852C962.241 642.597 962.496 642.33 962.739 642.051C964.463 639.647 966.174 637.341 968.008 635.192C965.774 634.597 963.613 633.808 961.562 632.825C959.838 634.245 958.15 635.714 956.475 637.232C953.112 633.08 950.527 628.261 948.912 623.028C948.888 623.004 948.876 622.98 948.852 622.968C951.729 632.352 957.75 640.339 965.701 645.717C965.725 645.729 965.75 645.753 965.786 645.766C966.296 646.105 966.806 646.433 967.328 646.761C967.413 646.81 967.486 646.858 967.571 646.907C968.068 647.21 968.566 647.489 969.076 647.781C969.149 647.817 969.221 647.866 969.294 647.902C970.448 648.521 971.625 649.092 972.827 649.602C972.973 649.662 973.13 649.723 973.276 649.784C973.701 649.966 974.138 650.136 974.575 650.294C974.793 650.379 975.024 650.451 975.243 650.536C975.619 650.67 975.995 650.791 976.372 650.925C976.626 651.01 976.869 651.083 977.124 651.168C977.488 651.277 977.865 651.386 978.229 651.483C978.484 651.556 978.739 651.629 979.006 651.69C979.576 651.835 980.147 651.969 980.73 652.09C981.082 652.163 981.434 652.224 981.786 652.284C982.053 652.333 982.32 652.382 982.599 652.43C982.988 652.491 983.364 652.551 983.752 652.6C983.983 652.636 984.226 652.661 984.469 652.685C984.881 652.734 985.294 652.782 985.707 652.819C985.901 652.831 986.083 652.843 986.277 652.867C985.318 652.794 984.359 652.685 983.412 652.551H983.449ZM973.944 649.286C977.294 643.641 982.393 639.186 988.305 635.471C991.254 633.614 994.848 632.934 998.222 633.784C1000.59 634.379 1002.36 635.556 1001.77 637.329C998.32 648.533 986.083 648.436 974.66 650.294C974.332 649.82 974.284 649.759 973.944 649.286Z" fill="#B78900"/>
<path d="M1008.69 620.404C1016.47 620.015 1024.14 619.663 1031.34 617.915C1031.76 615.5 1031.99 613.023 1031.99 610.486C1031.99 610.134 1031.98 609.77 1031.97 609.418C1025.61 611.542 1018.96 613.084 1012.14 614.371C1011.16 616.495 1010.01 618.51 1008.69 620.404Z" fill="#B78900"/>
<path d="M1014.77 590.033C1014.67 590.033 1014.56 590.045 1014.46 590.057C1015.02 592.388 1015.35 594.792 1015.45 597.268C1019.41 595.678 1023.11 592.995 1026.75 590.057C1026.65 589.875 1026.54 589.681 1026.43 589.499C1026.32 589.317 1026.23 589.135 1026.12 588.953C1025.97 588.698 1025.81 588.455 1025.66 588.2C1021.88 589.523 1017.83 590.033 1014.76 590.033H1014.77Z" fill="#B78900"/>
<path d="M1031.05 601.606C1031.3 602.82 1031.52 604.058 1031.68 605.296C1031.33 602.443 1030.7 599.676 1029.81 597.029C1025.03 599.663 1020.16 601.727 1015.22 603.317C1015.08 604.434 1014.91 605.527 1014.68 606.619C1014.72 606.619 1014.74 606.607 1014.78 606.595C1019.96 605.442 1025.71 604.009 1031.05 601.606Z" fill="#B78900"/>
<path d="M1029.79 596.946C1029.77 596.861 1029.73 596.776 1029.71 596.703C1029.55 596.23 1029.38 595.768 1029.2 595.295C1029.16 595.21 1029.14 595.137 1029.1 595.052C1028.53 593.595 1027.89 592.175 1027.17 590.803C1027.13 590.731 1027.1 590.658 1027.06 590.585C1026.96 590.403 1026.87 590.233 1026.77 590.051C1023.13 592.988 1019.42 595.659 1015.47 597.261C1015.49 597.771 1015.52 598.281 1015.52 598.791C1015.52 600.32 1015.42 601.826 1015.24 603.307C1020.16 601.704 1025.04 599.653 1029.83 597.019C1029.83 596.994 1029.82 596.97 1029.8 596.934L1029.79 596.946Z" fill="#926D00"/>
<path d="M948.941 623.039C950.556 628.271 953.142 633.09 956.504 637.242C958.167 635.724 959.867 634.256 961.59 632.835C956.698 630.505 952.389 627.142 948.941 623.039Z" fill="#926D00"/>
<path d="M1031.97 609.424C1031.94 608.028 1031.84 606.656 1031.68 605.297C1031.52 604.046 1031.3 602.82 1031.05 601.606C1025.7 603.998 1019.97 605.442 1014.78 606.596C1014.75 606.596 1014.72 606.608 1014.69 606.62C1014.12 609.327 1013.25 611.925 1012.14 614.377C1018.96 613.09 1025.61 611.561 1031.97 609.424Z" fill="#926D00"/>
<path d="M968.025 635.205C966.192 637.354 964.468 639.648 962.757 642.064C962.514 642.343 962.259 642.61 962.004 642.865C964.08 644.637 966.35 646.203 968.741 647.563C972.019 643.618 975.138 639.466 979.132 636.48C978.695 636.492 978.246 636.516 977.797 636.516C974.41 636.516 971.145 636.055 968.025 635.217V635.205Z" fill="#926D00"/>
<path d="M1029.48 624.916C1030.13 623.108 1030.67 621.226 1031.07 619.308C1031.09 619.162 1031.13 619.029 1031.15 618.883C1031.21 618.555 1031.27 618.24 1031.32 617.912C1024.12 619.672 1016.46 620.012 1008.67 620.401C1005.7 624.649 1001.87 628.255 997.43 630.974C1008.02 629.566 1018.02 629.202 1028.03 628.376C1028.2 628.012 1028.37 627.636 1028.54 627.259C1028.6 627.114 1028.66 626.968 1028.72 626.834C1028.96 626.276 1029.17 625.718 1029.38 625.159C1029.42 625.074 1029.44 624.989 1029.46 624.904L1029.48 624.916Z" fill="#926D00"/>
<path d="M1001.77 637.33C1002.37 635.558 1000.59 634.381 998.227 633.786C994.853 632.936 991.26 633.616 988.31 635.473C982.398 639.188 977.3 643.643 973.949 649.288C974.277 649.761 974.326 649.822 974.665 650.295C986.088 648.426 998.325 648.523 1001.77 637.33Z" fill="#926D00"/>
<path d="M983.447 652.553C984.394 652.686 985.353 652.796 986.312 652.868C986.458 652.868 986.591 652.881 986.737 652.893C987.49 652.941 988.254 652.966 989.031 652.978C989.189 652.978 989.335 652.978 989.493 652.978C990.864 652.978 992.224 652.905 993.571 652.784C993.693 652.784 993.814 652.759 993.935 652.747C994.542 652.686 995.149 652.601 995.756 652.516C995.878 652.504 995.999 652.48 996.133 652.456C996.752 652.359 997.371 652.249 997.978 652.128C998.051 652.116 998.123 652.104 998.196 652.079C1002.29 651.23 1006.16 649.797 1009.72 647.867C1009.74 647.855 1009.76 647.843 1009.79 647.831C1013.33 645.901 1016.56 643.485 1019.4 640.669C1019.48 640.596 1019.56 640.523 1019.63 640.438C1020.03 640.025 1020.44 639.613 1020.82 639.188C1020.92 639.078 1021.02 638.981 1021.12 638.872C1021.49 638.447 1021.87 638.022 1022.23 637.585C1022.32 637.488 1022.39 637.391 1022.46 637.294C1022.74 636.954 1023.02 636.602 1023.29 636.25C1015.57 639.746 1008.33 644.857 1000.6 647.952C994.967 650.416 989.238 651.825 983.459 652.541L983.447 652.553Z" fill="#926D00"/>
<path d="M1001.98 569.888C1003.23 570.932 1004.41 572.073 1005.51 573.275C1006.42 572.983 1007.33 572.68 1008.24 572.376C1006.24 571.393 1004.14 570.555 1001.98 569.888Z" fill="#926D00"/>
<path d="M1025.67 588.2C1025.63 588.128 1025.59 588.067 1025.55 587.994C1025.04 587.181 1024.51 586.38 1023.93 585.615C1023.89 585.542 1023.83 585.469 1023.78 585.396C1021.86 582.786 1019.64 580.407 1017.19 578.295C1015.09 579.157 1012.92 579.982 1010.81 580.626C1012.43 583.563 1013.67 586.732 1014.47 590.07C1014.56 590.07 1014.67 590.058 1014.77 590.046C1017.84 590.046 1021.9 589.536 1025.67 588.213V588.2Z" fill="#926D00"/>
<g filter="url(#filter0_d_185_72468)">
<path d="M1348.02 513.801C1348.08 513.859 1348.14 513.917 1348.2 513.976L1348.34 514.113L1348.33 514.114C1356.17 522.058 1361 532.964 1361 545C1361 569.301 1341.3 589 1317 589C1292.7 589 1273 569.301 1273 545C1273 530.942 1279.59 518.423 1289.86 510.368L1317.22 483.001L1348.02 513.801Z" fill="white"/>
</g>
<path d="M1317 583C1296.01 583 1279 565.987 1279 545C1279 524.013 1296.01 507 1317 507C1337.99 507 1355 524.013 1355 545C1355 565.987 1337.99 583 1317 583Z" fill="#9FE8B3" stroke="white" stroke-width="12"/>
<defs>
<filter id="filter0_d_185_72468" x="1218" y="430.001" width="198" height="215.999" filterUnits="userSpaceOnUse" color-interpolation-filters="sRGB">
<feFlood flood-opacity="0" result="BackgroundImageFix"/>
<feColorMatrix in="SourceAlpha" type="matrix" values="0 0 0 0 0 0 0 0 0 0 0 0 0 0 0 0 0 0 127 0" result="hardAlpha"/>
<feOffset dy="2"/>
<feGaussianBlur stdDeviation="27.5"/>
<feColorMatrix type="matrix" values="0 0 0 0 0.623529 0 0 0 0 0.909804 0 0 0 0 0.701961 0 0 0 1 0"/>
<feBlend mode="normal" in2="BackgroundImageFix" result="effect1_dropShadow_185_72468"/>
<feBlend mode="normal" in="SourceGraphic" in2="effect1_dropShadow_185_72468" result="shape"/>
</filter>
<clipPath id="clip0_185_72468">
<rect width="34.4152" height="322.4" fill="white" transform="translate(1056.87 279.001) rotate(15)"/>
</clipPath>
<clipPath id="clip1_185_72468">
<rect width="34.4152" height="355.185" fill="white" transform="translate(1304.68 435.001) rotate(63.4328)"/>
</clipPath>
<clipPath id="clip2_185_72468">
<rect width="34.4152" height="284.008" fill="white" transform="translate(1323.09 428.333) rotate(123.034)"/>
</clipPath>
</defs>
</svg>
