<svg xmlns="http://www.w3.org/2000/svg" width="1024" height="1024" viewBox="0 0 1024 1024">

  <defs>
    <linearGradient id="bgGrad" x1="0%" y1="0%" x2="100%" y2="100%">
      <stop offset="0%" stop-color="#6ad0ff"/>
      <stop offset="100%" stop-color="#8b7bff"/>
    </linearGradient>
    <linearGradient id="tealGrad" x1="0%" y1="0%" x2="100%" y2="100%">
      <stop offset="0%" stop-color="#79e3e3"/>
      <stop offset="100%" stop-color="#3fb0c9"/>
    </linearGradient>
    <linearGradient id="purpleGrad" x1="0%" y1="0%" x2="100%" y2="100%">
      <stop offset="0%" stop-color="#a999ff"/>
      <stop offset="100%" stop-color="#6f63ff"/>
    </linearGradient>
    <linearGradient id="yellowGrad" x1="0%" y1="0%" x2="100%" y2="100%">
      <stop offset="0%" stop-color="#ffd66b"/>
      <stop offset="100%" stop-color="#ffb84d"/>
    </linearGradient>
    <filter id="softShadow" x="-50%" y="-50%" width="200%" height="200%">
      <feGaussianBlur in="SourceAlpha" stdDeviation="8" result="blur"/>
      <feOffset dx="0" dy="8" result="offset"/>
      <feComponentTransfer>
        <feFuncA type="linear" slope="0.25"/>
      </feComponentTransfer>
      <feMerge>
        <feMergeNode in="offset"/>
        <feMergeNode in="SourceGraphic"/>
      </feMerge>
    </filter>
    <filter id="glassBlur" x="-50%" y="-50%" width="200%" height="200%">
      <feGaussianBlur stdDeviation="6"/>
    </filter>
    <linearGradient id="glassStroke" x1="0%" y1="0%" x2="0%" y2="100%">
      <stop offset="0%" stop-color="#ffffff" stop-opacity="0.8"/>
      <stop offset="100%" stop-color="#ffffff" stop-opacity="0.2"/>
    </linearGradient>
  </defs>

  <rect width="100%" height="100%" fill="none"/>
  <!-- Background glow -->
  <ellipse cx="520" cy="540" rx="360" ry="260" fill="url(#bgGrad)" filter="url(#glassBlur)" opacity="0.3"/>
  
  <!-- Clipboard glass panel -->
  <g filter="url(#softShadow)">
    <rect x="290" y="320" width="440" height="380" rx="28" fill="#ffffff" opacity="0.28" stroke="url(#glassStroke)"/>
    <rect x="450" y="280" width="120" height="52" rx="18" fill="url(#purpleGrad)"/>
    <!-- checklines -->
    <rect x="340" y="380" width="260" height="16" rx="8" fill="url(#purpleGrad)" opacity="0.8"/>
    <rect x="340" y="412" width="220" height="14" rx="7" fill="url(#purpleGrad)" opacity="0.5"/>
    <rect x="340" y="444" width="200" height="14" rx="7" fill="url(#purpleGrad)" opacity="0.35"/>
    <circle cx="655" cy="396" r="18" fill="url(#tealGrad)"/>
    <circle cx="655" cy="436" r="18" fill="url(#tealGrad)"/>
    <circle cx="655" cy="476" r="18" fill="url(#tealGrad)"/>
  </g>

  <!-- Flask & beaker -->
  <g filter="url(#softShadow)">
    <path d="M780,380 h-40 v160 c-40,30 -40,90 0,120 h80 c40,-30 40,-90 0,-120 V380 h-40z" fill="url(#tealGrad)" opacity="0.95"/>
    <rect x="720" y="540" width="160" height="8" rx="4" fill="#ffffff" opacity="0.6"/>
    <rect x="760" y="388" width="80" height="12" rx="6" fill="#ffffff" opacity="0.8"/>
  </g>

  <!-- Atom icon -->
  <g transform="translate(200,160)" opacity="0.9" filter="url(#softShadow)">
    <circle cx="120" cy="120" r="14" fill="url(#yellowGrad)"/>
    <ellipse cx="120" cy="120" rx="90" ry="40" fill="none" stroke="url(#tealGrad)" stroke-width="8"/>
    <ellipse cx="120" cy="120" rx="40" ry="90" fill="none" stroke="url(#purpleGrad)" stroke-width="8"/>
  </g>
</svg>