<svg width="1600" height="792" viewBox="0 0 1600 792" fill="none" xmlns="http://www.w3.org/2000/svg">
<g clip-path="url(#clip0_186_72799)">
<circle cx="865.964" cy="434.193" r="91.4385" fill="#D8E82E"/>
<path d="M868.538 385.871C871.684 382.003 877.921 384.812 877.109 389.732L871.487 423.813H895.014C901.158 423.813 904.55 430.944 900.674 435.71L861.961 483.31C858.814 487.179 852.578 484.37 853.389 479.45L859.011 445.368H835.484C829.34 445.368 825.948 438.238 829.825 433.471L868.538 385.871Z" fill="black"/>
<path d="M864.558 572.862V554.534H856.844V551.953H875.085V554.534H867.371V572.862H864.558Z" fill="#5B6300"/>
<circle cx="1085.57" cy="354.178" r="91.4385" fill="#D8E82E"/>
<path d="M1088.14 305.856C1091.29 301.987 1097.52 304.796 1096.71 309.716L1091.09 343.797H1114.62C1120.76 343.797 1124.15 350.928 1120.28 355.695L1081.56 403.294C1078.42 407.163 1072.18 404.354 1072.99 399.434L1078.61 365.353H1055.09C1048.94 365.353 1045.55 358.222 1049.43 353.455L1088.14 305.856Z" fill="black"/>
<path d="M1076.66 492.847L1069.84 471.938H1072.86L1078.34 489.222L1084 471.938H1087.24L1093.1 489.28L1098.38 471.938H1101.28L1094.64 492.847H1091.54L1085.59 475.215L1079.79 492.847H1076.66Z" fill="#5B6300"/>
<path d="M1086.07 262.63C1101.08 262.729 1115.24 266.45 1127.71 272.963L1122.75 282.488C1111.59 276.661 1098.91 273.364 1085.45 273.364C1040.91 273.364 1004.81 309.47 1004.81 354.009C1004.81 354.418 1004.81 354.827 1004.82 355.235L994.307 355.41C994.045 339.6 997.895 323.992 1005.48 310.117C1013.06 296.242 1024.12 284.576 1037.57 276.262C1051.02 267.947 1066.4 263.27 1082.21 262.689C1083.11 262.655 1084.02 262.636 1084.92 262.63C1085.06 262.629 1085.2 262.627 1085.34 262.627C1085.58 262.626 1085.82 262.629 1086.07 262.63Z" fill="#E2EE62"/>
<path d="M1051.13 281.012C1033.41 289.36 1019.22 303.972 1011.41 321.994L1001.73 317.826C1010.52 297.394 1026.47 280.875 1046.58 271.373L1051.13 281.012Z" fill="#EDF5A1"/>
<rect x="1211.79" y="182.669" width="182.764" height="182.764" rx="91.382" fill="white"/>
<rect x="1215.6" y="186.477" width="175.149" height="175.149" rx="87.5744" stroke="black" stroke-opacity="0.05" stroke-width="7.61517"/>
<rect x="1215.6" y="186.477" width="175.149" height="175.149" rx="87.5744" stroke="black" stroke-opacity="0.2" stroke-width="7.61517"/>
<path d="M1305.84 225.057C1308.99 221.186 1315.23 223.997 1314.42 228.92L1308.79 263.025H1332.33C1338.48 263.025 1341.88 270.161 1338 274.931L1299.26 322.562C1296.11 326.433 1289.87 323.623 1290.68 318.699L1296.31 284.594H1272.76C1266.61 284.594 1263.22 277.459 1267.1 272.689L1305.84 225.057Z" fill="#E5E5E5"/>
<path d="M1293.26 412.873V394.545H1285.55V391.964H1303.79V394.545H1296.07V412.873H1293.26ZM1306.66 412.873V391.964H1309.27V400.113C1310.25 398.692 1312.14 397.909 1313.96 397.909C1317.36 397.909 1319.53 399.707 1319.53 403.158V412.873H1316.92V403.593C1316.92 401.592 1315.88 400.229 1313.38 400.229C1311.12 400.229 1309.27 401.708 1309.27 404.086V412.873H1306.66Z" fill="black"/>
<g filter="url(#filter0_d_186_72799)">
<path d="M1279.69 435.192C1285.53 428.554 1293.85 429.37 1298.28 437.014L1310.68 458.399L1450.86 472.144C1468.93 473.915 1477.96 474.801 1484.51 478.993C1490.28 482.68 1494.73 488.098 1497.23 494.47C1500.07 501.714 1499.18 510.747 1497.41 528.81L1493.93 564.303C1492.16 582.367 1491.27 591.399 1487.08 597.954C1483.39 603.719 1477.97 608.17 1471.6 610.667C1464.36 613.506 1455.33 612.62 1437.26 610.849L1201.52 587.735C1183.46 585.964 1174.42 585.079 1167.87 580.887C1162.1 577.199 1157.65 571.781 1155.16 565.409C1152.32 558.165 1153.2 549.133 1154.97 531.069L1158.45 495.576C1160.23 477.513 1161.11 468.481 1165.3 461.926C1168.99 456.16 1174.41 451.71 1180.78 449.212C1188.02 446.374 1197.06 447.259 1215.12 449.03L1263.38 453.762L1279.69 435.192Z" fill="white"/>
</g>
<path d="M1306.87 521.938L1308.28 507.586L1314.75 508.221C1317.91 508.531 1319.82 510.125 1319.49 513.489C1319.28 515.718 1318.17 516.996 1316.43 517.489L1319.13 523.14L1315.57 522.79L1313.18 517.613L1310.53 517.353L1310.05 522.25L1306.87 521.938ZM1310.8 514.666L1313.68 514.949C1315.38 515.115 1316.12 514.505 1316.25 513.171C1316.39 511.758 1315.77 511.094 1314.08 510.928L1311.19 510.645L1310.8 514.666ZM1325.2 523.956C1322.17 523.659 1320.4 521.597 1320.75 518.113C1321.09 514.63 1323.46 512.934 1326.43 513.225C1329.28 513.504 1330.99 515.481 1330.67 518.745C1330.63 519.163 1330.57 519.539 1330.51 519.754L1323.53 519.069C1323.49 520.633 1324.31 521.498 1325.51 521.615C1326.62 521.724 1327.26 521.203 1327.58 520.532L1330.16 521.267C1329.53 522.853 1327.98 524.229 1325.2 523.956ZM1323.77 517.204L1327.97 517.616C1327.95 516.529 1327.38 515.629 1326.17 515.51C1325.03 515.399 1324.15 515.995 1323.77 517.204ZM1335.04 524.92C1333.07 524.727 1331.64 523.462 1331.84 521.492C1332.14 518.407 1335.26 518.532 1337.17 518.719C1337.67 518.768 1337.91 518.791 1338.52 518.892L1338.59 518.255C1338.68 517.26 1338.24 516.673 1337.24 516.576C1336.21 516.474 1335.63 517.021 1335.33 517.855L1332.63 517.088C1333.19 515.113 1334.92 514.057 1337.47 514.307C1340.13 514.568 1341.78 515.815 1341.51 518.522L1340.85 525.269L1338.03 524.992L1338.14 523.858C1337.39 524.689 1336.29 525.043 1335.04 524.92ZM1334.83 521.524C1334.76 522.26 1335.27 522.713 1336.13 522.797C1337.32 522.914 1338.18 522.355 1338.28 521.4L1338.34 520.763C1338.02 520.712 1337.66 520.677 1337.39 520.649C1336.07 520.52 1334.92 520.548 1334.83 521.524ZM1347.94 526.186C1344.9 525.887 1342.95 523.867 1343.3 520.264C1343.65 516.741 1345.95 515.139 1349 515.437C1351.72 515.705 1353.2 517.216 1353.38 519.485L1350.59 519.673C1350.44 518.774 1349.99 518.046 1348.75 517.925C1347.42 517.795 1346.53 518.712 1346.34 520.563C1346.16 522.434 1346.83 523.565 1348.19 523.698C1349.42 523.819 1349.99 523.171 1350.31 522.319L1353.04 523.028C1352.4 525.236 1350.67 526.453 1347.94 526.186ZM1354.49 526.606L1355.89 512.255L1358.92 512.552L1358.4 517.787C1359.14 517.035 1360.25 516.541 1361.77 516.689C1363.9 516.898 1365.29 518.281 1365.06 520.649L1364.38 527.576L1361.35 527.279L1361.96 521.029C1362.08 519.835 1361.48 519.233 1360.28 519.116C1359.25 519.015 1358.23 519.518 1358.13 520.613L1357.51 526.903L1354.49 526.606ZM1371.1 532.375L1371.36 529.748L1372.41 529.851C1373.37 529.945 1373.91 529.737 1374.3 529.011L1374.38 528.878L1371.12 517.808L1374.47 518.135L1376.31 525.39L1379.2 518.6L1382.33 518.906L1377.47 529.262C1376.15 532.067 1375.06 532.763 1372.49 532.512L1371.1 532.375ZM1387.41 530.055C1384.16 529.737 1382.33 527.508 1382.66 524.144C1382.99 520.78 1385.21 518.988 1388.46 519.307C1391.7 519.625 1393.58 521.818 1393.25 525.182C1392.92 528.546 1390.65 530.373 1387.41 530.055ZM1385.71 524.442C1385.52 526.353 1386.28 527.432 1387.65 527.567C1389.02 527.702 1390.02 526.794 1390.2 524.883C1390.39 522.973 1389.59 521.929 1388.22 521.795C1386.84 521.66 1385.89 522.531 1385.71 524.442ZM1398.24 531.118C1396.09 530.907 1394.78 529.492 1395.02 527.124L1395.69 520.217L1398.72 520.513L1398.11 526.744C1397.99 527.918 1398.6 528.54 1399.77 528.655C1400.92 528.768 1401.79 528.13 1401.89 527.154L1402.5 520.884L1405.53 521.181L1404.51 531.511L1401.57 531.223L1401.68 530.068C1400.89 530.794 1399.7 531.26 1398.24 531.118ZM1407.08 531.763L1408.1 521.433L1411.02 521.72L1410.9 522.974C1411.76 522.033 1412.85 521.899 1413.77 521.989L1414.55 522.065L1414.29 524.713L1413.33 524.619C1411.54 524.443 1410.81 524.894 1410.69 526.188L1410.11 532.06L1407.08 531.763ZM1423.15 533.56C1420.66 533.316 1418.85 531.329 1419.2 527.786C1419.55 524.184 1421.76 522.571 1424.45 522.835C1425.6 522.948 1426.48 523.376 1427.02 524.052L1427.49 519.275L1430.51 519.571L1429.11 533.923L1426.18 533.636L1426.29 532.541C1425.71 533.288 1424.59 533.7 1423.15 533.56ZM1422.25 528.025C1422.07 529.817 1422.78 530.972 1424.16 531.106C1425.59 531.247 1426.4 530.381 1426.52 529.147L1426.66 527.714C1426.78 526.44 1426.11 525.51 1424.84 525.385C1423.41 525.245 1422.43 526.194 1422.25 528.025ZM1434.68 534.69C1432.71 534.497 1431.28 533.232 1431.48 531.261C1431.78 528.176 1434.9 528.301 1436.81 528.489C1437.31 528.537 1437.55 528.561 1438.16 528.661L1438.22 528.024C1438.32 527.029 1437.88 526.443 1436.88 526.345C1435.85 526.244 1435.27 526.79 1434.97 527.625L1432.27 526.858C1432.83 524.882 1434.56 523.826 1437.1 524.076C1439.77 524.338 1441.42 525.584 1441.15 528.291L1440.49 535.039L1437.66 534.762L1437.78 533.627C1437.03 534.459 1435.93 534.813 1434.68 534.69ZM1434.47 531.293C1434.4 532.03 1434.91 532.482 1435.77 532.566C1436.96 532.683 1437.82 532.125 1437.92 531.169L1437.98 530.532C1437.66 530.481 1437.3 530.446 1437.03 530.419C1435.71 530.29 1434.56 530.318 1434.47 531.293ZM1442.97 535.282L1443.98 524.951L1447.01 525.248L1445.99 535.578L1442.97 535.282ZM1444.08 523.534L1444.32 521.026L1447.45 521.332L1447.2 523.84L1444.08 523.534ZM1448.57 535.831L1449.97 521.479L1453 521.776L1451.59 536.127L1448.57 535.831ZM1454.12 540.515L1454.38 537.887L1455.43 537.991C1456.39 538.085 1456.93 537.877 1457.32 537.151L1457.4 537.018L1454.14 525.947L1457.49 526.275L1459.33 533.53L1462.22 526.74L1465.35 527.046L1460.49 537.402C1459.17 540.207 1458.08 540.903 1455.51 540.651L1454.12 540.515ZM1308.33 551.541C1305.66 551.28 1303.98 549.93 1303.8 547.681L1306.69 547.582C1306.84 548.521 1307.57 549.035 1308.56 549.133C1309.96 549.269 1310.97 548.826 1311.13 547.114L1311.25 545.959C1310.62 546.762 1309.5 547.135 1308.07 546.994C1305.58 546.75 1303.76 544.823 1304.09 541.499C1304.43 537.996 1306.58 536.398 1309.26 536.661C1310.48 536.781 1311.51 537.364 1311.99 538.214L1312.09 537.14L1314.94 537.419L1313.96 547.371C1313.63 550.735 1311.37 551.84 1308.33 551.541ZM1307.14 541.738C1306.97 543.45 1307.75 544.491 1309.11 544.624C1310.36 544.747 1311.33 544.059 1311.46 542.705L1311.6 541.371C1311.71 540.157 1310.93 539.337 1309.64 539.21C1308.28 539.077 1307.31 539.987 1307.14 541.738ZM1321.15 548.679C1317.91 548.361 1316.08 546.131 1316.41 542.767C1316.73 539.404 1318.96 537.612 1322.2 537.93C1325.45 538.248 1327.32 540.442 1326.99 543.806C1326.66 547.17 1324.4 548.997 1321.15 548.679ZM1319.45 543.066C1319.26 544.977 1320.02 546.056 1321.39 546.191C1322.77 546.325 1323.76 545.418 1323.95 543.507C1324.14 541.596 1323.33 540.553 1321.96 540.418C1320.59 540.284 1319.64 541.155 1319.45 543.066ZM1331.51 549.694C1329.54 549.501 1328.12 548.236 1328.31 546.266C1328.61 543.181 1331.73 543.306 1333.65 543.493C1334.14 543.542 1334.38 543.565 1335 543.666L1335.06 543.029C1335.16 542.034 1334.71 541.447 1333.71 541.35C1332.68 541.248 1332.1 541.795 1331.8 542.629L1329.1 541.862C1329.66 539.887 1331.39 538.831 1333.94 539.081C1336.6 539.342 1338.25 540.589 1337.99 543.296L1337.32 550.043L1334.5 549.766L1334.61 548.632C1333.86 549.463 1332.76 549.817 1331.51 549.694ZM1331.3 546.298C1331.23 547.034 1331.75 547.487 1332.6 547.571C1333.8 547.688 1334.66 547.129 1334.75 546.174L1334.81 545.537C1334.5 545.486 1334.14 545.45 1333.86 545.423C1332.54 545.294 1331.4 545.322 1331.3 546.298ZM1339.8 550.286L1341.21 535.935L1344.23 536.232L1342.83 550.583L1339.8 550.286ZM1344.66 552.572C1345.84 552.466 1346.42 552.041 1346.51 551.145L1346.53 550.946L1345.16 550.812L1345.47 547.667L1348.61 547.975L1348.3 551.12C1348.1 553.17 1346.88 554.176 1344.74 554.227L1344.66 552.572ZM1360.76 552.562C1357.09 552.203 1355.1 550.601 1354.86 547.763L1358.21 547.55C1358.38 548.732 1359.11 549.648 1361.08 549.841C1362.91 550.02 1363.89 549.493 1363.98 548.538C1364.06 547.741 1363.7 547.324 1362.25 546.921L1359.79 546.217C1357.23 545.484 1355.7 544.249 1355.96 541.602C1356.23 538.875 1358.64 537.443 1362.2 537.793C1366.01 538.165 1367.6 539.91 1367.81 542.502L1364.52 542.702C1364.39 541.705 1363.83 540.685 1361.92 540.498C1360.31 540.34 1359.33 540.907 1359.24 541.822C1359.16 542.619 1359.64 543.047 1361.12 543.474L1363.94 544.293C1366.32 544.989 1367.49 546.37 1367.26 548.738C1366.99 551.525 1364.6 552.939 1360.76 552.562ZM1369.03 553.153L1370.44 538.801L1373.47 539.098L1372.72 546.761L1373.89 546.876L1376.58 543.462L1379.88 543.786L1376.3 548.137L1379.15 554.144L1375.76 553.812L1373.64 549.223L1372.49 549.11L1372.06 553.449L1369.03 553.153ZM1380.44 558.411L1380.7 555.783L1381.75 555.887C1382.71 555.98 1383.25 555.772 1383.64 555.047L1383.72 554.914L1380.46 543.843L1383.81 544.171L1385.65 551.425L1388.54 544.636L1391.67 544.942L1386.81 555.298C1385.49 558.102 1384.4 558.799 1381.83 558.547L1380.44 558.411ZM1392.17 555.421L1393.57 541.069L1396.6 541.366L1395.19 555.717L1392.17 555.421ZM1400.77 556.485C1398.8 556.292 1397.37 555.027 1397.57 553.056C1397.87 549.971 1400.99 550.096 1402.9 550.284C1403.4 550.333 1403.64 550.356 1404.25 550.456L1404.32 549.819C1404.41 548.824 1403.97 548.238 1402.97 548.14C1401.94 548.039 1401.36 548.585 1401.06 549.42L1398.36 548.653C1398.92 546.678 1400.65 545.621 1403.2 545.871C1405.86 546.133 1407.51 547.379 1407.24 550.086L1406.58 556.834L1403.76 556.557L1403.87 555.422C1403.12 556.254 1402.02 556.608 1400.77 556.485ZM1400.56 553.088C1400.49 553.825 1401 554.278 1401.86 554.361C1403.05 554.479 1403.91 553.92 1404.01 552.964L1404.07 552.327C1403.75 552.276 1403.39 552.241 1403.12 552.214C1401.8 552.085 1400.65 552.113 1400.56 553.088ZM1409.06 557.077L1410.07 546.746L1413 547.033L1412.87 548.287C1413.73 547.346 1414.83 547.213 1415.74 547.302L1416.52 547.379L1416.26 550.026L1415.3 549.932C1413.51 549.757 1412.79 550.208 1412.66 551.502L1412.08 557.373L1409.06 557.077ZM1418.29 553.38L1418.85 543.548L1422.07 543.864L1420.72 553.618L1418.29 553.38ZM1417.54 557.909L1417.85 554.764L1420.9 555.062L1420.59 558.207L1417.54 557.909Z" fill="black"/>
<g clip-path="url(#clip1_186_72799)">
<g clip-path="url(#clip2_186_72799)">
<path d="M1221.82 484.839L1263.31 488.906L1260.9 513.421L1239.05 522.702L1219.42 509.353L1221.82 484.839Z" fill="#F7C325"/>
<path d="M1238.28 511.203L1242.05 511.573L1240.2 530.43L1236.43 530.06L1238.28 511.203Z" fill="#F7C325"/>
<path d="M1221.34 528.581L1255.28 531.909L1253.99 545.109L1220.05 541.781L1221.34 528.581Z" fill="#383838"/>
<path d="M1216.27 541.411L1257.76 545.479L1257.39 549.25L1215.9 545.183L1216.27 541.411Z" fill="#383838"/>
<path d="M1229.25 525.55L1248.11 527.399L1247.74 531.17L1228.88 529.321L1229.25 525.55Z" fill="#F7C325"/>
<path fill-rule="evenodd" clip-rule="evenodd" d="M1268.5 496.778L1260.46 495.989L1259.48 505.921L1267.28 506.685C1267.42 506.699 1267.54 506.597 1267.55 506.458L1268.5 496.778ZM1257.28 492.124L1255.62 509.096L1266.93 510.205C1269.01 510.409 1270.87 508.886 1271.07 506.803L1272.37 493.603L1257.28 492.124Z" fill="#F7C325"/>
<path fill-rule="evenodd" clip-rule="evenodd" d="M1215.2 491.551L1223.24 492.34L1222.27 502.272L1214.48 501.507C1214.34 501.494 1214.24 501.37 1214.25 501.231L1215.2 491.551ZM1227.11 489.165L1225.45 506.137L1214.13 505.027C1212.05 504.823 1210.53 502.969 1210.73 500.886L1212.02 487.686L1227.11 489.165Z" fill="#F7C325"/>
<path d="M1226.43 484.888L1232.09 485.442L1230.06 506.185L1224.4 505.631L1226.43 484.888Z" fill="#FCE49D"/>
<path d="M1228.51 533.092L1247.37 534.941L1246.63 542.484L1227.77 540.635L1228.51 533.092Z" fill="#808080"/>
<path d="M1243.42 492.219C1244.08 491.563 1245.19 492.208 1244.94 493.107L1243.22 499.329L1247.59 499.794C1248.73 499.916 1249.22 501.309 1248.41 502.118L1240.27 510.197C1239.61 510.854 1238.5 510.208 1238.75 509.31L1240.47 503.088L1236.1 502.622C1234.96 502.5 1234.47 501.108 1235.28 500.299L1243.42 492.219Z" fill="#D7A613"/>
</g>
</g>
<path d="M866.293 342.545C884.891 342.603 902.18 348.217 916.59 357.813L910.648 366.758C897.865 358.245 882.514 353.281 866.004 353.281C823.938 353.282 789.395 385.489 785.688 426.59L775.213 425.65C776.627 409.9 782.11 394.788 791.122 381.795C800.134 368.802 812.368 358.374 826.624 351.531C839.026 345.579 852.589 342.518 866.293 342.545Z" fill="#E2EE62"/>
<path d="M845.732 355.85C826.474 360.836 810.008 372.76 799.16 388.795L790.375 382.889C802.786 364.43 821.51 351.138 843.029 345.512L845.732 355.85Z" fill="#EDF5A1"/>
</g>
<defs>
<filter id="filter0_d_186_72799" x="1117.45" y="398.857" width="532.299" height="266.036" filterUnits="userSpaceOnUse" color-interpolation-filters="sRGB">
<feFlood flood-opacity="0" result="BackgroundImageFix"/>
<feColorMatrix in="SourceAlpha" type="matrix" values="0 0 0 0 0 0 0 0 0 0 0 0 0 0 0 0 0 0 127 0" result="hardAlpha"/>
<feOffset dy="2.68439"/>
<feGaussianBlur stdDeviation="16.7774"/>
<feComposite in2="hardAlpha" operator="out"/>
<feColorMatrix type="matrix" values="0 0 0 0 0 0 0 0 0 0 0 0 0 0 0 0 0 0 0.05 0"/>
<feBlend mode="normal" in2="BackgroundImageFix" result="effect1_dropShadow_186_72799"/>
<feBlend mode="normal" in="SourceGraphic" in2="effect1_dropShadow_186_72799" result="shape"/>
</filter>
<clipPath id="clip0_186_72799">
<rect width="1600" height="792" fill="white"/>
</clipPath>
<clipPath id="clip1_186_72799">
<rect width="60.6327" height="60.6327" fill="white" transform="translate(1212.39 483.915) rotate(5.59984)"/>
</clipPath>
<clipPath id="clip2_186_72799">
<rect width="60.6327" height="60.6327" fill="white" transform="translate(1212.39 483.915) rotate(5.59984)"/>
</clipPath>
</defs>
</svg>
